<svg version="1.1" id="Layer_1" xmlns="http://www.w3.org/2000/svg" xmlns:xlink="http://www.w3.org/1999/xlink" x="0px" y="0px"
	 width="100%" viewBox="0 0 591 580" enable-background="new 0 0 591 580" xml:space="preserve">
<path fill="#FFFFFF" opacity="0" stroke="none" 
	d="
M402.000000,581.000000 
	C268.000000,581.000000 134.500000,581.000000 1.000000,581.000000 
	C1.000000,387.666656 1.000000,194.333328 1.000000,1.000000 
	C198.000000,1.000000 395.000000,1.000000 592.000000,1.000000 
	C592.000000,194.333328 592.000000,387.666656 592.000000,581.000000 
	C528.833313,581.000000 465.666656,581.000000 402.000000,581.000000 
M124.108307,368.775452 
	C133.841797,391.385223 150.439606,403.308075 175.627716,402.036163 
	C180.420364,401.794159 185.236176,402.010651 190.272522,402.930176 
	C190.272522,409.379913 190.272522,415.829620 190.272522,422.232239 
	C186.735840,422.455811 183.781769,422.625549 180.830276,422.831848 
	C157.222504,424.481812 139.256180,443.646393 139.743286,466.651001 
	C140.266159,491.344879 158.996765,510.601868 183.410385,510.687439 
	C242.407578,510.894226 301.405975,510.774811 360.403900,510.736755 
	C372.268616,510.729095 382.286591,506.502380 389.257507,496.619141 
	C403.904175,475.853394 391.083069,448.693420 365.088806,445.071655 
	C364.066071,444.929169 363.142517,444.074768 363.084320,443.663269 
	C364.913910,443.722443 366.743469,443.832916 368.573059,443.833252 
	C418.688171,443.842712 468.803284,443.848022 518.918396,443.835968 
	C531.051880,443.833038 541.547668,436.849976 545.902466,425.963135 
	C550.175232,415.281403 547.836731,402.753326 538.797180,394.938080 
	C533.458374,390.322327 526.742310,387.299683 520.268433,383.329285 
	C525.736328,354.563354 492.178131,327.313995 462.353882,345.322327 
	C459.814850,340.896271 457.275848,336.470367 455.352783,331.423859 
	C470.503723,331.323639 485.655060,331.257568 500.805359,331.098450 
	C504.457153,331.060120 508.247589,331.284058 511.732849,330.416992 
	C535.969971,324.387360 558.245789,301.664185 552.550232,268.514160 
	C548.093811,242.576828 525.222900,224.933136 498.874512,225.784348 
	C497.080536,225.842300 495.283081,225.791901 493.019165,225.791901 
	C493.019165,218.639511 493.738556,211.650833 492.894897,204.856232 
	C489.199982,175.098724 464.412079,150.672928 430.738678,150.356598 
	C407.753784,150.140686 389.510529,160.609772 376.800903,180.122299 
	C375.779449,181.690521 374.233612,182.917191 372.101318,184.126190 
	C368.824249,183.712555 365.547180,183.298920 362.263489,182.884460 
	C367.722321,156.742935 361.680115,134.393265 339.468384,118.891510 
	C316.291260,102.715988 292.619629,105.206787 269.819733,120.889984 
	C257.436981,76.076599 217.054153,57.096458 181.520813,64.283394 
	C164.902344,67.644623 150.813812,75.994110 139.774841,88.996986 
	C124.337845,107.180328 119.127090,128.287582 122.912498,151.714325 
	C88.283440,150.862793 63.630127,166.169647 54.783504,193.699814 
	C45.951149,221.185577 55.536972,249.420319 79.324684,266.719757 
	C78.937347,271.600800 78.550018,276.481842 78.137512,281.680084 
	C76.926224,281.951508 75.148628,282.256897 73.425568,282.752075 
	C66.185966,284.832581 61.629436,289.790802 60.189678,296.953064 
	C58.713070,304.298615 60.656738,311.275482 67.172897,315.430298 
	C71.032837,317.891388 76.011955,319.639801 80.554283,319.797760 
	C95.793724,320.327728 111.063019,319.999023 126.187469,319.999023 
	C126.361969,320.613037 126.495384,320.818329 126.439827,320.926819 
	C125.681175,322.407867 124.815834,323.839081 124.130684,325.352234 
	C118.195000,338.461456 116.558891,351.722931 122.939980,365.575775 
	C122.939980,365.575775 123.110703,365.890106 123.026268,366.517578 
	C123.325058,367.039978 123.623840,367.562408 124.108307,368.775452 
z"/>
<path fill="#6B99D2" opacity="1.000000" stroke="none" 
	d="
M122.827477,365.236237 
	C116.558891,351.722931 118.195000,338.461456 124.130684,325.352234 
	C124.815834,323.839081 125.681175,322.407867 126.439827,320.926819 
	C126.495384,320.818329 126.361969,320.613037 126.187469,319.999023 
	C111.063019,319.999023 95.793724,320.327728 80.554283,319.797760 
	C76.011955,319.639801 71.032837,317.891388 67.172897,315.430298 
	C60.656738,311.275482 58.713070,304.298615 60.189678,296.953064 
	C61.629436,289.790802 66.185966,284.832581 73.425568,282.752075 
	C75.148628,282.256897 76.926224,281.951508 78.137512,281.680084 
	C78.550018,276.481842 78.937347,271.600800 79.534149,266.072144 
	C83.525040,258.857330 88.503143,253.917221 96.122871,251.741592 
	C103.815186,249.545258 110.380478,252.260834 116.768295,255.913727 
	C124.556435,238.185608 136.270981,229.960617 151.141235,232.148193 
	C162.814041,233.865387 176.147232,241.226913 178.468933,264.730865 
	C179.316803,263.127502 179.922256,261.998383 180.513657,260.861938 
	C199.264893,224.829910 247.332825,217.913589 274.799103,247.786896 
	C279.768921,253.192245 283.911591,253.780869 289.945129,251.250137 
	C285.621429,229.038025 290.826172,210.145386 310.357758,197.175537 
	C329.860321,184.224915 349.359924,186.811188 368.830170,199.584991 
	C370.305054,194.089203 371.618256,189.195892 372.931458,184.302582 
	C374.233612,182.917191 375.779449,181.690521 376.800903,180.122299 
	C389.510529,160.609772 407.753784,150.140686 430.738678,150.356598 
	C464.412079,150.672928 489.199982,175.098724 492.894897,204.856232 
	C493.738556,211.650833 493.019165,218.639511 493.019165,225.791901 
	C495.283081,225.791901 497.080536,225.842300 498.874512,225.784348 
	C525.222900,224.933136 548.093811,242.576828 552.550232,268.514160 
	C558.245789,301.664185 535.969971,324.387360 511.732849,330.416992 
	C508.247589,331.284058 504.457153,331.060120 500.805359,331.098450 
	C485.655060,331.257568 470.503723,331.323639 454.675323,331.581055 
	C452.218689,331.520081 450.440002,331.117065 448.660278,331.112427 
	C430.690247,331.065521 412.720062,331.083832 394.749908,331.083832 
	C381.427399,331.083832 380.865417,331.460388 376.070770,343.885223 
	C375.594849,345.118530 375.083740,346.392639 374.932648,347.687866 
	C374.160248,354.311493 373.500671,360.948242 372.769684,367.883453 
	C354.300720,367.235809 340.489594,374.956909 332.615448,393.031281 
	C334.029938,393.661499 334.898865,394.074493 335.787170,394.440582 
	C350.812500,400.632874 360.202301,411.482239 362.365845,427.760803 
	C363.052185,432.924805 362.278351,438.282837 362.172729,443.552094 
	C363.142517,444.074768 364.066071,444.929169 365.088806,445.071655 
	C391.083069,448.693420 403.904175,475.853394 389.257507,496.619141 
	C382.286591,506.502380 372.268616,510.729095 360.403900,510.736755 
	C301.405975,510.774811 242.407578,510.894226 183.410385,510.687439 
	C158.996765,510.601868 140.266159,491.344879 139.743286,466.651001 
	C139.256180,443.646393 157.222504,424.481812 180.830276,422.831848 
	C183.781769,422.625549 186.735840,422.455811 190.272522,422.232239 
	C190.272522,415.829620 190.272522,409.379913 190.435730,402.246613 
	C191.398514,399.203979 192.167755,396.834167 193.002182,394.487488 
	C204.685287,361.630798 246.923233,349.161957 274.828400,370.114258 
	C285.270935,377.954956 291.540222,388.345886 295.460724,400.937164 
	C305.082031,394.376404 315.305939,391.123779 326.757202,391.938538 
	C327.976624,392.025299 329.914032,389.860992 330.602020,388.329376 
	C335.804504,376.747894 344.595856,369.442535 356.757965,366.369080 
	C361.192810,365.248352 365.892914,365.177368 371.093750,364.552795 
	C369.800262,353.013062 371.281982,341.906830 377.952942,331.086029 
	C374.650970,331.086029 372.837952,331.086578 371.024902,331.085938 
	C343.370300,331.076385 315.715149,331.170654 288.061340,331.018188 
	C271.348724,330.926056 256.717133,319.607849 251.688873,303.350952 
	C246.662506,287.100159 252.724747,269.136749 266.592468,259.662476 
	C269.835663,257.446747 273.390991,255.687866 277.175354,253.503723 
	C262.426849,238.261383 244.474731,233.117279 224.551773,236.539474 
	C205.694946,239.778564 191.683990,250.629883 182.808426,268.335022 
	C184.033707,268.625336 184.645447,268.811920 185.271011,268.912415 
	C199.854965,271.255310 207.591599,284.477905 206.732910,295.500092 
	C205.599167,310.053162 194.486191,319.985840 180.237839,319.996094 
	C166.410507,320.006073 152.582260,319.921326 138.756927,320.087341 
	C136.842377,320.110291 134.007156,320.766571 133.198074,322.100250 
	C129.785324,327.725861 125.604599,333.428497 124.288879,339.649475 
	C122.541420,347.911835 123.201714,356.683441 122.827477,365.236237 
z"/>
<path fill="#26477A" opacity="1.000000" stroke="none" 
	d="
M372.516388,184.214386 
	C371.618256,189.195892 370.305054,194.089203 368.830170,199.584991 
	C349.359924,186.811188 329.860321,184.224915 310.357758,197.175537 
	C290.826172,210.145386 285.621429,229.038025 289.945129,251.250137 
	C283.911591,253.780869 279.768921,253.192245 274.799103,247.786896 
	C247.332825,217.913589 199.264893,224.829910 180.513657,260.861938 
	C179.922256,261.998383 179.316803,263.127502 178.468933,264.730865 
	C176.147232,241.226913 162.814041,233.865387 151.141235,232.148193 
	C136.270981,229.960617 124.556435,238.185608 116.768295,255.913727 
	C110.380478,252.260834 103.815186,249.545258 96.122871,251.741592 
	C88.503143,253.917221 83.525040,258.857330 79.509354,265.631836 
	C55.536972,249.420319 45.951149,221.185577 54.783504,193.699814 
	C63.630127,166.169647 88.283440,150.862793 122.912498,151.714325 
	C119.127090,128.287582 124.337845,107.180328 139.774841,88.996986 
	C150.813812,75.994110 164.902344,67.644623 181.520813,64.283394 
	C217.054153,57.096458 257.436981,76.076599 269.819733,120.889984 
	C292.619629,105.206787 316.291260,102.715988 339.468384,118.891510 
	C361.680115,134.393265 367.722321,156.742935 362.263489,182.884460 
	C365.547180,183.298920 368.824249,183.712555 372.516388,184.214386 
z"/>
<path fill="#26477A" opacity="1.000000" stroke="none" 
	d="
M122.883728,365.406006 
	C123.201714,356.683441 122.541420,347.911835 124.288879,339.649475 
	C125.604599,333.428497 129.785324,327.725861 133.198074,322.100250 
	C134.007156,320.766571 136.842377,320.110291 138.756927,320.087341 
	C152.582260,319.921326 166.410507,320.006073 180.237839,319.996094 
	C194.486191,319.985840 205.599167,310.053162 206.732910,295.500092 
	C207.591599,284.477905 199.854965,271.255310 185.271011,268.912415 
	C184.645447,268.811920 184.033707,268.625336 182.808426,268.335022 
	C191.683990,250.629883 205.694946,239.778564 224.551773,236.539474 
	C244.474731,233.117279 262.426849,238.261383 277.175354,253.503723 
	C273.390991,255.687866 269.835663,257.446747 266.592468,259.662476 
	C252.724747,269.136749 246.662506,287.100159 251.688873,303.350952 
	C256.717133,319.607849 271.348724,330.926056 288.061340,331.018188 
	C315.715149,331.170654 343.370300,331.076385 371.024902,331.085938 
	C372.837952,331.086578 374.650970,331.086029 377.952942,331.086029 
	C371.281982,341.906830 369.800262,353.013062 371.093750,364.552795 
	C365.892914,365.177368 361.192810,365.248352 356.757965,366.369080 
	C344.595856,369.442535 335.804504,376.747894 330.602020,388.329376 
	C329.914032,389.860992 327.976624,392.025299 326.757202,391.938538 
	C315.305939,391.123779 305.082031,394.376404 295.460724,400.937164 
	C291.540222,388.345886 285.270935,377.954956 274.828400,370.114258 
	C246.923233,349.161957 204.685287,361.630798 193.002182,394.487488 
	C192.167755,396.834167 191.398514,399.203979 190.320129,401.789307 
	C185.236176,402.010651 180.420364,401.794159 175.627716,402.036163 
	C150.439606,403.308075 133.841797,391.385223 124.064224,368.117310 
	C123.716995,366.936157 123.413849,366.413116 123.110703,365.890106 
	C123.110703,365.890106 122.939980,365.575775 122.883728,365.406006 
z"/>
<path fill="#27487B" opacity="1.000000" stroke="none" 
	d="
M362.628540,443.607666 
	C362.278351,438.282837 363.052185,432.924805 362.365845,427.760803 
	C360.202301,411.482239 350.812500,400.632874 335.787170,394.440582 
	C334.898865,394.074493 334.029938,393.661499 332.615448,393.031281 
	C340.489594,374.956909 354.300720,367.235809 372.769684,367.883453 
	C373.500671,360.948242 374.160248,354.311493 374.932648,347.687866 
	C375.083740,346.392639 375.594849,345.118530 376.070770,343.885223 
	C380.865417,331.460388 381.427399,331.083832 394.749908,331.083832 
	C412.720062,331.083832 430.690247,331.065521 448.660278,331.112427 
	C450.440002,331.117065 452.218689,331.520081 454.367371,331.891327 
	C457.275848,336.470367 459.814850,340.896271 462.353882,345.322327 
	C492.178131,327.313995 525.736328,354.563354 520.268433,383.329285 
	C526.742310,387.299683 533.458374,390.322327 538.797180,394.938080 
	C547.836731,402.753326 550.175232,415.281403 545.902466,425.963135 
	C541.547668,436.849976 531.051880,443.833038 518.918396,443.835968 
	C468.803284,443.848022 418.688171,443.842712 368.573059,443.833252 
	C366.743469,443.832916 364.913910,443.722443 362.628540,443.607666 
z"/>
<path fill="#6B99D2" opacity="1.000000" stroke="none" 
	d="
M123.068481,366.203857 
	C123.413849,366.413116 123.716995,366.936157 123.971390,367.771973 
	C123.623840,367.562408 123.325058,367.039978 123.068481,366.203857 
z"/>
</svg>