<svg version="1.1" id="Layer_1" xmlns="http://www.w3.org/2000/svg" xmlns:xlink="http://www.w3.org/1999/xlink" x="0px" y="0px"
	 width="100%" viewBox="0 0 666 652" enable-background="new 0 0 666 652" xml:space="preserve">
<path fill="#FFFFFF" opacity="0" stroke="none" 
	d="
M403.000000,653.000000 
	C268.666656,653.000000 134.833328,653.000000 1.000000,653.000000 
	C1.000000,435.666656 1.000000,218.333328 1.000000,1.000000 
	C223.000000,1.000000 445.000000,1.000000 667.000000,1.000000 
	C667.000000,218.333328 667.000000,435.666656 667.000000,653.000000 
	C579.166687,653.000000 491.333344,653.000000 403.000000,653.000000 
M366.610291,588.747070 
	C367.074646,588.269714 367.569580,587.818237 367.998993,587.311279 
	C394.143860,556.443115 420.288757,525.574890 446.418457,494.693878 
	C451.302582,488.921631 456.123749,483.096130 461.844757,476.253784 
	C446.499786,476.253784 432.510315,476.253784 417.542358,476.253784 
	C435.503571,452.220886 452.805023,429.070770 470.702362,405.123322 
	C453.797394,405.123322 438.307404,405.267761 422.823517,405.024689 
	C418.807007,404.961639 416.644226,406.191864 414.722137,409.766205 
	C398.888855,439.209930 382.835602,468.535339 366.869568,497.907745 
	C366.064819,499.388245 365.448822,500.971405 364.388611,503.284027 
	C376.526001,503.284027 387.605927,503.284027 399.299225,503.284027 
	C398.548859,505.406494 398.066498,506.942230 397.470062,508.432281 
	C387.529480,533.264587 377.557526,558.084290 367.656006,582.932129 
	C366.880676,584.877747 366.574890,587.010559 365.585815,588.926270 
	C365.555664,589.192017 365.525513,589.457825 365.495361,589.723572 
	C365.655365,589.470947 365.815369,589.218384 366.610291,588.747070 
M546.889648,252.065033 
	C549.555603,252.043350 552.235596,251.832596 554.885376,252.029129 
	C582.535400,254.080048 615.195679,226.636383 613.753113,190.064804 
	C612.433350,156.605408 584.726196,131.473557 551.210327,132.810837 
	C549.302429,132.886948 547.388916,132.820663 545.426147,132.820663 
	C549.418091,96.679512 530.920959,65.833687 498.505432,53.999298 
	C483.110931,48.379021 467.493683,47.950218 452.025757,53.232925 
	C427.650513,61.557724 412.218353,78.747696 404.770874,103.571800 
	C385.600555,90.070450 365.917542,87.158119 344.332520,96.884621 
	C308.503876,66.118988 267.899231,58.761795 225.465500,78.562202 
	C174.928070,102.143929 155.611847,144.535309 162.175262,199.616165 
	C146.731720,197.708405 131.614227,199.053925 117.061317,204.574341 
	C70.800156,222.122818 46.896580,272.537872 62.185047,319.543854 
	C73.609230,354.668732 111.522011,384.504730 148.270950,382.116821 
	C159.383850,381.394684 170.587158,382.063995 181.584900,382.734375 
	C172.588409,399.256531 163.591934,415.778717 154.154694,433.110352 
	C166.529160,433.110352 177.631683,433.110352 189.573288,433.110352 
	C178.062973,462.000793 166.793091,490.287781 155.523209,518.574768 
	C155.860886,518.772095 156.198563,518.969421 156.536240,519.166748 
	C188.043442,481.914703 219.550629,444.662689 252.017960,406.275452 
	C236.773392,406.275452 222.956619,406.275452 207.613281,406.275452 
	C214.402634,397.352600 220.286041,389.620392 227.082520,381.967041 
	C323.351562,381.977478 419.621002,382.157074 515.889465,381.928955 
	C566.177734,381.809784 598.603271,329.480011 576.988342,284.027466 
	C570.246216,269.849976 559.197144,259.874573 546.889648,252.065033 
M301.272583,423.783234 
	C294.436005,428.797363 287.417389,433.584534 280.809723,438.884094 
	C272.878387,445.245270 270.778351,455.982147 275.164307,465.050934 
	C279.554474,474.128357 290.224609,479.261963 300.165833,477.079620 
	C310.007996,474.919037 317.022614,466.595093 317.269287,456.499268 
	C317.594360,443.192444 317.777405,429.882111 317.989655,416.572784 
	C318.011536,415.198303 317.817291,413.820404 317.713318,412.297394 
	C316.976654,412.600189 316.646790,412.668549 316.397034,412.848297 
	C311.542023,416.341949 306.696411,419.848602 301.272583,423.783234 
M105.724731,435.486633 
	C109.026726,441.033203 114.014381,442.965912 120.166801,441.875885 
	C125.445396,440.940613 130.208542,436.016205 130.575348,429.885803 
	C131.105606,421.023651 130.711029,412.106171 130.711029,402.347931 
	C123.578125,407.527039 116.837822,412.238953 110.302261,417.219482 
	C104.184265,421.881775 102.768135,427.360107 105.724731,435.486633 
M332.549469,533.275269 
	C326.245056,537.882996 319.924194,542.468506 313.641205,547.105225 
	C308.243774,551.088440 306.428986,557.194214 308.876953,562.876282 
	C311.358398,568.635986 317.684082,572.065430 323.467133,570.786194 
	C329.859283,569.372192 333.861694,564.297119 334.014618,557.509827 
	C334.175446,550.372742 334.456757,543.237427 334.516968,536.099915 
	C334.525879,535.045044 333.607086,533.982361 332.549469,533.275269 
M524.006226,445.313690 
	C524.006226,437.920166 524.006226,430.526642 524.006226,422.229065 
	C516.121887,428.042847 508.423248,433.180939 501.395721,439.113983 
	C497.493439,442.408478 496.849915,447.467224 498.663025,452.461060 
	C500.903290,458.631409 506.824249,462.015259 513.328979,460.918243 
	C519.833557,459.821259 523.898804,454.237152 524.006226,445.313690 
M197.810989,589.785217 
	C202.127884,588.390381 206.482956,586.165588 206.782700,581.424377 
	C207.382614,571.935181 206.960754,562.381470 206.960754,552.441711 
	C199.518616,557.957581 191.973083,563.344543 184.717972,569.097717 
	C183.235565,570.273254 182.329620,572.748230 182.036362,574.752747 
	C180.684814,583.990845 186.849991,590.117676 197.810989,589.785217 
z"/>
<path fill="#26477A" opacity="1.000000" stroke="none" 
	d="
M181.749054,382.095947 
	C170.587158,382.063995 159.383850,381.394684 148.270950,382.116821 
	C111.522011,384.504730 73.609230,354.668732 62.185047,319.543854 
	C46.896580,272.537872 70.800156,222.122818 117.061317,204.574341 
	C131.614227,199.053925 146.731720,197.708405 162.175262,199.616165 
	C155.611847,144.535309 174.928070,102.143929 225.465500,78.562202 
	C267.899231,58.761795 308.503876,66.118988 344.824219,97.286179 
	C362.123352,113.192009 372.418488,132.540054 378.077850,154.739059 
	C410.844879,129.393845 451.572906,130.482681 479.229431,149.880356 
	C512.451050,173.181305 522.566345,205.696762 514.393311,243.604492 
	C525.252930,246.502625 535.598755,249.263626 545.944641,252.024628 
	C559.197144,259.874573 570.246216,269.849976 576.988342,284.027466 
	C598.603271,329.480011 566.177734,381.809784 515.889465,381.928955 
	C419.621002,382.157074 323.351562,381.977478 226.719162,381.615906 
	C237.611847,366.159424 248.867905,351.054138 260.718842,335.150482 
	C243.014999,335.150482 226.567688,335.052094 210.125992,335.311188 
	C208.577728,335.335571 206.515640,337.300415 205.621445,338.887848 
	C197.545959,353.224060 189.677933,367.677155 181.749054,382.095947 
z"/>
<path fill="#6B99D2" opacity="1.000000" stroke="none" 
	d="
M546.417114,252.044830 
	C535.598755,249.263626 525.252930,246.502625 514.393311,243.604492 
	C522.566345,205.696762 512.451050,173.181305 479.229431,149.880356 
	C451.572906,130.482681 410.844879,129.393845 378.077850,154.739059 
	C372.418488,132.540054 362.123352,113.192009 345.138855,97.414619 
	C365.917542,87.158119 385.600555,90.070450 404.770874,103.571800 
	C412.218353,78.747696 427.650513,61.557724 452.025757,53.232925 
	C467.493683,47.950218 483.110931,48.379021 498.505432,53.999298 
	C530.920959,65.833687 549.418091,96.679512 545.426147,132.820663 
	C547.388916,132.820663 549.302429,132.886948 551.210327,132.810837 
	C584.726196,131.473557 612.433350,156.605408 613.753113,190.064804 
	C615.195679,226.636383 582.535400,254.080048 554.885376,252.029129 
	C552.235596,251.832596 549.555603,252.043350 546.417114,252.044830 
z"/>
<path fill="#FEB546" opacity="1.000000" stroke="none" 
	d="
M181.666977,382.415161 
	C189.677933,367.677155 197.545959,353.224060 205.621445,338.887848 
	C206.515640,337.300415 208.577728,335.335571 210.125992,335.311188 
	C226.567688,335.052094 243.014999,335.150482 260.718842,335.150482 
	C248.867905,351.054138 237.611847,366.159424 226.262634,381.576447 
	C220.286041,389.620392 214.402634,397.352600 207.613281,406.275452 
	C222.956619,406.275452 236.773392,406.275452 252.017960,406.275452 
	C219.550629,444.662689 188.043442,481.914703 156.536240,519.166748 
	C156.198563,518.969421 155.860886,518.772095 155.523209,518.574768 
	C166.793091,490.287781 178.062973,462.000793 189.573288,433.110352 
	C177.631683,433.110352 166.529160,433.110352 154.154694,433.110352 
	C163.591934,415.778717 172.588409,399.256531 181.666977,382.415161 
z"/>
<path fill="#FFB646" opacity="1.000000" stroke="none" 
	d="
M366.050873,589.056335 
	C366.574890,587.010559 366.880676,584.877747 367.656006,582.932129 
	C377.557526,558.084290 387.529480,533.264587 397.470062,508.432281 
	C398.066498,506.942230 398.548859,505.406494 399.299225,503.284027 
	C387.605927,503.284027 376.526001,503.284027 364.388611,503.284027 
	C365.448822,500.971405 366.064819,499.388245 366.869568,497.907745 
	C382.835602,468.535339 398.888855,439.209930 414.722137,409.766205 
	C416.644226,406.191864 418.807007,404.961639 422.823517,405.024689 
	C438.307404,405.267761 453.797394,405.123322 470.702362,405.123322 
	C452.805023,429.070770 435.503571,452.220886 417.542358,476.253784 
	C432.510315,476.253784 446.499786,476.253784 461.844757,476.253784 
	C456.123749,483.096130 451.302582,488.921631 446.418457,494.693878 
	C420.288757,525.574890 394.143860,556.443115 367.998993,587.311279 
	C367.569580,587.818237 367.074646,588.269714 366.311340,588.879395 
	C366.012421,589.011658 366.050873,589.056335 366.050873,589.056335 
z"/>
<path fill="#3773AB" opacity="1.000000" stroke="none" 
	d="
M301.560730,423.567932 
	C306.696411,419.848602 311.542023,416.341949 316.397034,412.848297 
	C316.646790,412.668549 316.976654,412.600189 317.713318,412.297394 
	C317.817291,413.820404 318.011536,415.198303 317.989655,416.572784 
	C317.777405,429.882111 317.594360,443.192444 317.269287,456.499268 
	C317.022614,466.595093 310.007996,474.919037 300.165833,477.079620 
	C290.224609,479.261963 279.554474,474.128357 275.164307,465.050934 
	C270.778351,455.982147 272.878387,445.245270 280.809723,438.884094 
	C287.417389,433.584534 294.436005,428.797363 301.560730,423.567932 
z"/>
<path fill="#3873AB" opacity="1.000000" stroke="none" 
	d="
M105.507294,435.165466 
	C102.768135,427.360107 104.184265,421.881775 110.302261,417.219482 
	C116.837822,412.238953 123.578125,407.527039 130.711029,402.347931 
	C130.711029,412.106171 131.105606,421.023651 130.575348,429.885803 
	C130.208542,436.016205 125.445396,440.940613 120.166801,441.875885 
	C114.014381,442.965912 109.026726,441.033203 105.507294,435.165466 
z"/>
<path fill="#3873AB" opacity="1.000000" stroke="none" 
	d="
M332.833496,533.099243 
	C333.607086,533.982361 334.525879,535.045044 334.516968,536.099915 
	C334.456757,543.237427 334.175446,550.372742 334.014618,557.509827 
	C333.861694,564.297119 329.859283,569.372192 323.467133,570.786194 
	C317.684082,572.065430 311.358398,568.635986 308.876953,562.876282 
	C306.428986,557.194214 308.243774,551.088440 313.641205,547.105225 
	C319.924194,542.468506 326.245056,537.882996 332.833496,533.099243 
z"/>
<path fill="#3873AB" opacity="1.000000" stroke="none" 
	d="
M524.006226,445.782776 
	C523.898804,454.237152 519.833557,459.821259 513.328979,460.918243 
	C506.824249,462.015259 500.903290,458.631409 498.663025,452.461060 
	C496.849915,447.467224 497.493439,442.408478 501.395721,439.113983 
	C508.423248,433.180939 516.121887,428.042847 524.006226,422.229065 
	C524.006226,430.526642 524.006226,437.920166 524.006226,445.782776 
z"/>
<path fill="#3B75AC" opacity="1.000000" stroke="none" 
	d="
M197.404449,589.857910 
	C186.849991,590.117676 180.684814,583.990845 182.036362,574.752747 
	C182.329620,572.748230 183.235565,570.273254 184.717972,569.097717 
	C191.973083,563.344543 199.518616,557.957581 206.960754,552.441711 
	C206.960754,562.381470 207.382614,571.935181 206.782700,581.424377 
	C206.482956,586.165588 202.127884,588.390381 197.404449,589.857910 
z"/>
<path fill="#FFB646" opacity="1.000000" stroke="none" 
	d="
M365.993896,588.988708 
	C365.815369,589.218384 365.655365,589.470947 365.495361,589.723572 
	C365.525513,589.457825 365.555664,589.192017 365.818359,588.991333 
	C366.050873,589.056335 366.012421,589.011658 365.993896,588.988708 
z"/>
</svg>