<svg version="1.1" id="Layer_1" xmlns="http://www.w3.org/2000/svg" xmlns:xlink="http://www.w3.org/1999/xlink" x="0px" y="0px"
	 width="100%" viewBox="0 0 511 484" enable-background="new 0 0 511 484" xml:space="preserve">
<path fill="#FFFFFF" opacity="0" stroke="none" 
	d="
M331.000000,485.000000 
	C220.666687,485.000000 110.833389,485.000000 1.000059,485.000000 
	C1.000039,323.666718 1.000039,162.333466 1.000020,1.000146 
	C171.333237,1.000097 341.666473,1.000097 511.999756,1.000049 
	C511.999847,162.333191 511.999847,323.666382 511.999939,484.999786 
	C451.833344,485.000000 391.666656,485.000000 331.000000,485.000000 
M450.933472,207.611145 
	C433.888428,181.138840 409.359436,170.129608 377.836060,172.668350 
	C381.191650,148.881012 376.990906,126.839722 363.391144,107.035812 
	C349.722717,87.131989 330.779388,74.986488 307.181152,70.426010 
	C288.827606,66.879089 270.892365,69.266380 253.989044,77.102623 
	C228.223816,89.047195 212.298355,109.456001 205.102432,136.745483 
	C178.760132,119.122826 151.521576,115.219490 124.812195,133.037064 
	C97.726868,151.105423 89.538094,177.769852 96.850388,209.391098 
	C92.657379,209.770996 88.790741,209.757172 85.081703,210.514862 
	C54.961952,216.667786 36.820400,245.447723 41.890869,273.679901 
	C46.305553,298.260712 68.710991,317.999512 93.635666,317.999695 
	C192.272354,318.000458 290.909515,317.855103 389.545258,318.159302 
	C404.009216,318.203888 416.486359,314.376801 428.342590,306.343811 
	C461.287354,284.022522 471.148590,242.568497 450.933472,207.611145 
M180.611954,355.098999 
	C179.666672,356.032623 178.637222,356.895966 177.789734,357.911224 
	C172.035172,364.804810 171.360565,374.976318 176.107849,382.575165 
	C180.735901,389.983124 190.250946,393.846161 199.100525,391.910034 
	C206.923355,390.198547 214.593079,382.358856 214.917542,374.581940 
	C215.527023,359.973938 215.562073,345.341919 215.800217,330.719299 
	C215.803070,330.544922 215.330627,330.362823 214.876480,330.039337 
	C203.688171,338.227875 192.442612,346.458313 180.611954,355.098999 
M359.680511,330.739685 
	C348.783386,338.647400 337.861664,346.521545 326.997711,354.474609 
	C319.751129,359.779602 317.074921,370.029175 320.551361,378.664459 
	C324.309418,387.999176 333.647217,393.310791 343.836273,391.909576 
	C352.249359,390.752563 360.522003,382.734100 360.957458,374.130737 
	C361.663574,360.178711 361.696838,346.191772 361.906433,332.217987 
	C361.916138,331.571533 360.875275,330.909363 359.680511,330.739685 
M75.363548,369.061340 
	C77.530670,365.856720 81.207321,362.812256 81.567719,359.415894 
	C82.468712,350.924896 81.864906,342.274292 81.864906,332.855804 
	C74.831741,338.001221 68.198578,342.629822 61.820473,347.586639 
	C56.051838,352.069702 54.720371,359.236664 58.182426,364.919525 
	C61.585506,370.505554 67.728859,372.197510 75.363548,369.061340 
M412.337738,396.880737 
	C408.825684,399.400269 405.292206,401.890625 401.806915,404.446655 
	C397.273956,407.771088 395.513367,413.998657 397.597626,419.118774 
	C399.694427,424.269562 404.842041,427.480042 410.227570,426.995789 
	C415.771759,426.497253 421.085785,422.103485 421.382874,416.579193 
	C421.842712,408.028412 421.504181,399.434662 421.504181,390.333466 
	C418.513123,392.468323 415.716919,394.464111 412.337738,396.880737 
M282.007996,412.297607 
	C282.007996,405.086395 282.007996,397.875183 282.007996,390.105988 
	C274.680481,395.440674 267.581818,400.545471 260.578644,405.778076 
	C259.572174,406.530121 258.863129,407.819641 258.295410,408.995178 
	C255.968918,413.812714 256.760437,419.033783 260.275818,422.881805 
	C263.864166,426.809845 269.019470,428.064758 273.891815,426.196411 
	C279.087799,424.204010 281.839355,419.808655 282.007996,412.297607 
z"/>
<path fill="#6B99D2" opacity="1.000000" stroke="none" 
	d="
M451.100861,207.935944 
	C471.148590,242.568497 461.287354,284.022522 428.342590,306.343811 
	C416.486359,314.376801 404.009216,318.203888 389.545258,318.159302 
	C290.909515,317.855103 192.272354,318.000458 93.635666,317.999695 
	C68.710991,317.999512 46.305553,298.260712 41.890869,273.679901 
	C36.820400,245.447723 54.961952,216.667786 85.081703,210.514862 
	C88.790741,209.757172 92.657379,209.770996 96.850388,209.391098 
	C89.538094,177.769852 97.726868,151.105423 124.812195,133.037064 
	C151.521576,115.219490 178.760132,119.122826 205.102432,136.745483 
	C212.298355,109.456001 228.223816,89.047195 253.989044,77.102623 
	C270.892365,69.266380 288.827606,66.879089 307.181152,70.426010 
	C330.779388,74.986488 349.722717,87.131989 363.391144,107.035812 
	C376.990906,126.839722 381.191650,148.881012 377.836060,172.668350 
	C409.359436,170.129608 433.888428,181.138840 451.100861,207.935944 
z"/>
<path fill="#3773AB" opacity="1.000000" stroke="none" 
	d="
M180.904510,354.893860 
	C192.442612,346.458313 203.688171,338.227875 214.876480,330.039337 
	C215.330627,330.362823 215.803070,330.544922 215.800217,330.719299 
	C215.562073,345.341919 215.527023,359.973938 214.917542,374.581940 
	C214.593079,382.358856 206.923355,390.198547 199.100525,391.910034 
	C190.250946,393.846161 180.735901,389.983124 176.107849,382.575165 
	C171.360565,374.976318 172.035172,364.804810 177.789734,357.911224 
	C178.637222,356.895966 179.666672,356.032623 180.904510,354.893860 
z"/>
<path fill="#3873AB" opacity="1.000000" stroke="none" 
	d="
M360.002075,330.497101 
	C360.875275,330.909363 361.916138,331.571533 361.906433,332.217987 
	C361.696838,346.191772 361.663574,360.178711 360.957458,374.130737 
	C360.522003,382.734100 352.249359,390.752563 343.836273,391.909576 
	C333.647217,393.310791 324.309418,387.999176 320.551361,378.664459 
	C317.074921,370.029175 319.751129,359.779602 326.997711,354.474609 
	C337.861664,346.521545 348.783386,338.647400 360.002075,330.497101 
z"/>
<path fill="#3873AB" opacity="1.000000" stroke="none" 
	d="
M75.041153,369.267578 
	C67.728859,372.197510 61.585506,370.505554 58.182426,364.919525 
	C54.720371,359.236664 56.051838,352.069702 61.820473,347.586639 
	C68.198578,342.629822 74.831741,338.001221 81.864906,332.855804 
	C81.864906,342.274292 82.468712,350.924896 81.567719,359.415894 
	C81.207321,362.812256 77.530670,365.856720 75.041153,369.267578 
z"/>
<path fill="#3974AC" opacity="1.000000" stroke="none" 
	d="
M412.629211,396.670288 
	C415.716919,394.464111 418.513123,392.468323 421.504181,390.333466 
	C421.504181,399.434662 421.842712,408.028412 421.382874,416.579193 
	C421.085785,422.103485 415.771759,426.497253 410.227570,426.995789 
	C404.842041,427.480042 399.694427,424.269562 397.597626,419.118774 
	C395.513367,413.998657 397.273956,407.771088 401.806915,404.446655 
	C405.292206,401.890625 408.825684,399.400269 412.629211,396.670288 
z"/>
<path fill="#3873AB" opacity="1.000000" stroke="none" 
	d="
M282.007996,412.764557 
	C281.839355,419.808655 279.087799,424.204010 273.891815,426.196411 
	C269.019470,428.064758 263.864166,426.809845 260.275818,422.881805 
	C256.760437,419.033783 255.968918,413.812714 258.295410,408.995178 
	C258.863129,407.819641 259.572174,406.530121 260.578644,405.778076 
	C267.581818,400.545471 274.680481,395.440674 282.007996,390.105988 
	C282.007996,397.875183 282.007996,405.086395 282.007996,412.764557 
z"/>
</svg>