<svg version="1.1" id="Layer_1" xmlns="http://www.w3.org/2000/svg" xmlns:xlink="http://www.w3.org/1999/xlink" x="0px" y="0px"
	 width="100%" viewBox="0 0 605 604" enable-background="new 0 0 605 604" xml:space="preserve">
<path fill="#FFFFFF" opacity="0" stroke="none" 
	d="
M355.000000,605.000000 
	C236.666672,605.000000 118.833336,605.000000 1.000000,605.000000 
	C1.000000,403.666656 1.000000,202.333328 1.000000,1.000000 
	C202.666672,1.000000 404.333344,1.000000 606.000000,1.000000 
	C606.000000,202.333328 606.000000,403.666656 606.000000,605.000000 
	C522.500000,605.000000 439.000000,605.000000 355.000000,605.000000 
M508.889496,238.064957 
	C511.555389,238.043304 514.235352,237.832642 516.885071,238.029144 
	C544.536987,240.079681 577.195679,212.634933 575.753113,176.065018 
	C574.433350,142.605682 546.726562,117.473961 513.210449,118.810921 
	C511.302521,118.887032 509.388947,118.820763 507.426178,118.820763 
	C511.415894,82.676323 492.920837,51.833755 460.505554,39.999435 
	C445.111084,34.379158 429.493835,33.950294 414.025909,39.232971 
	C389.650574,47.557720 374.218475,64.747742 366.833130,89.364708 
	C344.161133,73.890778 323.976166,74.838638 306.332642,82.884789 
	C273.310181,52.985317 225.607513,45.032413 186.488510,64.713387 
	C137.030945,89.595741 117.668602,130.946793 124.137596,185.290161 
	C124.086647,185.329987 123.953995,185.521179 123.833168,185.513992 
	C123.007347,185.464737 122.183907,185.374985 121.359894,185.296158 
	C106.727165,183.896378 92.449173,185.440491 78.688751,190.729904 
	C35.010246,207.519623 11.152080,253.809647 22.320816,299.191284 
	C31.885227,338.054108 71.751480,369.257019 110.601479,368.371460 
	C171.862228,366.975098 233.178162,367.993896 294.470734,368.007019 
	C302.961823,368.008850 311.452881,368.105713 319.690704,368.784760 
	C307.344910,390.404205 294.986938,412.016785 282.686249,433.661896 
	C282.012268,434.847900 281.112640,437.172211 281.510620,437.494690 
	C284.035309,439.540100 286.735016,441.658905 289.740845,442.650024 
	C290.679932,442.959717 293.153931,440.098389 294.227814,438.277252 
	C301.732117,425.551178 309.113403,412.751282 316.414368,399.906952 
	C322.393921,389.387421 328.208008,378.773834 335.009369,368.048096 
	C382.973541,368.026398 430.940430,368.313965 478.901184,367.897064 
	C527.997620,367.470306 560.223572,315.414886 539.424561,270.920593 
	C532.616577,256.356598 521.505066,246.053925 508.889496,238.064957 
M508.815887,467.272156 
	C509.569916,465.789307 510.155975,464.187744 511.106201,462.843597 
	C515.995605,455.927002 515.032837,456.139069 507.203827,451.840790 
	C506.164368,451.270142 503.287750,452.170990 502.544403,453.263214 
	C499.470032,457.780396 496.865814,462.619965 494.130646,467.365112 
	C483.272156,486.203003 472.366669,505.014221 461.622070,523.916870 
	C458.706848,529.045593 459.182739,529.549011 465.636200,533.105652 
	C469.958710,535.487854 471.153015,532.258728 472.747650,529.503418 
	C484.634979,508.963928 496.532104,488.430084 508.815887,467.272156 
M72.563179,519.091980 
	C70.701187,522.431702 68.590332,525.667236 67.123917,529.172485 
	C66.664581,530.270386 67.488380,532.834412 68.503014,533.454956 
	C72.379684,535.825745 78.869576,533.613281 81.161209,529.571289 
	C84.769043,523.207886 88.367371,516.838867 92.015297,510.498444 
	C101.294746,494.370056 110.647667,478.283386 119.792160,462.078979 
	C120.444710,460.922638 120.277641,458.250427 119.414803,457.462921 
	C113.751938,452.294342 110.468712,453.050385 106.691040,459.678070 
	C95.501816,479.308929 84.233864,498.894897 72.563179,519.091980 
M479.163971,403.891052 
	C479.163971,401.055908 479.163971,398.220764 479.163971,394.822296 
	C469.961487,401.495178 461.265533,407.633698 452.758331,414.023529 
	C446.211578,418.940857 443.992554,427.639801 447.145386,434.556488 
	C450.463104,441.834869 458.375793,445.701080 466.200806,443.867065 
	C473.496368,442.157196 478.905090,434.974304 478.998291,426.794434 
	C479.081757,419.467255 479.110596,412.139435 479.163971,403.891052 
M191.574142,403.077301 
	C186.762085,406.615234 181.940933,410.140900 177.140167,413.694092 
	C170.471024,418.630188 168.151184,426.790466 171.346085,433.985626 
	C174.408081,440.881470 182.221298,445.075684 189.256134,443.599976 
	C197.552994,441.859528 202.725204,435.569580 202.846283,426.968475 
	C202.942062,420.163147 202.965332,413.356689 203.003143,406.550629 
	C203.023499,402.886414 203.006744,399.221954 203.006744,394.787354 
	C198.838226,397.820007 195.501419,400.247589 191.574142,403.077301 
M311.641327,487.062592 
	C303.979919,492.611481 296.225769,498.037903 288.686096,503.747528 
	C282.490723,508.439117 280.732117,516.469360 283.979889,523.405823 
	C287.097168,530.063599 294.707367,534.030457 301.627045,532.604492 
	C309.479462,530.986328 314.824463,524.709412 315.000977,516.845154 
	C315.090424,512.860779 315.143738,508.875061 315.159302,504.889740 
	C315.184814,498.354523 315.166199,491.819122 315.166199,484.843048 
	C313.901398,485.631439 313.076263,486.145752 311.641327,487.062592 
M97.574486,414.843506 
	C101.853569,405.563110 98.846901,395.862701 100.191177,385.833069 
	C98.748390,386.477417 98.266640,386.604034 97.888153,386.874939 
	C92.638878,390.632202 87.368866,394.361877 82.173935,398.193268 
	C75.453674,403.149658 74.235306,410.102386 79.011406,415.695953 
	C83.983429,421.518951 91.215782,421.412598 97.574486,414.843506 
M402.099091,499.595062 
	C399.064697,501.913940 395.786011,503.979584 393.055756,506.613708 
	C389.384430,510.155853 389.021820,515.663269 391.625366,519.945251 
	C394.187775,524.159546 399.648010,526.718811 403.960815,525.726868 
	C409.230499,524.514954 412.779114,520.493164 413.101715,515.254517 
	C413.356812,511.112183 413.586945,506.966156 413.703705,502.818237 
	C413.802887,499.295715 413.724121,495.768127 413.724121,491.310486 
	C409.410309,494.375336 406.041901,496.768494 402.099091,499.595062 
M198.389160,501.115417 
	C198.389160,498.563660 198.389160,496.011902 198.389160,492.619965 
	C191.295319,497.796570 184.725998,502.264435 178.545258,507.217255 
	C174.539978,510.426788 173.932526,516.380188 176.377441,520.935303 
	C178.835114,525.514160 184.498245,528.083862 189.525497,526.901367 
	C194.298706,525.778748 197.937805,521.252441 198.097687,515.976868 
	C198.238708,511.323242 198.184692,506.663666 198.389160,501.115417 
M352.888092,413.688324 
	C353.152161,420.886475 356.645630,425.339569 362.567474,426.026642 
	C368.876373,426.758636 374.681885,423.669189 375.320618,417.654846 
	C376.177765,409.583954 375.532959,401.353546 375.532959,392.132050 
	C368.555756,397.308228 362.086914,401.839417 355.982788,406.817749 
	C354.390350,408.116516 353.933990,410.808258 352.888092,413.688324 
z"/>
<path fill="#26477A" opacity="1.000000" stroke="none" 
	d="
M319.943970,368.158600 
	C311.452881,368.105713 302.961823,368.008850 294.470734,368.007019 
	C233.178162,367.993896 171.862228,366.975098 110.601479,368.371460 
	C71.751480,369.257019 31.885227,338.054108 22.320816,299.191284 
	C11.152080,253.809647 35.010246,207.519623 78.688751,190.729904 
	C92.449173,185.440491 106.727165,183.896378 121.359894,185.296158 
	C122.183907,185.374985 123.007347,185.464737 123.833168,185.513992 
	C123.953995,185.521179 124.086647,185.329987 124.137596,185.290161 
	C117.668602,130.946793 137.030945,89.595741 186.488510,64.713387 
	C225.607513,45.032413 273.310181,52.985317 306.824341,83.286331 
	C324.123322,99.192169 334.418549,118.540100 340.078064,140.738846 
	C372.845581,115.393509 413.573334,116.483025 441.229248,135.880325 
	C474.450836,159.181244 484.566559,191.696579 476.393250,229.604538 
	C487.252747,232.502579 497.598602,235.263535 507.944458,238.024506 
	C521.505066,246.053925 532.616577,256.356598 539.424561,270.920593 
	C560.223572,315.414886 527.997620,367.470306 478.901184,367.897064 
	C430.940430,368.313965 382.973541,368.026398 334.085327,368.042725 
	C328.755524,368.077789 324.349731,368.118195 319.943970,368.158600 
z"/>
<path fill="#6B99D2" opacity="1.000000" stroke="none" 
	d="
M508.416992,238.044724 
	C497.598602,235.263535 487.252747,232.502579 476.393250,229.604538 
	C484.566559,191.696579 474.450836,159.181244 441.229248,135.880325 
	C413.573334,116.483025 372.845581,115.393509 340.078064,140.738846 
	C334.418549,118.540100 324.123322,99.192169 307.138977,83.414734 
	C323.976166,74.838638 344.161133,73.890778 366.833130,89.364708 
	C374.218475,64.747742 389.650574,47.557720 414.025909,39.232971 
	C429.493835,33.950294 445.111084,34.379158 460.505554,39.999435 
	C492.920837,51.833755 511.415894,82.676323 507.426178,118.820763 
	C509.388947,118.820763 511.302521,118.887032 513.210449,118.810921 
	C546.726562,117.473961 574.433350,142.605682 575.753113,176.065018 
	C577.195679,212.634933 544.536987,240.079681 516.885071,238.029144 
	C514.235352,237.832642 511.555389,238.043304 508.416992,238.044724 
z"/>
<path fill="#B5E4FB" opacity="1.000000" stroke="none" 
	d="
M508.621033,467.583313 
	C496.532104,488.430084 484.634979,508.963928 472.747650,529.503418 
	C471.153015,532.258728 469.958710,535.487854 465.636200,533.105652 
	C459.182739,529.549011 458.706848,529.045593 461.622070,523.916870 
	C472.366669,505.014221 483.272156,486.203003 494.130646,467.365112 
	C496.865814,462.619965 499.470032,457.780396 502.544403,453.263214 
	C503.287750,452.170990 506.164368,451.270142 507.203827,451.840790 
	C515.032837,456.139069 515.995605,455.927002 511.106201,462.843597 
	C510.155975,464.187744 509.569916,465.789307 508.621033,467.583313 
z"/>
<path fill="#B5E3FB" opacity="1.000000" stroke="none" 
	d="
M72.779930,518.795166 
	C84.233864,498.894897 95.501816,479.308929 106.691040,459.678070 
	C110.468712,453.050385 113.751938,452.294342 119.414803,457.462921 
	C120.277641,458.250427 120.444710,460.922638 119.792160,462.078979 
	C110.647667,478.283386 101.294746,494.370056 92.015297,510.498444 
	C88.367371,516.838867 84.769043,523.207886 81.161209,529.571289 
	C78.869576,533.613281 72.379684,535.825745 68.503014,533.454956 
	C67.488380,532.834412 66.664581,530.270386 67.123917,529.172485 
	C68.590332,525.667236 70.701187,522.431702 72.779930,518.795166 
z"/>
<path fill="#3773AB" opacity="1.000000" stroke="none" 
	d="
M479.163757,404.351501 
	C479.110596,412.139435 479.081757,419.467255 478.998291,426.794434 
	C478.905090,434.974304 473.496368,442.157196 466.200806,443.867065 
	C458.375793,445.701080 450.463104,441.834869 447.145386,434.556488 
	C443.992554,427.639801 446.211578,418.940857 452.758331,414.023529 
	C461.265533,407.633698 469.961487,401.495178 479.163971,394.822296 
	C479.163971,398.220764 479.163971,401.055908 479.163757,404.351501 
z"/>
<path fill="#3873AB" opacity="1.000000" stroke="none" 
	d="
M191.869370,402.876251 
	C195.501419,400.247589 198.838226,397.820007 203.006744,394.787354 
	C203.006744,399.221954 203.023499,402.886414 203.003143,406.550629 
	C202.965332,413.356689 202.942062,420.163147 202.846283,426.968475 
	C202.725204,435.569580 197.552994,441.859528 189.256134,443.599976 
	C182.221298,445.075684 174.408081,440.881470 171.346085,433.985626 
	C168.151184,426.790466 170.471024,418.630188 177.140167,413.694092 
	C181.940933,410.140900 186.762085,406.615234 191.869370,402.876251 
z"/>
<path fill="#3873AB" opacity="1.000000" stroke="none" 
	d="
M311.946228,486.861328 
	C313.076263,486.145752 313.901398,485.631439 315.166199,484.843048 
	C315.166199,491.819122 315.184814,498.354523 315.159302,504.889740 
	C315.143738,508.875061 315.090424,512.860779 315.000977,516.845154 
	C314.824463,524.709412 309.479462,530.986328 301.627045,532.604492 
	C294.707367,534.030457 287.097168,530.063599 283.979889,523.405823 
	C280.732117,516.469360 282.490723,508.439117 288.686096,503.747528 
	C296.225769,498.037903 303.979919,492.611481 311.946228,486.861328 
z"/>
<path fill="#B5E4FB" opacity="1.000000" stroke="none" 
	d="
M319.817322,368.471680 
	C324.349731,368.118195 328.755524,368.077789 333.628357,368.119659 
	C328.208008,378.773834 322.393921,389.387421 316.414368,399.906952 
	C309.113403,412.751282 301.732117,425.551178 294.227814,438.277252 
	C293.153931,440.098389 290.679932,442.959717 289.740845,442.650024 
	C286.735016,441.658905 284.035309,439.540100 281.510620,437.494690 
	C281.112640,437.172211 282.012268,434.847900 282.686249,433.661896 
	C294.986938,412.016785 307.344910,390.404205 319.817322,368.471680 
z"/>
<path fill="#6F9CD3" opacity="1.000000" stroke="none" 
	d="
M97.326630,415.136841 
	C91.215782,421.412598 83.983429,421.518951 79.011406,415.695953 
	C74.235306,410.102386 75.453674,403.149658 82.173935,398.193268 
	C87.368866,394.361877 92.638878,390.632202 97.888153,386.874939 
	C98.266640,386.604034 98.748390,386.477417 100.191177,385.833069 
	C98.846901,395.862701 101.853569,405.563110 97.326630,415.136841 
z"/>
<path fill="#6F9CD3" opacity="1.000000" stroke="none" 
	d="
M402.386292,499.378357 
	C406.041901,496.768494 409.410309,494.375336 413.724121,491.310486 
	C413.724121,495.768127 413.802887,499.295715 413.703705,502.818237 
	C413.586945,506.966156 413.356812,511.112183 413.101715,515.254517 
	C412.779114,520.493164 409.230499,524.514954 403.960815,525.726868 
	C399.648010,526.718811 394.187775,524.159546 391.625366,519.945251 
	C389.021820,515.663269 389.384430,510.155853 393.055756,506.613708 
	C395.786011,503.979584 399.064697,501.913940 402.386292,499.378357 
z"/>
<path fill="#6E9BD3" opacity="1.000000" stroke="none" 
	d="
M198.302979,501.561096 
	C198.184692,506.663666 198.238708,511.323242 198.097687,515.976868 
	C197.937805,521.252441 194.298706,525.778748 189.525497,526.901367 
	C184.498245,528.083862 178.835114,525.514160 176.377441,520.935303 
	C173.932526,516.380188 174.539978,510.426788 178.545258,507.217255 
	C184.725998,502.264435 191.295319,497.796570 198.389160,492.619965 
	C198.389160,496.011902 198.389160,498.563660 198.302979,501.561096 
z"/>
<path fill="#6E9BD3" opacity="1.000000" stroke="none" 
	d="
M352.921967,413.274292 
	C353.933990,410.808258 354.390350,408.116516 355.982788,406.817749 
	C362.086914,401.839417 368.555756,397.308228 375.532959,392.132050 
	C375.532959,401.353546 376.177765,409.583954 375.320618,417.654846 
	C374.681885,423.669189 368.876373,426.758636 362.567474,426.026642 
	C356.645630,425.339569 353.152161,420.886475 352.921967,413.274292 
z"/>
</svg>