<svg version="1.1" id="Layer_1" xmlns="http://www.w3.org/2000/svg" xmlns:xlink="http://www.w3.org/1999/xlink" x="0px" y="0px"
	 width="100%" viewBox="0 0 620 580" enable-background="new 0 0 620 580" xml:space="preserve">
<path fill="#FFFFFF" opacity="0" stroke="none" 
	d="
M340.000000,581.000000 
	C226.666672,581.000000 113.833336,581.000000 1.000000,581.000000 
	C1.000000,387.666656 1.000000,194.333328 1.000000,1.000000 
	C207.666672,1.000000 414.333344,1.000000 621.000000,1.000000 
	C621.000000,194.333328 621.000000,387.666656 621.000000,581.000000 
	C527.500000,581.000000 434.000000,581.000000 340.000000,581.000000 
M395.653870,265.086517 
	C395.090576,256.142517 395.333466,247.060776 393.832916,238.276886 
	C384.198547,181.880814 334.253326,144.575989 280.088928,146.280518 
	C253.722076,147.110229 230.366760,156.174973 210.415771,173.527847 
	C188.372665,192.700394 174.965225,216.869720 172.264435,245.907150 
	C168.828766,282.845520 180.377060,314.789246 207.472290,341.057648 
	C207.117599,341.620392 206.818283,342.228455 206.400131,342.739288 
	C193.626236,358.343536 188.089493,376.035339 191.027527,396.149750 
	C191.499100,399.378265 192.193588,402.574219 192.867767,406.234344 
	C188.733795,406.651733 184.892838,406.672302 181.219940,407.468323 
	C151.072647,414.001862 133.131470,440.480225 138.035019,470.988708 
	C141.959091,495.403320 164.849869,514.999390 189.451859,514.999634 
	C290.066895,515.000549 390.681946,515.030212 491.296814,514.908875 
	C496.209717,514.902954 501.434875,514.412781 505.982910,512.719788 
	C539.010742,500.424988 562.438538,470.755951 556.579651,431.150055 
	C550.570679,390.530090 513.446411,365.328308 476.783600,369.799683 
	C475.884064,369.909424 474.933411,369.599854 474.018463,369.487335 
	C474.018463,360.244263 475.006042,351.172241 473.840698,342.385742 
	C469.681274,311.024109 452.893585,288.127319 424.486938,274.519562 
	C415.527283,270.227600 405.207306,268.775391 395.653870,265.086517 
M417.958832,125.458824 
	C426.544556,116.877411 435.123962,108.289627 443.721130,99.719704 
	C445.544983,97.901581 447.497925,96.305313 444.804413,93.553848 
	C441.923035,90.610489 440.460602,93.165199 438.777710,94.842537 
	C422.759644,110.807434 406.763519,126.794312 390.761902,142.775696 
	C384.761383,148.768631 378.798859,154.800293 372.740906,160.734589 
	C371.004059,162.436005 370.250824,164.243454 372.589508,165.553192 
	C373.891754,166.282501 375.934906,165.990387 377.564697,165.704941 
	C378.370148,165.563889 378.996887,164.396637 379.702393,163.691589 
	C392.288025,151.114136 404.873291,138.536377 417.958832,125.458824 
M171.543396,157.956604 
	C175.193604,161.605545 178.838318,165.260025 182.495438,168.902008 
	C186.886154,173.274551 187.171326,173.238922 190.450180,168.550156 
	C166.707520,144.685898 143.051163,120.908363 119.041428,96.775658 
	C117.803215,98.091339 116.426445,99.554237 114.832809,101.247581 
	C133.860458,120.274681 152.451950,138.865616 171.543396,157.956604 
M150.432388,386.932373 
	C139.603058,397.760376 128.768188,408.582825 117.947189,419.419159 
	C113.665436,423.707062 113.811661,424.532806 119.505928,427.575134 
	C120.635704,426.506866 121.860664,425.403259 123.025276,424.239288 
	C144.335373,402.940796 165.640518,381.637360 186.940781,360.329010 
	C191.256836,356.011292 191.168594,355.462830 185.386887,351.933929 
	C173.953659,363.381866 162.443100,374.907196 150.432388,386.932373 
M71.500015,257.855286 
	C63.413937,257.855286 55.327862,257.855286 47.557613,257.855286 
	C45.934212,263.613953 47.741604,265.233093 52.760017,265.020172 
	C61.239147,264.660431 69.744621,264.921661 78.239021,264.921661 
	C100.057961,264.921631 121.876907,264.925140 143.695847,264.916504 
	C146.162598,264.915558 148.834869,265.445984 148.946136,261.481476 
	C149.057007,257.530243 146.512955,257.849854 143.952896,257.850708 
	C120.135269,257.858856 96.317642,257.855316 71.500015,257.855286 
M279.997650,115.497070 
	C279.998413,119.990845 280.096497,124.487411 279.967865,128.977478 
	C279.871918,132.327805 281.911987,133.408356 284.344360,132.343643 
	C285.679138,131.759369 286.881317,129.188416 286.889526,127.507118 
	C287.039703,96.883560 287.003784,66.259064 286.984711,35.634777 
	C286.983826,34.202461 286.771790,32.770275 286.660217,31.364571 
	C284.281189,31.364571 282.378387,31.364571 279.997650,31.364571 
	C279.997650,59.315044 279.997650,86.906532 279.997650,115.497070 
M443.500000,262.000153 
	C465.627197,261.999969 487.754425,261.976318 509.881500,262.030487 
	C512.532654,262.036957 514.367188,261.784180 514.319702,258.376404 
	C514.276184,255.252365 512.639221,254.968948 510.167480,254.972366 
	C479.056396,255.015320 447.945190,255.013672 416.834106,254.975266 
	C414.398468,254.972260 412.685089,255.184509 412.637360,258.340515 
	C412.586334,261.711304 414.354431,262.064728 417.045807,262.034607 
	C425.529602,261.939636 434.015137,261.999939 443.500000,262.000153 
M208.234573,99.361221 
	C214.671829,112.578758 221.109070,125.796288 227.500214,138.919128 
	C234.024948,136.724228 234.078613,136.558975 231.486511,131.203018 
	C224.766586,117.317909 218.039993,103.435860 211.378769,89.522568 
	C208.932083,84.412193 207.555664,84.234200 203.191971,88.919273 
	C204.759735,92.118568 206.361893,95.388062 208.234573,99.361221 
M344.936981,86.437210 
	C339.922882,100.839523 334.876862,115.230850 329.910828,129.649719 
	C327.992249,135.220352 328.216919,135.485153 334.526947,136.807541 
	C335.030579,135.722366 335.673645,134.594254 336.095459,133.388733 
	C341.406830,118.209747 346.670868,103.014175 351.989258,87.837669 
	C352.865509,85.337303 353.732910,83.246414 350.069336,82.008873 
	C346.201263,80.702240 346.008789,83.473221 344.936981,86.437210 
M134.315598,206.060440 
	C141.354721,208.544846 148.354126,211.156906 155.476624,213.373337 
	C156.521774,213.698578 158.928757,212.422699 159.302750,211.382996 
	C159.712372,210.244217 158.817276,208.249695 157.883926,207.137253 
	C157.145370,206.257004 155.493576,206.134674 154.240280,205.695847 
	C139.830215,200.650345 125.401733,195.656479 111.024002,190.520508 
	C108.529480,189.629440 106.800652,189.056473 105.604919,192.320465 
	C104.388588,195.640671 106.186050,196.327286 108.650696,197.169556 
	C116.971405,200.013092 125.246208,202.990936 134.315598,206.060440 
M420.290222,195.850739 
	C416.997986,197.421097 413.738739,199.066223 410.402252,200.536163 
	C408.074890,201.561508 407.597839,202.836914 408.736267,205.208084 
	C409.956909,207.750565 411.294617,208.144348 413.794342,206.909714 
	C428.358124,199.716507 442.975800,192.632217 457.589142,185.539764 
	C459.989380,184.374847 462.067993,183.380234 460.279877,179.992386 
	C458.547333,176.709869 456.567352,178.207367 454.504242,179.206467 
	C443.315704,184.624649 432.136505,190.062073 420.290222,195.850739 
M130.785583,323.344696 
	C124.232689,326.571686 117.764542,329.989288 111.095284,332.954590 
	C107.066788,334.745728 108.439133,337.179443 110.199509,339.103607 
	C110.897064,339.866089 113.588020,339.479980 114.991966,338.815338 
	C127.446640,332.919556 139.818329,326.848358 152.209274,320.818207 
	C155.445068,319.243469 158.662567,317.631165 162.290909,315.837128 
	C160.971161,313.484161 159.976913,311.711487 158.936554,309.856659 
	C149.411591,314.417694 140.435989,318.715698 130.785583,323.344696 
z"/>
<path fill="#6B99D2" opacity="1.000000" stroke="none" 
	d="
M395.509888,266.023529 
	C405.207306,268.775391 415.527283,270.227600 424.486938,274.519562 
	C452.893585,288.127319 469.681274,311.024109 473.840698,342.385742 
	C475.006042,351.172241 474.018463,360.244263 474.018463,369.487335 
	C474.933411,369.599854 475.884064,369.909424 476.783600,369.799683 
	C513.446411,365.328308 550.570679,390.530090 556.579651,431.150055 
	C562.438538,470.755951 539.010742,500.424988 505.982910,512.719788 
	C501.434875,514.412781 496.209717,514.902954 491.296814,514.908875 
	C390.681946,515.030212 290.066895,515.000549 189.451859,514.999634 
	C164.849869,514.999390 141.959091,495.403320 138.035019,470.988708 
	C133.131470,440.480225 151.072647,414.001862 181.219940,407.468323 
	C184.892838,406.672302 188.733795,406.651733 192.867767,406.234344 
	C192.193588,402.574219 191.499100,399.378265 191.027527,396.149750 
	C188.089493,376.035339 193.626236,358.343536 206.400131,342.739288 
	C206.818283,342.228455 207.117599,341.620392 207.892731,340.603882 
	C208.822433,339.725586 209.354691,339.325562 209.837662,338.872925 
	C235.894745,314.452759 269.650421,311.998840 298.866028,332.388031 
	C299.624268,332.917114 300.514832,333.256653 301.485046,333.757599 
	C307.810760,309.184753 321.561676,290.567596 343.229767,277.892761 
	C359.410553,268.427734 376.969666,265.075073 395.509888,266.023529 
z"/>
<path fill="#FFB544" opacity="1.000000" stroke="none" 
	d="
M395.581879,265.555023 
	C376.969666,265.075073 359.410553,268.427734 343.229767,277.892761 
	C321.561676,290.567596 307.810760,309.184753 301.485046,333.757599 
	C300.514832,333.256653 299.624268,332.917114 298.866028,332.388031 
	C269.650421,311.998840 235.894745,314.452759 209.837662,338.872925 
	C209.354691,339.325562 208.822433,339.725586 208.059326,340.296509 
	C180.377060,314.789246 168.828766,282.845520 172.264435,245.907150 
	C174.965225,216.869720 188.372665,192.700394 210.415771,173.527847 
	C230.366760,156.174973 253.722076,147.110229 280.088928,146.280518 
	C334.253326,144.575989 384.198547,181.880814 393.832916,238.276886 
	C395.333466,247.060776 395.090576,256.142517 395.581879,265.555023 
z"/>
<path fill="#FFB14C" opacity="1.000000" stroke="none" 
	d="
M417.708740,125.708755 
	C404.873291,138.536377 392.288025,151.114136 379.702393,163.691589 
	C378.996887,164.396637 378.370148,165.563889 377.564697,165.704941 
	C375.934906,165.990387 373.891754,166.282501 372.589508,165.553192 
	C370.250824,164.243454 371.004059,162.436005 372.740906,160.734589 
	C378.798859,154.800293 384.761383,148.768631 390.761902,142.775696 
	C406.763519,126.794312 422.759644,110.807434 438.777710,94.842537 
	C440.460602,93.165199 441.923035,90.610489 444.804413,93.553848 
	C447.497925,96.305313 445.544983,97.901581 443.721130,99.719704 
	C435.123962,108.289627 426.544556,116.877411 417.708740,125.708755 
z"/>
<path fill="#FFB04B" opacity="1.000000" stroke="none" 
	d="
M171.293427,157.706573 
	C152.451950,138.865616 133.860458,120.274681 114.832809,101.247581 
	C116.426445,99.554237 117.803215,98.091339 119.041428,96.775658 
	C143.051163,120.908363 166.707520,144.685898 190.450180,168.550156 
	C187.171326,173.238922 186.886154,173.274551 182.495438,168.902008 
	C178.838318,165.260025 175.193604,161.605545 171.293427,157.706573 
z"/>
<path fill="#FFB14E" opacity="1.000000" stroke="none" 
	d="
M150.682465,386.682465 
	C162.443100,374.907196 173.953659,363.381866 185.386887,351.933929 
	C191.168594,355.462830 191.256836,356.011292 186.940781,360.329010 
	C165.640518,381.637360 144.335373,402.940796 123.025276,424.239288 
	C121.860664,425.403259 120.635704,426.506866 119.505928,427.575134 
	C113.811661,424.532806 113.665436,423.707062 117.947189,419.419159 
	C128.768188,408.582825 139.603058,397.760376 150.682465,386.682465 
z"/>
<path fill="#FFB04B" opacity="1.000000" stroke="none" 
	d="
M72.000015,257.855225 
	C96.317642,257.855316 120.135269,257.858856 143.952896,257.850708 
	C146.512955,257.849854 149.057007,257.530243 148.946136,261.481476 
	C148.834869,265.445984 146.162598,264.915558 143.695847,264.916504 
	C121.876907,264.925140 100.057961,264.921631 78.239021,264.921661 
	C69.744621,264.921661 61.239147,264.660431 52.760017,265.020172 
	C47.741604,265.233093 45.934212,263.613953 47.557613,257.855286 
	C55.327862,257.855286 63.413937,257.855286 72.000015,257.855225 
z"/>
<path fill="#FFAF47" opacity="1.000000" stroke="none" 
	d="
M279.997650,114.997543 
	C279.997650,86.906532 279.997650,59.315044 279.997650,31.364571 
	C282.378387,31.364571 284.281189,31.364571 286.660217,31.364571 
	C286.771790,32.770275 286.983826,34.202461 286.984711,35.634777 
	C287.003784,66.259064 287.039703,96.883560 286.889526,127.507118 
	C286.881317,129.188416 285.679138,131.759369 284.344360,132.343643 
	C281.911987,133.408356 279.871918,132.327805 279.967865,128.977478 
	C280.096497,124.487411 279.998413,119.990845 279.997650,114.997543 
z"/>
<path fill="#FFAE46" opacity="1.000000" stroke="none" 
	d="
M443.000000,262.000153 
	C434.015137,261.999939 425.529602,261.939636 417.045807,262.034607 
	C414.354431,262.064728 412.586334,261.711304 412.637360,258.340515 
	C412.685089,255.184509 414.398468,254.972260 416.834106,254.975266 
	C447.945190,255.013672 479.056396,255.015320 510.167480,254.972366 
	C512.639221,254.968948 514.276184,255.252365 514.319702,258.376404 
	C514.367188,261.784180 512.532654,262.036957 509.881500,262.030487 
	C487.754425,261.976318 465.627197,261.999969 443.000000,262.000153 
z"/>
<path fill="#FFB14E" opacity="1.000000" stroke="none" 
	d="
M208.099304,99.009384 
	C206.361893,95.388062 204.759735,92.118568 203.191971,88.919273 
	C207.555664,84.234200 208.932083,84.412193 211.378769,89.522568 
	C218.039993,103.435860 224.766586,117.317909 231.486511,131.203018 
	C234.078613,136.558975 234.024948,136.724228 227.500214,138.919128 
	C221.109070,125.796288 214.671829,112.578758 208.099304,99.009384 
z"/>
<path fill="#FFB14D" opacity="1.000000" stroke="none" 
	d="
M345.023010,86.065208 
	C346.008789,83.473221 346.201263,80.702240 350.069336,82.008873 
	C353.732910,83.246414 352.865509,85.337303 351.989258,87.837669 
	C346.670868,103.014175 341.406830,118.209747 336.095459,133.388733 
	C335.673645,134.594254 335.030579,135.722366 334.526947,136.807541 
	C328.216919,135.485153 327.992249,135.220352 329.910828,129.649719 
	C334.876862,115.230850 339.922882,100.839523 345.023010,86.065208 
z"/>
<path fill="#FFB14C" opacity="1.000000" stroke="none" 
	d="
M133.927078,205.988937 
	C125.246208,202.990936 116.971405,200.013092 108.650696,197.169556 
	C106.186050,196.327286 104.388588,195.640671 105.604919,192.320465 
	C106.800652,189.056473 108.529480,189.629440 111.024002,190.520508 
	C125.401733,195.656479 139.830215,200.650345 154.240280,205.695847 
	C155.493576,206.134674 157.145370,206.257004 157.883926,207.137253 
	C158.817276,208.249695 159.712372,210.244217 159.302750,211.382996 
	C158.928757,212.422699 156.521774,213.698578 155.476624,213.373337 
	C148.354126,211.156906 141.354721,208.544846 133.927078,205.988937 
z"/>
<path fill="#FFB14D" opacity="1.000000" stroke="none" 
	d="
M420.622131,195.671799 
	C432.136505,190.062073 443.315704,184.624649 454.504242,179.206467 
	C456.567352,178.207367 458.547333,176.709869 460.279877,179.992386 
	C462.067993,183.380234 459.989380,184.374847 457.589142,185.539764 
	C442.975800,192.632217 428.358124,199.716507 413.794342,206.909714 
	C411.294617,208.144348 409.956909,207.750565 408.736267,205.208084 
	C407.597839,202.836914 408.074890,201.561508 410.402252,200.536163 
	C413.738739,199.066223 416.997986,197.421097 420.622131,195.671799 
z"/>
<path fill="#FFB14D" opacity="1.000000" stroke="none" 
	d="
M131.122986,323.179199 
	C140.435989,318.715698 149.411591,314.417694 158.936554,309.856659 
	C159.976913,311.711487 160.971161,313.484161 162.290909,315.837128 
	C158.662567,317.631165 155.445068,319.243469 152.209274,320.818207 
	C139.818329,326.848358 127.446640,332.919556 114.991966,338.815338 
	C113.588020,339.479980 110.897064,339.866089 110.199509,339.103607 
	C108.439133,337.179443 107.066788,334.745728 111.095284,332.954590 
	C117.764542,329.989288 124.232689,326.571686 131.122986,323.179199 
z"/>
</svg>