<svg version="1.1" id="Layer_1" xmlns="http://www.w3.org/2000/svg" xmlns:xlink="http://www.w3.org/1999/xlink" x="0px" y="0px"
	 width="100%" viewBox="0 0 620 580" enable-background="new 0 0 620 580" xml:space="preserve">
<path fill="#FFFFFF" opacity="0" stroke="none" 
	d="
M336.000000,581.000000 
	C224.000000,581.000000 112.500000,581.000000 1.000000,581.000000 
	C1.000000,387.666656 1.000000,194.333328 1.000000,1.000000 
	C207.666672,1.000000 414.333344,1.000000 621.000000,1.000000 
	C621.000000,194.333328 621.000000,387.666656 621.000000,581.000000 
	C526.166687,581.000000 431.333344,581.000000 336.000000,581.000000 
M438.638245,219.829102 
	C438.005188,211.520279 438.600098,202.885803 436.499756,194.966125 
	C431.058899,174.450745 421.388947,156.517303 402.793640,144.282837 
	C393.391052,138.096542 383.663666,133.163803 372.859894,130.441238 
	C361.680603,127.624046 350.220551,127.242409 338.921387,129.256866 
	C331.362366,130.604538 323.730804,132.568268 316.689178,135.565887 
	C304.803589,140.625549 294.737610,148.580750 286.399628,158.492950 
	C282.703186,162.887268 279.517242,167.711060 275.489777,171.955246 
	C269.602020,165.957977 264.286407,159.219879 257.696991,154.131195 
	C246.894135,145.788666 234.682617,140.678589 220.760574,138.483963 
	C209.378494,136.689713 198.336823,137.164215 187.604218,139.485184 
	C170.115402,143.267242 155.052628,152.549652 143.167557,165.899429 
	C124.695328,186.648148 118.397301,211.239349 122.834030,238.487320 
	C114.686279,238.999512 106.683594,238.846634 98.915802,240.123093 
	C80.998451,243.067337 66.920250,252.663376 56.015804,267.001953 
	C46.672535,279.287720 41.825668,292.905701 42.878494,308.643097 
	C43.556526,318.778137 43.185223,328.645935 47.505077,338.534882 
	C55.996788,357.973969 70.417816,370.380920 89.493553,378.056458 
	C95.003052,380.273346 100.934418,381.441772 106.213310,383.658600 
	C92.936493,402.176788 90.297562,422.837524 94.571793,444.601410 
	C100.686043,475.734467 133.182236,505.983765 168.989960,504.189514 
	C190.264786,503.123474 211.633804,503.905792 232.960464,503.910492 
	C313.453369,503.928284 393.946320,503.992004 474.439148,503.939209 
	C479.213318,503.936066 484.172699,503.735352 488.727997,502.476318 
	C506.686493,497.512695 519.589539,486.324463 527.181396,469.286835 
	C532.147522,458.141785 533.757874,446.350189 530.301025,434.626373 
	C528.011230,426.860260 523.913940,419.627106 521.226318,411.654755 
	C533.596863,408.250397 543.688599,401.042786 551.389343,391.193909 
	C559.758789,380.489777 563.761108,368.003143 563.039673,354.029663 
	C562.523193,344.026550 560.772400,334.532227 554.643372,326.518158 
	C548.994141,319.131348 544.612976,310.725159 534.833557,306.890686 
	C525.029297,303.046448 515.515503,299.226227 504.760468,300.099792 
	C502.989136,300.243683 501.196045,300.120056 500.063416,300.120056 
	C499.657959,291.502350 499.796783,283.437927 498.791107,275.518890 
	C497.045593,261.773834 490.031128,250.199371 480.688354,240.538406 
	C469.303406,228.765717 454.887695,222.192978 438.638245,219.829102 
M455.528717,104.028725 
	C455.058319,104.498695 454.588074,104.968834 454.117523,105.438622 
	C443.176941,116.360794 432.286224,127.333725 421.257355,138.166000 
	C418.785858,140.593430 418.209656,142.729630 421.579498,144.236755 
	C422.585052,144.686478 424.875977,143.412827 425.978546,142.322556 
	C442.761963,125.725792 459.481384,109.063385 476.053284,92.256187 
	C476.930908,91.366127 476.364838,89.052628 476.470886,87.401794 
	C474.952484,87.494392 472.868744,86.978569 472.007660,87.778610 
	C466.531250,92.867088 461.324585,98.245872 455.528717,104.028725 
M231.534836,103.964706 
	C245.551773,117.980705 259.563232,132.002197 273.589050,146.009323 
	C277.711670,150.126450 277.775970,150.100113 281.064667,144.278305 
	C263.464569,126.792816 245.777191,109.162285 227.942032,91.682526 
	C227.094788,90.852165 224.938156,91.357849 223.391296,91.241341 
	C223.468689,92.839272 222.938828,94.906921 223.741119,95.944107 
	C225.864426,98.689102 228.564285,100.988091 231.534836,103.964706 
M501.500000,211.997131 
	C484.908325,211.997131 468.316620,211.997131 451.617035,211.997131 
	C451.617035,214.285904 451.617035,215.864197 451.617035,217.297043 
	C452.225983,217.590439 452.515320,217.851547 452.805328,217.852280 
	C477.455109,217.914398 502.105164,217.997818 526.754089,217.864639 
	C527.865479,217.858643 528.966309,215.878372 530.072021,214.817627 
	C528.877075,213.877838 527.705872,212.161667 526.483276,212.124161 
	C518.495056,211.879074 510.495697,211.997513 501.500000,211.997131 
M348.997131,82.500000 
	C348.997131,94.215149 348.997131,105.930298 348.997131,117.931831 
	C351.444061,117.754097 353.029480,117.638931 354.741760,117.514557 
	C354.741760,91.619385 354.741760,66.098358 354.741760,40.357811 
	C352.786499,40.357811 351.092224,40.357811 348.997131,40.357811 
	C348.997131,54.302219 348.997131,67.901108 348.997131,82.500000 
M293.069519,81.678726 
	C288.228668,83.250542 290.671326,86.530045 291.775360,88.861526 
	C296.588257,99.025810 301.832855,108.986061 306.620880,119.161484 
	C307.831146,121.733574 308.774719,123.951118 311.872406,122.397247 
	C315.166565,120.744804 313.403809,118.303238 312.315552,116.057861 
	C308.427032,108.034897 304.736053,99.911217 300.647217,91.992500 
	C298.718964,88.258064 296.056824,84.902588 293.069519,81.678726 
M394.029175,97.249161 
	C391.888306,103.317902 389.801208,109.406364 387.587067,115.448250 
	C386.181671,119.283218 387.243225,121.319252 391.923065,121.589333 
	C396.490814,108.301270 401.093140,95.068741 405.481232,81.765541 
	C405.749115,80.953392 404.432770,78.766685 403.654510,78.659065 
	C402.455719,78.493294 400.285065,79.256683 399.918304,80.179161 
	C397.793671,85.523102 396.076874,91.029175 394.029175,97.249161 
M474.398621,157.989471 
	C465.235840,162.388092 456.073059,166.786713 446.924561,171.178467 
	C448.411407,175.808594 450.647888,176.911652 454.519318,174.624252 
	C457.494446,172.866440 460.699982,171.493973 463.824036,169.993851 
	C471.256439,166.424927 478.690094,162.858154 486.147888,159.342804 
	C488.413544,158.274826 490.024048,156.672806 488.228302,154.427200 
	C487.456940,153.462540 484.923401,153.124969 483.551727,153.583420 
	C480.601105,154.569580 477.884735,156.256607 474.398621,157.989471 
z"/>
<path fill="#26477A" opacity="1.000000" stroke="none" 
	d="
M520.625793,412.155334 
	C523.913940,419.627106 528.011230,426.860260 530.301025,434.626373 
	C533.757874,446.350189 532.147522,458.141785 527.181396,469.286835 
	C519.589539,486.324463 506.686493,497.512695 488.727997,502.476318 
	C484.172699,503.735352 479.213318,503.936066 474.439148,503.939209 
	C393.946320,503.992004 313.453369,503.928284 232.960464,503.910492 
	C211.633804,503.905792 190.264786,503.123474 168.989960,504.189514 
	C133.182236,505.983765 100.686043,475.734467 94.571793,444.601410 
	C90.297562,422.837524 92.936493,402.176788 106.724144,383.265167 
	C126.119606,359.332001 150.471451,348.388000 180.852692,351.801422 
	C172.963623,309.477753 193.983459,270.858276 227.466675,253.388382 
	C254.095108,239.494934 281.764404,238.479675 308.978271,251.186783 
	C336.182892,263.889587 352.138885,286.518005 359.901367,315.963318 
	C370.539886,306.202240 382.349060,301.338501 395.123871,299.713745 
	C403.050049,298.705627 411.573151,298.688660 419.270874,300.542053 
	C428.469055,302.756714 437.072052,307.443481 446.102722,311.344788 
	C447.332214,312.682129 448.338470,313.795166 449.459473,314.777191 
	C469.760040,332.560852 478.409210,354.640198 474.119141,381.508087 
	C473.692261,384.181427 473.299835,386.860321 472.858612,389.751617 
	C485.998566,391.241943 498.234924,393.422668 508.432098,401.362213 
	C512.706543,404.690338 516.573547,408.541809 520.625793,412.155334 
z"/>
<path fill="#4872A6" opacity="1.000000" stroke="none" 
	d="
M445.932861,311.059479 
	C437.072052,307.443481 428.469055,302.756714 419.270874,300.542053 
	C411.573151,298.688660 403.050049,298.705627 395.123871,299.713745 
	C382.349060,301.338501 370.539886,306.202240 359.901367,315.963318 
	C352.138885,286.518005 336.182892,263.889587 308.978271,251.186783 
	C281.764404,238.479675 254.095108,239.494934 227.466675,253.388382 
	C193.983459,270.858276 172.963623,309.477753 180.852692,351.801422 
	C150.471451,348.388000 126.119606,359.332001 106.953674,382.981323 
	C100.934418,381.441772 95.003052,380.273346 89.493553,378.056458 
	C70.417816,370.380920 55.996788,357.973969 47.505077,338.534882 
	C43.185223,328.645935 43.556526,318.778137 42.878494,308.643097 
	C41.825668,292.905701 46.672535,279.287720 56.015804,267.001953 
	C66.920250,252.663376 80.998451,243.067337 98.915802,240.123093 
	C106.683594,238.846634 114.686279,238.999512 122.834030,238.487320 
	C118.397301,211.239349 124.695328,186.648148 143.167557,165.899429 
	C155.052628,152.549652 170.115402,143.267242 187.604218,139.485184 
	C198.336823,137.164215 209.378494,136.689713 220.760574,138.483963 
	C234.682617,140.678589 246.894135,145.788666 257.696991,154.131195 
	C264.286407,159.219879 269.602020,165.957977 275.773071,172.497406 
	C279.397919,180.027512 282.895721,186.946579 286.018158,194.031097 
	C287.700775,197.848801 288.740326,201.949921 290.003418,205.724274 
	C290.878998,205.675919 291.089844,205.729294 291.201904,205.647430 
	C291.869019,205.160065 292.500275,204.623581 293.167236,204.135910 
	C306.331818,194.510269 320.914032,189.476562 337.339661,191.054123 
	C362.030640,193.425537 379.489166,206.428970 390.954071,228.063629 
	C391.784882,229.631363 392.932251,231.031326 393.929504,232.903717 
	C393.972717,234.293518 393.786652,235.369659 394.100464,236.271973 
	C397.669250,246.533936 397.734253,256.993011 396.051086,267.575470 
	C395.647583,270.112457 395.349976,272.666290 394.986603,275.337555 
	C396.128906,275.614105 396.748413,275.880096 397.375305,275.898743 
	C410.904236,276.301178 423.032166,280.374969 432.842896,289.970795 
	C438.890137,295.885559 444.221405,302.386414 445.932861,311.059479 
z"/>
<path fill="#6C99D2" opacity="1.000000" stroke="none" 
	d="
M446.102722,311.344788 
	C444.221405,302.386414 438.890137,295.885559 432.842896,289.970795 
	C423.032166,280.374969 410.904236,276.301178 397.375305,275.898743 
	C396.748413,275.880096 396.128906,275.614105 394.986603,275.337555 
	C395.349976,272.666290 395.647583,270.112457 396.051086,267.575470 
	C397.734253,256.993011 397.669250,246.533936 394.100464,236.271973 
	C393.786652,235.369659 393.972717,234.293518 394.206909,232.650864 
	C407.791870,223.072647 422.584412,219.904694 438.391998,220.668228 
	C454.887695,222.192978 469.303406,228.765717 480.688354,240.538406 
	C490.031128,250.199371 497.045593,261.773834 498.791107,275.518890 
	C499.796783,283.437927 499.657959,291.502350 500.063416,300.120056 
	C501.196045,300.120056 502.989136,300.243683 504.760468,300.099792 
	C515.515503,299.226227 525.029297,303.046448 534.833557,306.890686 
	C544.612976,310.725159 548.994141,319.131348 554.643372,326.518158 
	C560.772400,334.532227 562.523193,344.026550 563.039673,354.029663 
	C563.761108,368.003143 559.758789,380.489777 551.389343,391.193909 
	C543.688599,401.042786 533.596863,408.250397 520.926025,411.905029 
	C516.573547,408.541809 512.706543,404.690338 508.432098,401.362213 
	C498.234924,393.422668 485.998566,391.241943 472.858612,389.751617 
	C473.299835,386.860321 473.692261,384.181427 474.119141,381.508087 
	C478.409210,354.640198 469.760040,332.560852 449.459473,314.777191 
	C448.338470,313.795166 447.332214,312.682129 446.102722,311.344788 
z"/>
<path fill="#FEB545" opacity="1.000000" stroke="none" 
	d="
M438.515137,220.248657 
	C422.584412,219.904694 407.791870,223.072647 394.209808,232.256470 
	C392.932251,231.031326 391.784882,229.631363 390.954071,228.063629 
	C379.489166,206.428970 362.030640,193.425537 337.339661,191.054123 
	C320.914032,189.476562 306.331818,194.510269 293.167236,204.135910 
	C292.500275,204.623581 291.869019,205.160065 291.201904,205.647430 
	C291.089844,205.729294 290.878998,205.675919 290.003418,205.724274 
	C288.740326,201.949921 287.700775,197.848801 286.018158,194.031097 
	C282.895721,186.946579 279.397919,180.027512 276.078003,172.689728 
	C279.517242,167.711060 282.703186,162.887268 286.399628,158.492950 
	C294.737610,148.580750 304.803589,140.625549 316.689178,135.565887 
	C323.730804,132.568268 331.362366,130.604538 338.921387,129.256866 
	C350.220551,127.242409 361.680603,127.624046 372.859894,130.441238 
	C383.663666,133.163803 393.391052,138.096542 402.793640,144.282837 
	C421.388947,156.517303 431.058899,174.450745 436.499756,194.966125 
	C438.600098,202.885803 438.005188,211.520279 438.515137,220.248657 
z"/>
<path fill="#FFB250" opacity="1.000000" stroke="none" 
	d="
M455.778870,103.778870 
	C461.324585,98.245872 466.531250,92.867088 472.007660,87.778610 
	C472.868744,86.978569 474.952484,87.494392 476.470886,87.401794 
	C476.364838,89.052628 476.930908,91.366127 476.053284,92.256187 
	C459.481384,109.063385 442.761963,125.725792 425.978546,142.322556 
	C424.875977,143.412827 422.585052,144.686478 421.579498,144.236755 
	C418.209656,142.729630 418.785858,140.593430 421.257355,138.166000 
	C432.286224,127.333725 443.176941,116.360794 454.117523,105.438622 
	C454.588074,104.968834 455.058319,104.498695 455.778870,103.778870 
z"/>
<path fill="#FFB352" opacity="1.000000" stroke="none" 
	d="
M231.284775,103.714638 
	C228.564285,100.988091 225.864426,98.689102 223.741119,95.944107 
	C222.938828,94.906921 223.468689,92.839272 223.391296,91.241341 
	C224.938156,91.357849 227.094788,90.852165 227.942032,91.682526 
	C245.777191,109.162285 263.464569,126.792816 281.064667,144.278305 
	C277.775970,150.100113 277.711670,150.126450 273.589050,146.009323 
	C259.563232,132.002197 245.551773,117.980705 231.284775,103.714638 
z"/>
<path fill="#FFAF47" opacity="1.000000" stroke="none" 
	d="
M502.000000,211.997131 
	C510.495697,211.997513 518.495056,211.879074 526.483276,212.124161 
	C527.705872,212.161667 528.877075,213.877838 530.072021,214.817642 
	C528.966309,215.878372 527.865479,217.858643 526.754089,217.864639 
	C502.105164,217.997818 477.455109,217.914398 452.805328,217.852280 
	C452.515320,217.851547 452.225983,217.590439 451.617035,217.297043 
	C451.617035,215.864197 451.617035,214.285904 451.617035,211.997131 
	C468.316620,211.997131 484.908325,211.997131 502.000000,211.997131 
z"/>
<path fill="#FFAF47" opacity="1.000000" stroke="none" 
	d="
M348.997131,82.000000 
	C348.997131,67.901108 348.997131,54.302219 348.997131,40.357811 
	C351.092224,40.357811 352.786499,40.357811 354.741760,40.357811 
	C354.741760,66.098358 354.741760,91.619385 354.741760,117.514557 
	C353.029480,117.638931 351.444061,117.754097 348.997131,117.931831 
	C348.997131,105.930298 348.997131,94.215149 348.997131,82.000000 
z"/>
<path fill="#FFB657" opacity="1.000000" stroke="none" 
	d="
M293.398376,81.527054 
	C296.056824,84.902588 298.718964,88.258064 300.647217,91.992500 
	C304.736053,99.911217 308.427032,108.034897 312.315552,116.057861 
	C313.403809,118.303238 315.166565,120.744804 311.872406,122.397247 
	C308.774719,123.951118 307.831146,121.733574 306.620880,119.161484 
	C301.832855,108.986061 296.588257,99.025810 291.775360,88.861526 
	C290.671326,86.530045 288.228668,83.250542 293.398376,81.527054 
z"/>
<path fill="#FFB555" opacity="1.000000" stroke="none" 
	d="
M394.125641,96.864777 
	C396.076874,91.029175 397.793671,85.523102 399.918304,80.179161 
	C400.285065,79.256683 402.455719,78.493294 403.654510,78.659065 
	C404.432770,78.766685 405.749115,80.953392 405.481232,81.765541 
	C401.093140,95.068741 396.490814,108.301270 391.923065,121.589333 
	C387.243225,121.319252 386.181671,119.283218 387.587067,115.448250 
	C389.801208,109.406364 391.888306,103.317902 394.125641,96.864777 
z"/>
<path fill="#FFB657" opacity="1.000000" stroke="none" 
	d="
M474.735565,157.823120 
	C477.884735,156.256607 480.601105,154.569580 483.551727,153.583420 
	C484.923401,153.124969 487.456940,153.462540 488.228302,154.427200 
	C490.024048,156.672806 488.413544,158.274826 486.147888,159.342804 
	C478.690094,162.858154 471.256439,166.424927 463.824036,169.993851 
	C460.699982,171.493973 457.494446,172.866440 454.519318,174.624252 
	C450.647888,176.911652 448.411407,175.808594 446.924561,171.178467 
	C456.073059,166.786713 465.235840,162.388092 474.735565,157.823120 
z"/>
</svg>