<svg version="1.1" id="Layer_1" xmlns="http://www.w3.org/2000/svg" xmlns:xlink="http://www.w3.org/1999/xlink" x="0px" y="0px"
	 width="100%" viewBox="0 0 620 580" enable-background="new 0 0 620 580" xml:space="preserve">
<path fill="#FFFFFF" opacity="0" stroke="none" 
	d="
M363.000000,581.000000 
	C242.000000,581.000000 121.500000,581.000000 1.000000,581.000000 
	C1.000000,387.666656 1.000000,194.333328 1.000000,1.000000 
	C207.666672,1.000000 414.333344,1.000000 621.000000,1.000000 
	C621.000000,194.333328 621.000000,387.666656 621.000000,581.000000 
	C535.166687,581.000000 449.333344,581.000000 363.000000,581.000000 
M450.049622,239.365204 
	C449.099884,229.947769 449.469147,220.153412 446.909332,211.196091 
	C442.411560,195.457214 434.242737,181.562775 421.206970,170.832199 
	C398.093353,151.805923 371.947723,146.040176 343.389069,153.802567 
	C319.740784,160.230316 302.221466,175.071030 291.349854,197.287308 
	C280.017395,220.445297 279.519745,243.945938 289.681824,267.583191 
	C292.226440,273.501984 295.530273,279.094330 297.602692,284.963287 
	C286.444702,286.462830 276.421875,290.693146 267.707733,297.506470 
	C266.080322,293.002930 264.485748,288.590210 263.612091,283.972717 
	C267.682831,281.911255 271.753571,279.849792 275.718750,277.841797 
	C274.872009,273.469971 273.140137,272.140503 269.433197,274.329773 
	C266.460907,276.085144 263.291718,277.507080 260.021851,278.349854 
	C251.582397,259.963501 236.646606,248.554443 219.885788,239.975891 
	C233.532150,239.963470 247.178665,239.977753 260.824768,239.910828 
	C262.955597,239.900375 265.800598,240.867111 265.936981,237.039963 
	C266.079498,233.039688 263.143463,234.112122 261.050873,234.107788 
	C238.916946,234.061844 216.782837,234.061386 194.648956,234.115585 
	C193.085983,234.119415 191.524307,234.653702 189.047409,234.989700 
	C164.179260,235.127151 143.866684,245.082169 127.768745,263.773102 
	C111.365189,282.818817 106.426041,305.171448 110.052284,330.075012 
	C103.234856,330.075012 96.942192,329.198822 90.986053,330.242676 
	C74.489738,333.133881 60.646099,340.964325 49.544445,353.836639 
	C34.974480,370.730438 32.493858,390.530304 35.913658,411.275635 
	C38.487183,426.887207 47.197788,439.434296 59.735348,449.312561 
	C70.690681,457.944122 82.740753,463.908539 96.842438,463.929932 
	C187.295105,464.067261 277.748444,464.119080 368.200592,463.861176 
	C380.602295,463.825775 391.718964,458.870056 401.095215,450.436554 
	C408.516113,443.761749 412.897186,435.275818 417.009796,426.007172 
	C451.807831,426.005005 486.606506,426.099976 521.403198,425.884949 
	C526.066833,425.856140 530.878052,424.742401 535.344482,423.284302 
	C543.147766,420.736969 549.396179,415.792175 555.127808,409.824921 
	C568.532776,395.868713 573.593262,379.433136 569.692139,360.738251 
	C566.393860,344.932617 557.973328,332.134613 543.377197,324.215027 
	C534.089050,319.175507 524.186584,316.210785 513.486206,317.233704 
	C509.547668,317.610199 508.036896,315.926849 508.898773,312.479431 
	C510.906799,304.447601 508.809265,296.840820 506.953369,289.211609 
	C502.080078,269.178680 490.146454,254.691864 471.439087,246.317917 
	C464.668182,243.287064 457.038361,242.175064 450.049622,239.365204 
M469.527679,124.027710 
	C457.398956,136.140900 445.279480,148.263351 433.130707,160.356415 
	C431.474213,162.005325 430.060303,163.423096 432.444672,165.683426 
	C434.560028,167.688751 435.850891,166.586304 437.411652,165.014832 
	C454.378021,147.932205 471.378143,130.883072 488.390961,113.802795 
	C486.211914,109.735252 483.895172,109.105141 480.578979,112.903946 
	C477.303497,116.656166 473.564453,120.003716 469.527679,124.027710 
M526.483154,231.996964 
	C505.243591,231.996964 484.004028,231.996964 462.285248,231.996964 
	C462.438904,234.389328 462.547333,236.077759 462.653351,237.728394 
	C488.188232,237.728394 513.094055,237.728394 538.282959,237.728394 
	C538.282959,235.753693 538.282959,234.055908 538.282959,231.996964 
	C534.421997,231.996964 530.947632,231.996964 526.483154,231.996964 
M286.038208,163.463348 
	C288.320190,166.299530 290.602173,169.135727 292.884155,171.971909 
	C293.240417,171.452576 293.596710,170.933243 293.952972,170.413895 
	C295.239197,169.276764 296.525452,168.139633 297.507233,167.271652 
	C286.975403,156.335403 276.637512,145.514389 266.197937,134.792404 
	C259.921906,128.346603 253.597168,121.937210 247.015305,115.811234 
	C245.926437,114.797775 242.948395,114.549011 241.638000,115.311829 
	C239.191620,116.735947 240.720261,118.285034 242.356400,119.901443 
	C256.816986,134.187637 271.160065,148.592743 286.038208,163.463348 
M369.000244,89.500000 
	C369.000244,81.421967 369.000244,73.343941 369.000244,64.906670 
	C366.544739,65.097504 364.966919,65.220131 363.320801,65.348061 
	C363.320801,90.663033 363.320801,115.554283 363.320801,140.811279 
	C365.379272,140.706863 367.082428,140.620483 369.000244,140.523224 
	C369.000244,123.460228 369.000244,106.980118 369.000244,89.500000 
M410.306824,109.794868 
	C407.080658,119.326683 403.895782,128.872772 400.606750,138.382843 
	C399.395142,141.886185 400.040680,144.140396 404.666412,144.698288 
	C409.393921,131.186218 414.162170,117.557808 418.907806,103.993973 
	C414.828003,101.216316 412.294342,101.809746 411.456207,106.736252 
	C411.318909,107.543396 410.939575,108.309372 410.306824,109.794868 
M319.347321,136.241714 
	C320.525665,138.614624 321.446381,141.176056 322.988342,143.282837 
	C323.788666,144.376358 325.687622,144.665833 327.090271,145.318542 
	C327.486603,143.812866 328.074066,142.323792 328.206787,140.795227 
	C328.285004,139.893860 327.743439,138.879990 327.308746,138.001785 
	C322.467590,128.220444 317.578003,118.463089 312.739563,108.680420 
	C311.770813,106.721733 311.207886,104.496323 308.128204,106.043961 
	C305.051483,107.590111 306.520996,109.619690 307.397522,111.461067 
	C311.232025,119.516220 315.170807,127.521729 319.347321,136.241714 
M498.837708,178.362122 
	C498.424744,174.580399 496.929352,173.618195 493.243713,175.477722 
	C483.129486,180.580719 472.857147,185.370483 462.645050,190.279343 
	C458.002716,192.510864 457.832581,193.690643 461.718567,197.566727 
	C474.022980,191.417953 486.364105,185.250824 498.837708,178.362122 
M273.883270,200.623566 
	C276.043976,196.801422 273.064148,196.046997 270.538208,195.159363 
	C259.987396,191.451752 249.403030,187.839462 238.861023,184.107300 
	C234.263062,182.479492 233.686584,182.805893 233.252670,188.376907 
	C245.384369,192.666382 257.610992,197.023193 269.876221,201.268433 
	C270.974548,201.648590 272.323059,201.305954 273.883270,200.623566 
z"/>
<path fill="#4676B1" opacity="1.000000" stroke="none" 
	d="
M262.891174,284.177490 
	C264.485748,288.590210 266.080322,293.002930 267.707733,297.506470 
	C276.421875,290.693146 286.444702,286.462830 298.465729,284.943604 
	C306.876221,285.433685 314.423676,285.943420 322.255554,286.637817 
	C334.180145,290.516815 344.436829,296.483826 352.331238,305.908234 
	C363.528473,319.275574 369.370911,334.490112 367.149078,352.198669 
	C366.682312,355.918976 365.976166,359.609222 365.352142,363.488464 
	C366.060364,363.678131 366.669250,363.907379 367.298218,363.999603 
	C376.335693,365.324982 385.411591,366.819916 393.222107,371.855194 
	C408.437653,381.664368 416.244873,395.686371 416.048615,413.960205 
	C416.005402,417.982697 416.069427,422.006348 416.084045,426.029449 
	C412.897186,435.275818 408.516113,443.761749 401.095215,450.436554 
	C391.718964,458.870056 380.602295,463.825775 368.200592,463.861176 
	C277.748444,464.119080 187.295105,464.067261 96.842438,463.929932 
	C82.740753,463.908539 70.690681,457.944122 59.735348,449.312561 
	C47.197788,439.434296 38.487183,426.887207 35.913658,411.275635 
	C32.493858,390.530304 34.974480,370.730438 49.544445,353.836639 
	C60.646099,340.964325 74.489738,333.133881 90.986053,330.242676 
	C96.942192,329.198822 103.234856,330.075012 110.052284,330.075012 
	C106.426041,305.171448 111.365189,282.818817 127.768745,263.773102 
	C143.866684,245.082169 164.179260,235.127151 189.818176,235.225708 
	C200.042847,237.011108 209.496765,238.560486 218.950684,240.109863 
	C236.646606,248.554443 251.582397,259.963501 260.082062,279.054443 
	C261.058594,281.231842 261.974884,282.704651 262.891174,284.177490 
z"/>
<path fill="#6B99D2" opacity="1.000000" stroke="none" 
	d="
M416.546936,426.018311 
	C416.069427,422.006348 416.005402,417.982697 416.048615,413.960205 
	C416.244873,395.686371 408.437653,381.664368 393.222107,371.855194 
	C385.411591,366.819916 376.335693,365.324982 367.298218,363.999603 
	C366.669250,363.907379 366.060364,363.678131 365.352142,363.488464 
	C365.976166,359.609222 366.682312,355.918976 367.149078,352.198669 
	C369.370911,334.490112 363.528473,319.275574 352.331238,305.908234 
	C344.436829,296.483826 334.180145,290.516815 322.582825,286.445496 
	C342.409973,275.778961 361.321960,278.182587 378.774628,290.171875 
	C382.387604,282.870026 384.999969,275.521820 389.277283,269.322357 
	C403.807068,248.263077 424.518219,239.293701 449.800446,240.187485 
	C457.038361,242.175064 464.668182,243.287064 471.439087,246.317917 
	C490.146454,254.691864 502.080078,269.178680 506.953369,289.211609 
	C508.809265,296.840820 510.906799,304.447601 508.898773,312.479431 
	C508.036896,315.926849 509.547668,317.610199 513.486206,317.233704 
	C524.186584,316.210785 534.089050,319.175507 543.377197,324.215027 
	C557.973328,332.134613 566.393860,344.932617 569.692139,360.738251 
	C573.593262,379.433136 568.532776,395.868713 555.127808,409.824921 
	C549.396179,415.792175 543.147766,420.736969 535.344482,423.284302 
	C530.878052,424.742401 526.066833,425.856140 521.403198,425.884949 
	C486.606506,426.099976 451.807831,426.005005 416.546936,426.018311 
z"/>
<path fill="#FFB545" opacity="1.000000" stroke="none" 
	d="
M449.925049,239.776337 
	C424.518219,239.293701 403.807068,248.263077 389.277283,269.322357 
	C384.999969,275.521820 382.387604,282.870026 378.774628,290.171875 
	C361.321960,278.182587 342.409973,275.778961 322.298401,286.260864 
	C314.423676,285.943420 306.876221,285.433685 298.906982,284.880310 
	C295.530273,279.094330 292.226440,273.501984 289.681824,267.583191 
	C279.519745,243.945938 280.017395,220.445297 291.349854,197.287308 
	C302.221466,175.071030 319.740784,160.230316 343.389069,153.802567 
	C371.947723,146.040176 398.093353,151.805923 421.206970,170.832199 
	C434.242737,181.562775 442.411560,195.457214 446.909332,211.196091 
	C449.469147,220.153412 449.099884,229.947769 449.925049,239.776337 
z"/>
<path fill="#FFB250" opacity="1.000000" stroke="none" 
	d="
M469.778259,123.778259 
	C473.564453,120.003716 477.303497,116.656166 480.578979,112.903946 
	C483.895172,109.105141 486.211914,109.735252 488.390961,113.802795 
	C471.378143,130.883072 454.378021,147.932205 437.411652,165.014832 
	C435.850891,166.586304 434.560028,167.688751 432.444672,165.683426 
	C430.060303,163.423096 431.474213,162.005325 433.130707,160.356415 
	C445.279480,148.263351 457.398956,136.140900 469.778259,123.778259 
z"/>
<path fill="#FFAF47" opacity="1.000000" stroke="none" 
	d="
M526.978210,231.996964 
	C530.947632,231.996964 534.421997,231.996964 538.282959,231.996964 
	C538.282959,234.055908 538.282959,235.753693 538.282959,237.728394 
	C513.094055,237.728394 488.188232,237.728394 462.653351,237.728394 
	C462.547333,236.077759 462.438904,234.389328 462.285248,231.996964 
	C484.004028,231.996964 505.243591,231.996964 526.978210,231.996964 
z"/>
<path fill="#FFB250" opacity="1.000000" stroke="none" 
	d="
M285.788025,163.213013 
	C271.160065,148.592743 256.816986,134.187637 242.356400,119.901443 
	C240.720261,118.285034 239.191620,116.735947 241.638000,115.311829 
	C242.948395,114.549011 245.926437,114.797775 247.015305,115.811234 
	C253.597168,121.937210 259.921906,128.346603 266.197937,134.792404 
	C276.637512,145.514389 286.975403,156.335403 297.507233,167.271652 
	C296.525452,168.139633 295.239197,169.276764 293.952972,170.413895 
	C293.596710,170.933243 293.240417,171.452576 292.884155,171.971909 
	C290.602173,169.135727 288.320190,166.299530 285.788025,163.213013 
z"/>
<path fill="#FFAF48" opacity="1.000000" stroke="none" 
	d="
M369.000244,90.000000 
	C369.000244,106.980118 369.000244,123.460228 369.000244,140.523224 
	C367.082428,140.620483 365.379272,140.706863 363.320801,140.811279 
	C363.320801,115.554283 363.320801,90.663033 363.320801,65.348061 
	C364.966919,65.220131 366.544739,65.097504 369.000244,64.906670 
	C369.000244,73.343941 369.000244,81.421967 369.000244,90.000000 
z"/>
<path fill="#FDB354" opacity="1.000000" stroke="none" 
	d="
M219.418243,240.042877 
	C209.496765,238.560486 200.042847,237.011108 190.275482,235.201538 
	C191.524307,234.653702 193.085983,234.119415 194.648956,234.115585 
	C216.782837,234.061386 238.916946,234.061844 261.050873,234.107788 
	C263.143463,234.112122 266.079498,233.039688 265.936981,237.039963 
	C265.800598,240.867111 262.955597,239.900375 260.824768,239.910828 
	C247.178665,239.977753 233.532150,239.963470 219.418243,240.042877 
z"/>
<path fill="#FFB657" opacity="1.000000" stroke="none" 
	d="
M410.489502,109.444626 
	C410.939575,108.309372 411.318909,107.543396 411.456207,106.736252 
	C412.294342,101.809746 414.828003,101.216316 418.907806,103.993973 
	C414.162170,117.557808 409.393921,131.186218 404.666412,144.698288 
	C400.040680,144.140396 399.395142,141.886185 400.606750,138.382843 
	C403.895782,128.872772 407.080658,119.326683 410.489502,109.444626 
z"/>
<path fill="#FFB658" opacity="1.000000" stroke="none" 
	d="
M319.209534,135.893494 
	C315.170807,127.521729 311.232025,119.516220 307.397522,111.461067 
	C306.520996,109.619690 305.051483,107.590111 308.128204,106.043961 
	C311.207886,104.496323 311.770813,106.721733 312.739563,108.680420 
	C317.578003,118.463089 322.467590,128.220444 327.308746,138.001785 
	C327.743439,138.879990 328.285004,139.893860 328.206787,140.795227 
	C328.074066,142.323792 327.486603,143.812866 327.090271,145.318542 
	C325.687622,144.665833 323.788666,144.376358 322.988342,143.282837 
	C321.446381,141.176056 320.525665,138.614624 319.209534,135.893494 
z"/>
<path fill="#FFB657" opacity="1.000000" stroke="none" 
	d="
M498.771484,178.722900 
	C486.364105,185.250824 474.022980,191.417953 461.718567,197.566727 
	C457.832581,193.690643 458.002716,192.510864 462.645050,190.279343 
	C472.857147,185.370483 483.129486,180.580719 493.243713,175.477722 
	C496.929352,173.618195 498.424744,174.580399 498.771484,178.722900 
z"/>
<path fill="#FFB556" opacity="1.000000" stroke="none" 
	d="
M273.719299,200.961288 
	C272.323059,201.305954 270.974548,201.648590 269.876221,201.268433 
	C257.610992,197.023193 245.384369,192.666382 233.252670,188.376907 
	C233.686584,182.805893 234.263062,182.479492 238.861023,184.107300 
	C249.403030,187.839462 259.987396,191.451752 270.538208,195.159363 
	C273.064148,196.046997 276.043976,196.801422 273.719299,200.961288 
z"/>
<path fill="#FDB455" opacity="1.000000" stroke="none" 
	d="
M263.251648,284.075104 
	C261.974884,282.704651 261.058594,281.231842 260.176086,279.417969 
	C263.291718,277.507080 266.460907,276.085144 269.433197,274.329773 
	C273.140137,272.140503 274.872009,273.469971 275.718750,277.841797 
	C271.753571,279.849792 267.682831,281.911255 263.251648,284.075104 
z"/>
</svg>