<svg version="1.1" id="Layer_1" xmlns="http://www.w3.org/2000/svg" xmlns:xlink="http://www.w3.org/1999/xlink" x="0px" y="0px"
	 width="100%" viewBox="0 0 589 560" enable-background="new 0 0 589 560" xml:space="preserve">
<path fill="#FFFFFF" opacity="0" stroke="none" 
	d="
M359.000000,561.000000 
	C239.333328,561.000000 120.166664,561.000000 1.000000,561.000000 
	C1.000000,374.333344 1.000000,187.666672 1.000000,1.000000 
	C197.333328,1.000000 393.666656,1.000000 590.000000,1.000000 
	C590.000000,187.666672 590.000000,374.333344 590.000000,561.000000 
	C513.166687,561.000000 436.333344,561.000000 359.000000,561.000000 
M252.518417,383.027161 
	C283.235657,392.222687 313.265869,389.914551 341.873199,375.842194 
	C392.568451,350.904419 419.033020,296.165955 407.972931,240.882004 
	C396.535950,183.714249 345.137909,142.040237 286.867889,143.238953 
	C255.041229,143.893661 227.097610,154.783646 203.681427,176.807800 
	C166.094910,212.159927 154.801636,265.651978 175.073120,313.410309 
	C189.834991,348.188293 215.809586,371.161346 252.518417,383.027161 
M444.127045,430.372894 
	C450.481812,436.727478 456.831635,443.086975 463.194550,449.433380 
	C464.945129,451.179382 466.471771,453.437775 469.336945,450.707214 
	C472.301239,447.882202 470.893341,445.928925 468.626251,443.667847 
	C444.823334,419.928467 421.060547,396.148804 397.304016,372.362976 
	C395.281616,370.338104 393.578613,368.696655 390.697235,371.510254 
	C387.653900,374.481995 389.794159,376.055481 391.723755,377.982819 
	C409.032898,395.271484 426.328003,412.574188 444.127045,430.372894 
M140.123352,266.315674 
	C138.221497,265.967468 136.321564,265.330444 134.417465,265.317627 
	C121.268440,265.229187 108.118538,265.270905 94.968925,265.270874 
	C74.828377,265.270874 54.687149,265.199707 34.548454,265.392670 
	C32.740681,265.409973 29.822731,266.762604 29.365566,268.140503 
	C28.092060,271.978851 30.328707,273.120972 34.214012,273.105408 
	C67.836533,272.970459 101.460167,272.954010 135.082489,273.111969 
	C139.795197,273.134125 141.632843,271.688354 140.123352,266.315674 
M294.434052,417.398865 
	C289.303741,414.932648 287.087280,415.812866 287.080383,420.568634 
	C287.030701,454.866516 287.073059,489.164490 287.018036,523.462341 
	C287.013519,526.286133 287.705383,527.847534 290.896820,527.808899 
	C293.902832,527.772583 294.974121,526.547058 294.965302,523.575562 
	C294.860962,488.447937 294.835510,453.320099 294.434052,417.398865 
M291.803070,64.500008 
	C291.802673,50.190506 291.767395,35.880848 291.831940,21.571640 
	C291.844604,18.770361 291.677551,16.855005 287.937561,16.864775 
	C284.353088,16.874136 283.910583,18.469164 283.932739,21.433365 
	C284.037292,35.409309 283.979004,49.386471 283.979004,63.363201 
	C283.979034,83.496346 284.053009,103.630020 283.909576,123.762138 
	C283.884491,127.287537 285.121246,128.641754 288.505432,128.411270 
	C292.300690,128.152802 291.792999,125.359962 291.794861,122.904427 
	C291.809387,103.769638 291.802856,84.634819 291.803070,64.500008 
M429.464050,263.031860 
	C428.397797,269.800629 428.493103,269.931763 434.949768,269.932831 
	C462.761810,269.937439 490.573883,269.935089 518.385925,269.934753 
	C524.381348,269.934692 530.379211,269.831573 536.371155,269.974854 
	C539.254517,270.043823 539.958862,268.849396 540.111511,266.128357 
	C540.342773,262.006195 537.945801,262.074188 535.051514,262.077484 
	C501.410614,262.115906 467.769623,262.097565 434.128693,262.118591 
	C432.813660,262.119415 431.498749,262.364319 429.464050,263.031860 
M424.448090,130.948151 
	C437.512756,117.883888 450.531860,104.773445 463.683807,91.797630 
	C466.076721,89.436737 466.531006,87.823708 463.819916,85.347954 
	C460.714081,82.511734 459.401184,85.250053 457.783783,86.863457 
	C434.097321,110.491592 410.445465,134.154388 386.789520,157.813095 
	C382.244141,162.359024 382.438507,163.344940 388.904602,166.754730 
	C400.512817,155.059296 412.230408,143.253693 424.448090,130.948151 
M110.907806,90.573463 
	C108.001350,87.462944 106.222725,90.436516 105.127525,92.207039 
	C104.546303,93.146645 105.520561,95.815353 106.599655,96.902428 
	C130.763153,121.244400 155.037277,145.476547 179.301605,169.718338 
	C180.101944,170.517929 181.018585,171.201096 182.209015,172.218979 
	C184.067123,170.635849 185.750885,169.201263 187.783005,167.469864 
	C161.748505,141.427795 136.578003,116.249977 110.907806,90.573463 
M163.852371,385.352173 
	C144.769485,404.428070 125.690460,423.507812 106.598122,442.574219 
	C104.554489,444.615051 102.213020,446.365936 105.319710,449.521118 
	C108.494240,452.745209 109.985130,449.777649 111.721428,448.045135 
	C135.537567,424.280579 159.319260,400.481506 183.098770,376.680267 
	C184.130783,375.647339 185.060150,374.511841 185.982971,373.484619 
	C182.051178,367.676666 181.601318,367.613800 177.067947,372.128632 
	C172.819427,376.359802 168.590164,380.610291 163.852371,385.352173 
M341.378204,116.805389 
	C340.214874,120.261223 339.215515,123.784096 337.838287,127.152473 
	C336.657806,130.039627 337.512909,131.214752 340.342865,132.268387 
	C343.579254,133.473343 344.343597,132.036530 345.197327,129.410156 
	C347.248383,123.100533 349.609711,116.892548 351.776672,110.619659 
	C355.877411,98.748894 359.929626,86.861351 363.959595,75.104462 
	C357.760040,70.994736 357.245758,71.140137 355.042175,77.499870 
	C350.586884,90.358185 346.160675,103.226570 341.378204,116.805389 
M210.748260,456.148132 
	C210.154083,457.874359 209.628677,459.628235 208.949402,461.320312 
	C207.957520,463.790955 208.387650,465.142822 211.195541,466.160339 
	C214.165573,467.236633 215.393402,466.484894 216.347656,463.700562 
	C222.315506,446.287506 228.437546,428.926666 234.262451,411.466492 
	C234.631226,410.361084 233.308578,407.982635 232.114838,407.199951 
	C228.772156,405.008270 227.591217,407.488861 226.627441,410.291138 
	C221.451111,425.342163 216.204590,440.369019 210.748260,456.148132 
M100.415154,202.019119 
	C115.804100,207.335831 131.202591,212.625198 146.572083,217.997604 
	C148.984421,218.840820 150.720215,218.830612 151.603149,215.997299 
	C152.398605,213.444656 152.361404,211.774231 149.190018,210.707214 
	C131.865067,204.878220 114.597221,198.876450 97.365700,192.776016 
	C94.718948,191.839005 93.505714,192.182678 92.529671,194.894073 
	C91.513206,197.717773 91.958633,199.327301 94.983414,200.095673 
	C96.584915,200.502472 98.111977,201.202332 100.415154,202.019119 
M457.236420,339.132080 
	C465.078979,341.858307 472.963531,344.471832 480.741760,347.370636 
	C483.541992,348.414215 484.611938,347.516693 485.498016,344.985016 
	C486.392456,342.429626 485.966797,340.952118 483.265137,340.024872 
	C465.988464,334.095367 448.732269,328.105835 431.489319,322.078857 
	C428.855316,321.158203 427.098694,321.374084 426.220398,324.438568 
	C425.391144,327.332092 426.390015,328.617676 429.161896,329.531219 
	C438.307648,332.545471 447.376587,335.792664 457.236420,339.132080 
M231.194916,133.739868 
	C231.570709,132.368637 232.675110,130.652847 232.213867,129.677444 
	C224.252274,112.841118 216.072205,96.108307 208.012253,79.318130 
	C206.742081,76.672157 205.175797,76.665344 202.798569,77.807335 
	C200.288147,79.013321 199.816681,80.351723 201.064819,82.890625 
	C209.132660,99.301506 217.113144,115.755669 225.038162,132.236084 
	C226.334106,134.931076 227.923676,135.713577 231.194916,133.739868 
M450.933746,199.384354 
	C460.207794,194.904587 469.477081,190.415009 478.759247,185.952148 
	C481.003693,184.873032 482.848877,183.956863 481.267792,180.749084 
	C479.754059,177.677948 478.105835,177.615616 475.345612,178.972641 
	C459.249237,186.886246 443.103638,194.700211 426.944092,202.484268 
	C424.476349,203.672958 423.255066,204.901215 424.640747,207.860764 
	C425.991058,210.744736 427.504059,210.851959 430.105530,209.534241 
	C436.772705,206.157104 443.558044,203.013229 450.933746,199.384354 
M377.690613,459.181824 
	C377.722870,458.856659 377.889099,458.467194 377.768341,458.215485 
	C369.378693,440.737640 361.006897,423.250732 352.438477,405.860718 
	C351.996216,404.963074 349.730316,404.308136 348.528870,404.561584 
	C344.705322,405.367981 344.806488,407.712097 346.342957,410.834381 
	C354.027435,426.450500 361.539642,442.151306 369.160217,457.799042 
	C371.746643,463.109894 371.847076,463.087677 377.690613,459.181824 
M147.124176,324.575562 
	C131.689468,332.006226 116.256516,339.440582 100.819077,346.865540 
	C95.182266,349.576721 95.031792,350.974731 100.075859,355.778351 
	C117.374474,347.442261 134.734482,339.051483 152.124786,330.723938 
	C154.667618,329.506287 154.887527,328.009064 153.772980,325.552429 
	C152.256622,322.210114 150.202972,322.768860 147.124176,324.575562 
z"/>
<path fill="#FFB544" opacity="1.000000" stroke="none" 
	d="
M252.125854,382.948547 
	C215.809586,371.161346 189.834991,348.188293 175.073120,313.410309 
	C154.801636,265.651978 166.094910,212.159927 203.681427,176.807800 
	C227.097610,154.783646 255.041229,143.893661 286.867889,143.238953 
	C345.137909,142.040237 396.535950,183.714249 407.972931,240.882004 
	C419.033020,296.165955 392.568451,350.904419 341.873199,375.842194 
	C313.265869,389.914551 283.235657,392.222687 252.125854,382.948547 
z"/>
<path fill="#FFB14D" opacity="1.000000" stroke="none" 
	d="
M443.877136,430.122833 
	C426.328003,412.574188 409.032898,395.271484 391.723755,377.982819 
	C389.794159,376.055481 387.653900,374.481995 390.697235,371.510254 
	C393.578613,368.696655 395.281616,370.338104 397.304016,372.362976 
	C421.060547,396.148804 444.823334,419.928467 468.626251,443.667847 
	C470.893341,445.928925 472.301239,447.882202 469.336945,450.707214 
	C466.471771,453.437775 464.945129,451.179382 463.194550,449.433380 
	C456.831635,443.086975 450.481812,436.727478 443.877136,430.122833 
z"/>
<path fill="#FFB352" opacity="1.000000" stroke="none" 
	d="
M140.320953,266.676056 
	C141.632843,271.688354 139.795197,273.134125 135.082489,273.111969 
	C101.460167,272.954010 67.836533,272.970459 34.214012,273.105408 
	C30.328707,273.120972 28.092060,271.978851 29.365566,268.140503 
	C29.822731,266.762604 32.740681,265.409973 34.548454,265.392670 
	C54.687149,265.199707 74.828377,265.270874 94.968925,265.270874 
	C108.118538,265.270905 121.268440,265.229187 134.417465,265.317627 
	C136.321564,265.330444 138.221497,265.967468 140.320953,266.676056 
z"/>
<path fill="#FFB24F" opacity="1.000000" stroke="none" 
	d="
M294.611694,417.795593 
	C294.835510,453.320099 294.860962,488.447937 294.965302,523.575562 
	C294.974121,526.547058 293.902832,527.772583 290.896820,527.808899 
	C287.705383,527.847534 287.013519,526.286133 287.018036,523.462341 
	C287.073059,489.164490 287.030701,454.866516 287.080383,420.568634 
	C287.087280,415.812866 289.303741,414.932648 294.611694,417.795593 
z"/>
<path fill="#FFB24F" opacity="1.000000" stroke="none" 
	d="
M291.802979,65.000015 
	C291.802856,84.634819 291.809387,103.769638 291.794861,122.904427 
	C291.792999,125.359962 292.300690,128.152802 288.505432,128.411270 
	C285.121246,128.641754 283.884491,127.287537 283.909576,123.762138 
	C284.053009,103.630020 283.979034,83.496346 283.979004,63.363201 
	C283.979004,49.386471 284.037292,35.409309 283.932739,21.433365 
	C283.910583,18.469164 284.353088,16.874136 287.937561,16.864775 
	C291.677551,16.855005 291.844604,18.770361 291.831940,21.571640 
	C291.767395,35.880848 291.802673,50.190506 291.802979,65.000015 
z"/>
<path fill="#FFB250" opacity="1.000000" stroke="none" 
	d="
M429.823914,262.763672 
	C431.498749,262.364319 432.813660,262.119415 434.128693,262.118591 
	C467.769623,262.097565 501.410614,262.115906 535.051514,262.077484 
	C537.945801,262.074188 540.342773,262.006195 540.111511,266.128357 
	C539.958862,268.849396 539.254517,270.043823 536.371155,269.974854 
	C530.379211,269.831573 524.381348,269.934692 518.385925,269.934753 
	C490.573883,269.935089 462.761810,269.937439 434.949768,269.932831 
	C428.493103,269.931763 428.397797,269.800629 429.823914,262.763672 
z"/>
<path fill="#FFB14D" opacity="1.000000" stroke="none" 
	d="
M424.198059,131.198120 
	C412.230408,143.253693 400.512817,155.059296 388.904602,166.754730 
	C382.438507,163.344940 382.244141,162.359024 386.789520,157.813095 
	C410.445465,134.154388 434.097321,110.491592 457.783783,86.863457 
	C459.401184,85.250053 460.714081,82.511734 463.819916,85.347954 
	C466.531006,87.823708 466.076721,89.436737 463.683807,91.797630 
	C450.531860,104.773445 437.512756,117.883888 424.198059,131.198120 
z"/>
<path fill="#FFB14E" opacity="1.000000" stroke="none" 
	d="
M111.157654,90.822815 
	C136.578003,116.249977 161.748505,141.427795 187.783005,167.469864 
	C185.750885,169.201263 184.067123,170.635849 182.209015,172.218979 
	C181.018585,171.201096 180.101944,170.517929 179.301605,169.718338 
	C155.037277,145.476547 130.763153,121.244400 106.599655,96.902428 
	C105.520561,95.815353 104.546303,93.146645 105.127525,92.207039 
	C106.222725,90.436516 108.001350,87.462944 111.157654,90.822815 
z"/>
<path fill="#FFAE46" opacity="1.000000" stroke="none" 
	d="
M164.102386,385.102234 
	C168.590164,380.610291 172.819427,376.359802 177.067947,372.128632 
	C181.601318,367.613800 182.051178,367.676666 185.982971,373.484619 
	C185.060150,374.511841 184.130783,375.647339 183.098770,376.680267 
	C159.319260,400.481506 135.537567,424.280579 111.721428,448.045135 
	C109.985130,449.777649 108.494240,452.745209 105.319710,449.521118 
	C102.213020,446.365936 104.554489,444.615051 106.598122,442.574219 
	C125.690460,423.507812 144.769485,404.428070 164.102386,385.102234 
z"/>
<path fill="#FFB14D" opacity="1.000000" stroke="none" 
	d="
M341.550354,116.448097 
	C346.160675,103.226570 350.586884,90.358185 355.042175,77.499870 
	C357.245758,71.140137 357.760040,70.994736 363.959595,75.104462 
	C359.929626,86.861351 355.877411,98.748894 351.776672,110.619659 
	C349.609711,116.892548 347.248383,123.100533 345.197327,129.410156 
	C344.343597,132.036530 343.579254,133.473343 340.342865,132.268387 
	C337.512909,131.214752 336.657806,130.039627 337.838287,127.152473 
	C339.215515,123.784096 340.214874,120.261223 341.550354,116.448097 
z"/>
<path fill="#FFB14D" opacity="1.000000" stroke="none" 
	d="
M210.865280,455.776184 
	C216.204590,440.369019 221.451111,425.342163 226.627441,410.291138 
	C227.591217,407.488861 228.772156,405.008270 232.114838,407.199951 
	C233.308578,407.982635 234.631226,410.361084 234.262451,411.466492 
	C228.437546,428.926666 222.315506,446.287506 216.347656,463.700562 
	C215.393402,466.484894 214.165573,467.236633 211.195541,466.160339 
	C208.387650,465.142822 207.957520,463.790955 208.949402,461.320312 
	C209.628677,459.628235 210.154083,457.874359 210.865280,455.776184 
z"/>
<path fill="#FFB14C" opacity="1.000000" stroke="none" 
	d="
M100.043900,201.894501 
	C98.111977,201.202332 96.584915,200.502472 94.983414,200.095673 
	C91.958633,199.327301 91.513206,197.717773 92.529671,194.894073 
	C93.505714,192.182678 94.718948,191.839005 97.365700,192.776016 
	C114.597221,198.876450 131.865067,204.878220 149.190018,210.707214 
	C152.361404,211.774231 152.398605,213.444656 151.603149,215.997299 
	C150.720215,218.830612 148.984421,218.840820 146.572083,217.997604 
	C131.202591,212.625198 115.804100,207.335831 100.043900,201.894501 
z"/>
<path fill="#FFB14C" opacity="1.000000" stroke="none" 
	d="
M456.855713,339.041260 
	C447.376587,335.792664 438.307648,332.545471 429.161896,329.531219 
	C426.390015,328.617676 425.391144,327.332092 426.220398,324.438568 
	C427.098694,321.374084 428.855316,321.158203 431.489319,322.078857 
	C448.732269,328.105835 465.988464,334.095367 483.265137,340.024872 
	C485.966797,340.952118 486.392456,342.429626 485.498016,344.985016 
	C484.611938,347.516693 483.541992,348.414215 480.741760,347.370636 
	C472.963531,344.471832 465.078979,341.858307 456.855713,339.041260 
z"/>
<path fill="#FFB14D" opacity="1.000000" stroke="none" 
	d="
M230.846603,133.892746 
	C227.923676,135.713577 226.334106,134.931076 225.038162,132.236084 
	C217.113144,115.755669 209.132660,99.301506 201.064819,82.890625 
	C199.816681,80.351723 200.288147,79.013321 202.798569,77.807335 
	C205.175797,76.665344 206.742081,76.672157 208.012253,79.318130 
	C216.072205,96.108307 224.252274,112.841118 232.213867,129.677444 
	C232.675110,130.652847 231.570709,132.368637 230.846603,133.892746 
z"/>
<path fill="#FFB14C" opacity="1.000000" stroke="none" 
	d="
M450.614929,199.580215 
	C443.558044,203.013229 436.772705,206.157104 430.105530,209.534241 
	C427.504059,210.851959 425.991058,210.744736 424.640747,207.860764 
	C423.255066,204.901215 424.476349,203.672958 426.944092,202.484268 
	C443.103638,194.700211 459.249237,186.886246 475.345612,178.972641 
	C478.105835,177.615616 479.754059,177.677948 481.267792,180.749084 
	C482.848877,183.956863 481.003693,184.873032 478.759247,185.952148 
	C469.477081,190.415009 460.207794,194.904587 450.614929,199.580215 
z"/>
<path fill="#FFB14D" opacity="1.000000" stroke="none" 
	d="
M377.484802,459.487366 
	C371.847076,463.087677 371.746643,463.109894 369.160217,457.799042 
	C361.539642,442.151306 354.027435,426.450500 346.342957,410.834381 
	C344.806488,407.712097 344.705322,405.367981 348.528870,404.561584 
	C349.730316,404.308136 351.996216,404.963074 352.438477,405.860718 
	C361.006897,423.250732 369.378693,440.737640 377.768341,458.215485 
	C377.889099,458.467194 377.722870,458.856659 377.484802,459.487366 
z"/>
<path fill="#FFB14C" opacity="1.000000" stroke="none" 
	d="
M147.454636,324.382202 
	C150.202972,322.768860 152.256622,322.210114 153.772980,325.552429 
	C154.887527,328.009064 154.667618,329.506287 152.124786,330.723938 
	C134.734482,339.051483 117.374474,347.442261 100.075859,355.778351 
	C95.031792,350.974731 95.182266,349.576721 100.819077,346.865540 
	C116.256516,339.440582 131.689468,332.006226 147.454636,324.382202 
z"/>
</svg>