<svg version="1.1" id="Layer_1" xmlns="http://www.w3.org/2000/svg" xmlns:xlink="http://www.w3.org/1999/xlink" x="0px" y="0px"
	 width="100%" viewBox="0 0 486 643" enable-background="new 0 0 486 643" xml:space="preserve">
<path fill="#FFFFFF" opacity="0" stroke="none" 
	d="
M245.000000,644.000000 
	C163.351303,644.000000 82.202606,644.000000 1.026952,644.000000 
	C1.026952,429.732086 1.026952,215.464172 1.026952,1.098123 
	C162.898666,1.098123 324.797424,1.098123 486.848083,1.098123 
	C486.848083,215.333252 486.848083,429.666626 486.848083,644.000000 
	C406.464203,644.000000 325.982086,644.000000 245.000000,644.000000 
M288.468903,91.074577 
	C275.179474,72.810608 253.544678,65.833572 231.818085,72.950470 
	C211.453537,79.621216 198.743378,100.212708 198.827866,119.909935 
	C199.219559,211.237885 198.976044,302.568481 199.088959,393.897949 
	C199.093658,397.701813 198.061020,399.949219 194.712418,401.863281 
	C184.331360,407.796997 175.755539,415.863098 168.344040,425.222321 
	C132.805649,470.100403 141.932846,536.416443 188.333527,569.988586 
	C207.023178,583.511047 227.746918,589.673218 251.003784,589.223389 
	C270.917816,588.838379 288.961060,583.271179 304.832733,572.076172 
	C335.616486,550.363037 351.124390,520.443970 349.043213,482.333252 
	C347.158051,447.812134 330.979584,421.353607 302.425720,402.368744 
	C298.662109,399.866364 297.115967,397.504395 297.123230,392.928314 
	C297.266479,302.765564 297.185089,212.602448 297.286835,122.439552 
	C297.299408,111.309067 295.151520,100.971428 288.468903,91.074577 
z"/>
<path fill="#6B99D1" opacity="1.000000" stroke="none" 
	d="
M288.701721,91.353073 
	C295.151520,100.971428 297.299408,111.309067 297.286835,122.439552 
	C297.185089,212.602448 297.266479,302.765564 297.123230,392.928314 
	C297.115967,397.504395 298.662109,399.866364 302.425720,402.368744 
	C330.979584,421.353607 347.158051,447.812134 349.043213,482.333252 
	C351.124390,520.443970 335.616486,550.363037 304.832733,572.076172 
	C288.961060,583.271179 270.917816,588.838379 251.003784,589.223389 
	C227.746918,589.673218 207.023178,583.511047 188.333527,569.988586 
	C141.932846,536.416443 132.805649,470.100403 168.344040,425.222321 
	C175.755539,415.863098 184.331360,407.796997 194.712418,401.863281 
	C198.061020,399.949219 199.093658,397.701813 199.088959,393.897949 
	C198.976044,302.568481 199.219559,211.237885 198.827866,119.909935 
	C198.743378,100.212708 211.453537,79.621216 231.818085,72.950470 
	C253.544678,65.833572 275.179474,72.810608 288.701721,91.353073 
M185.181503,540.280334 
	C202.537262,560.514099 224.821442,570.399292 251.185638,569.565002 
	C269.497467,568.985596 286.173279,562.587769 300.362579,550.338440 
	C323.073120,530.732971 332.764862,505.731110 328.623962,476.492035 
	C324.418884,446.799500 307.845093,425.234772 280.130707,412.716675 
	C278.840454,412.133911 277.387177,410.197388 277.344055,408.848663 
	C277.078796,400.558868 277.190216,392.256775 277.190033,383.958771 
	C277.188141,297.470703 277.190125,210.982635 277.183380,124.494560 
	C277.183167,121.662361 277.208588,118.823776 277.038391,115.999229 
	C276.630829,109.234596 273.885071,103.396515 269.094757,98.736794 
	C260.020660,89.910080 247.044983,87.452332 235.887558,92.706932 
	C224.435715,98.100204 218.869583,107.248932 218.881699,120.158089 
	C218.971375,215.644592 218.878845,311.131287 218.972900,406.617767 
	C218.976562,410.338226 217.893875,412.154236 214.473923,413.685333 
	C183.621170,427.497803 166.668625,456.653625 166.329468,488.116974 
	C166.123032,507.266785 172.656235,524.634094 185.181503,540.280334 
z"/>
<path fill="#27487A" opacity="1.000000" stroke="none" 
	d="
M184.998932,539.974487 
	C172.656235,524.634094 166.123032,507.266785 166.329468,488.116974 
	C166.668625,456.653625 183.621170,427.497803 214.473923,413.685333 
	C217.893875,412.154236 218.976562,410.338226 218.972900,406.617767 
	C218.878845,311.131287 218.971375,215.644592 218.881699,120.158089 
	C218.869583,107.248932 224.435715,98.100204 235.887558,92.706932 
	C247.044983,87.452332 260.020660,89.910080 269.094757,98.736794 
	C273.885071,103.396515 276.630829,109.234596 277.038391,115.999229 
	C277.208588,118.823776 277.183167,121.662361 277.183380,124.494560 
	C277.190125,210.982635 277.188141,297.470703 277.190033,383.958771 
	C277.190216,392.256775 277.078796,400.558868 277.344055,408.848663 
	C277.387177,410.197388 278.840454,412.133911 280.130707,412.716675 
	C307.845093,425.234772 324.418884,446.799500 328.623962,476.492035 
	C332.764862,505.731110 323.073120,530.732971 300.362579,550.338440 
	C286.173279,562.587769 269.497467,568.985596 251.185638,569.565002 
	C224.821442,570.399292 202.537262,560.514099 184.998932,539.974487 
M320.846344,488.409119 
	C320.233093,456.902588 303.060120,431.316071 274.804382,420.410767 
	C270.804443,418.866974 269.819305,416.845367 269.831604,412.832611 
	C269.968506,368.169342 269.917908,323.505524 269.917908,278.841827 
	C269.917908,277.056641 269.917908,275.271454 269.917908,273.329071 
	C255.353104,273.329071 241.305115,273.329071 226.947510,273.329071 
	C226.947510,275.631470 226.947510,277.608002 226.947510,279.584503 
	C226.947495,324.248199 226.932495,368.911896 226.981140,413.575531 
	C226.984390,416.556641 226.823624,418.643402 223.311066,420.043457 
	C191.317383,432.795563 173.890625,461.204010 176.837555,495.303314 
	C180.749084,540.564148 229.774384,571.738647 272.278046,555.606689 
	C302.587738,544.102844 318.531525,521.589661 320.846344,488.409119 
z"/>
<path fill="#FEB544" opacity="1.000000" stroke="none" 
	d="
M320.838135,488.866394 
	C318.531525,521.589661 302.587738,544.102844 272.278046,555.606689 
	C229.774384,571.738647 180.749084,540.564148 176.837555,495.303314 
	C173.890625,461.204010 191.317383,432.795563 223.311066,420.043457 
	C226.823624,418.643402 226.984390,416.556641 226.981140,413.575531 
	C226.932495,368.911896 226.947495,324.248199 226.947510,279.584503 
	C226.947510,277.608002 226.947510,275.631470 226.947510,273.329071 
	C241.305115,273.329071 255.353104,273.329071 269.917908,273.329071 
	C269.917908,275.271454 269.917908,277.056641 269.917908,278.841827 
	C269.917908,323.505524 269.968506,368.169342 269.831604,412.832611 
	C269.819305,416.845367 270.804443,418.866974 274.804382,420.410767 
	C303.060120,431.316071 320.233093,456.902588 320.838135,488.866394 
z"/>
</svg>