<svg version="1.1" id="Layer_1" xmlns="http://www.w3.org/2000/svg" xmlns:xlink="http://www.w3.org/1999/xlink" x="0px" y="0px"
	 width="100%" viewBox="0 0 672 478" enable-background="new 0 0 672 478" xml:space="preserve">
<path fill="none" opacity="0" stroke="#000000" stroke-linecap="round" stroke-linejoin="round" stroke-width="12.000000"
	d="
M91.000000,213.500000 
	C113.333336,213.500000 135.678040,213.047150 157.997299,213.607635 
	C190.331909,214.419601 222.670776,214.924728 254.998108,214.386246 
	C294.001984,213.736572 333.006836,214.633530 371.997864,213.888245 
	C399.169891,213.368881 426.364136,214.460220 453.488983,213.252396 
	C470.347015,212.501724 487.193176,213.384003 503.993286,212.386917 
	C520.178589,211.426346 536.519531,211.896561 552.493164,208.468048 
	C570.740784,204.551422 588.156128,198.898651 599.481628,182.487335 
	C614.106812,161.294662 611.322083,131.333420 587.928589,117.117508 
	C572.850464,107.954742 556.415161,104.661285 539.551025,112.115456 
	C528.211060,117.127884 523.524719,127.235260 521.421448,138.985947 
	C519.893311,147.523315 520.749512,155.991821 521.000000,164.500000 
"/>
<path fill="none" opacity="1.000000" stroke="#000000" stroke-linecap="round" stroke-linejoin="round" stroke-width="12.000000"
	d="
M504.500000,314.000000 
	C504.500000,319.500000 504.266937,325.011841 504.545349,330.497711 
	C505.270264,344.780487 515.577148,353.876007 529.496765,355.527496 
	C536.674805,356.379120 543.555725,355.662872 550.527283,353.591797 
	C563.958130,349.601715 571.705200,340.489136 575.483826,327.495300 
	C579.886780,312.354553 577.844849,298.107819 568.978638,285.014465 
	C561.106201,273.388702 549.571899,266.970520 536.490295,263.032196 
	C526.229858,259.943207 515.742188,258.202576 505.006256,257.414886 
	C475.860687,255.276443 446.664429,256.149139 417.503937,255.354950 
	C377.499298,254.265396 337.489288,255.247299 297.503143,254.358215 
	C254.498886,253.402023 211.497223,253.242493 168.501251,253.636749 
	C133.668060,253.956161 98.837158,254.564713 63.999981,254.512756 
	C63.316975,254.511734 62.502831,254.177994 62.000000,255.000000 
"/>
<path fill="none" opacity="1.000000" stroke="#000000" stroke-linecap="round" stroke-linejoin="round" stroke-width="12.000000"
	d="
M115.000000,175.000000 
	C172.500000,175.166672 230.007492,175.952637 287.497040,175.256470 
	C319.498779,174.868958 351.505188,175.041214 383.496857,174.353363 
	C394.793793,174.110474 406.293915,173.423920 416.987518,168.970016 
	C437.356598,160.486237 446.901611,134.854889 436.027954,116.483459 
	C429.563751,105.561920 420.171234,99.816513 407.499725,99.511505 
	C397.961182,99.281906 389.132599,100.956680 381.429810,107.416290 
	C373.657471,113.934204 371.121063,121.831070 373.000000,131.500000 
"/>
<path fill="none" opacity="1.000000" stroke="#000000" stroke-linecap="round" stroke-linejoin="round" stroke-width="12.000000"
	d="
M384.750000,329.500000 
	C384.833313,330.833344 385.201996,332.222137 384.955200,333.491302 
	C382.820862,344.467926 387.073242,351.670197 396.088013,356.329681 
	C408.367126,362.676331 421.726440,363.922241 434.435455,357.864563 
	C455.543030,347.803711 458.639740,320.200623 440.547180,305.442169 
	C431.981750,298.455170 421.889771,296.713409 411.499054,295.508026 
	C395.700226,293.675323 379.835083,294.715851 363.999756,294.520477 
	C343.667450,294.269531 323.329956,294.347534 303.000641,293.965179 
	C247.668350,292.924561 192.332977,293.795441 136.999802,293.545624 
	C133.334702,293.529083 129.666672,294.166687 126.000000,294.500031 
"/>
<path fill="none" opacity="1.000000" stroke="#000000" stroke-linecap="round" stroke-linejoin="round" stroke-width="13.000000"
	d="
M290.500000,374.000000 
	C287.898315,382.544556 291.572632,390.272705 299.949097,396.073486 
	C311.221619,403.879761 330.089417,401.248810 337.435730,391.949249 
	C347.442139,379.282349 348.822540,365.187103 338.514740,351.988495 
	C331.627136,343.169281 322.328491,339.529816 311.505157,338.448456 
	C292.528290,336.552490 273.486206,337.694855 254.504608,336.891174 
	C210.504303,335.028168 166.498856,336.260223 122.499641,336.165558 
	C106.510483,336.131134 90.499535,336.288452 74.500000,336.500000 
"/>
<path fill="none" opacity="1.000000" stroke="#000000" stroke-linecap="round" stroke-linejoin="round" stroke-width="13.000000"
	d="
M70.000000,139.000000 
	C115.827057,140.196167 161.673981,140.562607 207.495117,139.730804 
	C225.661530,139.401001 243.845810,139.668030 261.995239,138.889206 
	C270.839966,138.509659 279.674652,138.874954 288.498291,138.463104 
	C299.695892,137.940491 311.006470,137.643890 320.993622,131.489670 
	C339.326141,120.192970 342.848785,95.386375 323.358734,81.701172 
	C310.848450,72.916885 288.107025,76.689194 281.491180,91.496056 
	C279.535156,95.873802 281.157654,100.545464 280.250000,105.000000 
"/>
</svg>