<svg version="1.1" id="Layer_1" xmlns="http://www.w3.org/2000/svg" xmlns:xlink="http://www.w3.org/1999/xlink" x="0px" y="0px"
	 width="100%" viewBox="0 0 348 600" enable-background="new 0 0 348 600" xml:space="preserve">
<path fill="#2E5592" opacity="1.000000" stroke="none" 
	d="
M162.000000,1.000000 
	C170.687561,1.000000 179.375137,1.000000 188.731262,1.364941 
	C196.784836,2.847879 204.235901,3.642451 211.544601,5.134349 
	C277.997925,18.699228 331.781067,72.736015 345.164581,139.265610 
	C346.550598,146.155426 347.726562,153.087524 349.000000,160.000000 
	C349.000000,170.354233 349.000000,180.708450 348.627716,191.701355 
	C346.195251,209.073257 342.501648,225.390747 336.475983,241.190063 
	C326.601227,267.081879 311.768524,290.115295 295.948059,312.621918 
	C252.004684,375.136993 218.031693,442.321564 201.650360,517.455933 
	C197.263947,537.574585 193.706314,558.029663 192.000916,578.516113 
	C191.048370,589.958862 188.181870,597.583313 177.000000,601.000000 
	C175.611115,601.000000 174.222214,601.000000 172.241074,600.691406 
	C161.302216,596.671082 157.898514,591.539307 158.228210,580.422302 
	C158.306870,577.770264 158.268326,575.068665 157.860718,572.455811 
	C155.477234,557.177551 153.533600,541.801758 150.401642,526.674194 
	C137.984192,466.696747 115.405708,410.609741 83.585938,358.378174 
	C69.492729,335.244446 53.694370,313.155426 38.943577,290.414734 
	C22.815613,265.550873 10.150187,239.136124 4.423705,209.787064 
	C3.267428,203.860977 2.140475,197.929169 1.000001,192.000000 
	C1.000000,179.979111 1.000000,167.958206 1.349800,155.277985 
	C2.423515,150.356140 3.128929,146.090408 3.874108,141.831619 
	C15.931235,72.923523 75.284729,14.784859 144.610458,3.942804 
	C150.418335,3.034493 156.204010,1.984284 162.000000,1.000000 
M264.642639,66.857628 
	C218.363220,28.772152 152.218353,24.509130 99.819290,56.234798 
	C40.232998,92.312057 16.695482,167.274078 45.643448,230.562378 
	C83.467430,313.256104 188.428635,339.654388 261.731995,283.651978 
	C333.089478,229.136139 334.403900,123.533195 264.642639,66.857628 
z"/>
<path fill="#FFFFFF" opacity="0" stroke="none" 
	d="
M177.468658,601.000000 
	C188.181870,597.583313 191.048370,589.958862 192.000916,578.516113 
	C193.706314,558.029663 197.263947,537.574585 201.650360,517.455933 
	C218.031693,442.321564 252.004684,375.136993 295.948059,312.621918 
	C311.768524,290.115295 326.601227,267.081879 336.475983,241.190063 
	C342.501648,225.390747 346.195251,209.073257 348.627716,192.170013 
	C349.000000,328.230621 349.000000,464.461212 349.000000,601.000000 
	C291.979462,601.000000 234.958389,601.000000 177.468658,601.000000 
z"/>
<path fill="#FFFFFF" opacity="0" stroke="none" 
	d="
M1.000001,192.468658 
	C2.140475,197.929169 3.267428,203.860977 4.423705,209.787064 
	C10.150187,239.136124 22.815613,265.550873 38.943577,290.414734 
	C53.694370,313.155426 69.492729,335.244446 83.585938,358.378174 
	C115.405708,410.609741 137.984192,466.696747 150.401642,526.674194 
	C153.533600,541.801758 155.477234,557.177551 157.860718,572.455811 
	C158.268326,575.068665 158.306870,577.770264 158.228210,580.422302 
	C157.898514,591.539307 161.302216,596.671082 171.824402,600.691406 
	C115.043022,601.000000 58.086044,601.000000 1.000000,601.000000 
	C1.000000,464.979126 1.000000,328.958221 1.000001,192.468658 
z"/>
<path fill="#FEFEFF" opacity="0" stroke="none" 
	d="
M349.000000,159.531342 
	C347.726562,153.087524 346.550598,146.155426 345.164581,139.265610 
	C331.781067,72.736015 277.997925,18.699228 211.544601,5.134349 
	C204.235901,3.642451 196.784836,2.847879 189.199905,1.364941 
	C242.260101,1.000000 295.520203,1.000000 349.000000,1.000000 
	C349.000000,53.687359 349.000000,106.375023 349.000000,159.531342 
z"/>
<path fill="#FEFEFF" opacity="0" stroke="none" 
	d="
M161.531342,1.000000 
	C156.204010,1.984284 150.418335,3.034493 144.610458,3.942804 
	C75.284729,14.784859 15.931235,72.923523 3.874108,141.831619 
	C3.128929,146.090408 2.423515,150.356140 1.349800,154.809326 
	C1.000000,103.738037 1.000000,52.476074 1.000000,1.000000 
	C54.354038,1.000000 107.708359,1.000000 161.531342,1.000000 
z"/>
<path fill="#FEFDFD" opacity="1.000000" stroke="none" 
	d="
M264.927917,67.068520 
	C334.403900,123.533195 333.089478,229.136139 261.731995,283.651978 
	C188.428635,339.654388 83.467430,313.256104 45.643448,230.562378 
	C16.695482,167.274078 40.232998,92.312057 99.819290,56.234798 
	C152.218353,24.509130 218.363220,28.772152 264.927917,67.068520 
M146.191422,286.417480 
	C146.400009,286.569702 146.631546,286.624023 147.386108,286.910065 
	C147.584854,286.891052 147.783585,286.872009 148.740280,287.034821 
	C149.774933,287.025665 150.809586,287.016510 152.243332,287.723907 
	C159.158249,288.219635 166.073151,288.715332 173.714050,289.482391 
	C180.806839,288.643982 187.899612,287.805573 195.813919,287.039612 
	C202.438644,285.067139 209.254837,283.566833 215.630997,280.981354 
	C221.318268,278.675201 226.519150,275.169525 232.648163,272.015289 
	C237.777664,268.372925 242.907166,264.730560 248.680191,260.877747 
	C254.955597,253.660049 261.230988,246.442352 268.011993,238.832687 
	C270.851135,234.538666 274.237427,230.505081 275.298157,225.364532 
	C274.884033,225.047073 274.469879,224.729614 274.055756,224.412155 
	C269.051147,229.120529 264.046509,233.828903 258.093323,238.657516 
	C255.540634,238.342697 252.987946,238.027863 250.658920,237.387177 
	C250.658920,237.387177 250.712036,236.995590 250.950027,237.000641 
	C250.950027,237.000641 250.957596,236.762711 251.564377,236.527512 
	C254.372681,233.935013 257.180969,231.342514 260.596161,228.522964 
	C264.065521,225.018021 267.534882,221.513077 271.629059,217.752090 
	C274.128296,214.943039 276.627563,212.133987 279.669525,209.071548 
	C285.458160,203.914200 285.397522,196.878586 286.039368,189.164566 
	C286.039368,182.002441 286.039368,174.840317 286.039368,167.228989 
	C274.992096,179.232651 264.512909,190.619003 253.425507,202.188736 
	C252.557404,203.101059 251.689301,204.013382 250.190659,205.115433 
	C248.084564,207.061401 245.978455,209.007355 243.254120,211.172104 
	C241.575546,212.588547 239.896973,214.004990 237.626236,215.679916 
	C235.056442,217.698547 232.486633,219.717163 229.233627,221.895828 
	C226.455460,223.845627 223.677277,225.795441 220.193619,227.896286 
	C218.059494,229.040970 215.925385,230.185669 213.139465,231.008072 
	C210.643143,230.066437 208.146820,229.124817 206.183502,227.792938 
	C206.494522,227.232147 206.805542,226.671341 207.877136,226.136017 
	C211.590973,224.108856 215.304810,222.081711 219.718765,219.935135 
	C222.517914,218.063156 225.317078,216.191162 228.695328,214.154633 
	C229.124161,213.748291 229.552994,213.341949 230.649292,212.805054 
	C233.814606,210.338470 236.979935,207.871872 240.728180,205.042160 
	C242.533905,203.507690 244.339645,201.973206 246.807770,200.181564 
	C249.928436,197.233002 253.049118,194.284454 256.809387,191.095413 
	C262.316254,185.091003 267.823120,179.086609 273.292603,173.028488 
	C273.292603,173.028488 273.310730,173.090439 273.916687,172.763245 
	C274.278687,172.195114 274.640686,171.626984 275.603302,170.750473 
	C278.036407,167.631119 280.599579,164.601059 282.834503,161.345673 
	C283.655396,160.149979 284.385803,158.199707 283.988770,156.971436 
	C281.171265,148.255493 278.050446,139.637604 274.952118,130.274551 
	C272.722626,126.274910 270.493164,122.275269 268.041870,117.877731 
	C263.704163,123.481506 259.946411,128.490494 256.020721,133.364166 
	C252.080826,138.255493 247.973480,143.011932 243.145035,148.164459 
	C242.911438,148.332367 242.677856,148.500259 242.468552,147.791595 
	C242.468552,146.027588 242.468552,144.263565 242.468552,141.461884 
	C231.764145,149.867477 221.788116,157.701126 211.812088,165.534760 
	C211.240509,165.188049 210.668930,164.841324 210.097366,164.494598 
	C210.701782,163.022919 210.914749,161.129440 211.973267,160.147034 
	C219.663910,153.009567 227.075195,145.450150 235.462997,139.219955 
	C243.308929,133.392273 241.033539,126.135727 241.219879,118.601585 
	C238.237534,118.843704 235.925980,119.186127 233.614212,119.187683 
	C228.369064,119.191193 224.878387,121.407654 221.952408,125.956711 
	C216.103195,135.050537 209.525024,143.673096 203.353989,152.563889 
	C201.714569,154.925812 200.306503,156.053574 198.116577,152.949387 
	C204.818878,142.313751 211.516647,131.685318 218.349854,120.841949 
	C212.443130,119.910789 209.170685,121.866226 206.852371,126.877029 
	C203.033737,135.130600 198.499680,143.053162 194.193207,151.256210 
	C190.420059,149.897705 187.177826,148.730347 183.436264,147.383209 
	C185.252670,138.184250 186.690002,128.993149 188.980911,120.019951 
	C190.355377,114.636299 188.290359,111.647743 184.009201,108.703766 
	C183.668320,110.178032 183.305405,111.268448 183.175156,112.385986 
	C182.018616,122.309189 180.985886,132.247955 179.693924,142.153091 
	C179.480042,143.792694 178.185776,145.291367 177.390778,146.855179 
	C176.771545,145.105286 175.574203,143.337402 175.627960,141.608429 
	C175.948959,131.285843 175.760788,120.851242 177.301575,110.690506 
	C178.763687,101.048668 171.760956,98.005913 166.812332,92.565742 
	C161.903534,98.888985 155.959610,103.366249 158.506653,112.623222 
	C161.318344,122.841949 162.339645,133.560791 163.954300,144.090408 
	C164.124863,145.202698 163.042099,146.507156 162.540787,147.722473 
	C161.712631,146.751434 160.440735,145.902222 160.134781,144.787811 
	C158.946396,140.459061 158.073425,136.044113 157.067307,131.664856 
	C155.483307,124.770340 153.886566,117.878738 152.150528,110.359192 
	C148.252655,113.963875 145.878326,116.960365 148.151398,121.740021 
	C149.355103,124.271095 149.962158,127.092491 150.773438,129.802322 
	C152.709152,136.267853 154.606216,142.744965 156.508713,149.182983 
	C152.789886,150.973770 149.690536,152.466232 146.292496,154.102524 
	C141.021133,146.195557 135.558395,138.633194 130.812363,130.645035 
	C127.976929,125.872681 124.475929,125.335510 119.294083,126.522743 
	C126.691589,135.972275 133.709946,145.039612 140.862411,153.999893 
	C142.581223,156.153137 143.003967,157.636841 139.589203,158.927765 
	C132.011154,150.464203 123.680466,142.431839 116.930725,133.238724 
	C111.014595,125.180969 103.785011,126.997650 95.977509,127.073097 
	C96.149010,129.396759 96.465652,131.062683 96.359398,132.701172 
	C95.896645,139.837021 99.487617,144.117706 105.320908,147.842285 
	C114.689133,153.823929 123.537361,160.619980 132.503220,166.999237 
	C131.370514,171.312057 129.328247,169.783356 127.267883,168.472809 
	C119.397896,163.466904 111.542503,158.436539 103.603310,153.542404 
	C102.301697,152.740021 100.606155,152.576675 98.651115,151.913376 
	C98.651115,151.913376 98.172028,151.835556 97.951897,151.200256 
	C96.034142,148.769409 94.116386,146.338562 92.045929,143.309677 
	C91.415726,142.519684 90.785522,141.729691 90.035561,140.245895 
	C85.856018,133.682297 81.676476,127.118690 77.470116,120.512985 
	C72.781578,126.719391 67.492752,139.503815 65.740181,148.711090 
	C65.868248,149.476349 65.996307,150.241623 65.737488,151.644135 
	C64.478760,159.212631 63.206936,166.779053 61.999382,174.355713 
	C61.937992,174.740906 62.373852,175.258286 62.672821,175.639999 
	C66.746376,180.840897 70.836647,186.028702 75.122505,191.849915 
	C77.751572,194.898483 80.380638,197.947037 83.382927,201.545090 
	C87.565620,206.113007 91.748314,210.680939 95.284836,215.122314 
	C94.854958,215.185623 94.425079,215.248932 93.141747,215.130356 
	C91.108398,215.147324 89.075050,215.164291 86.749199,214.905075 
	C86.749199,214.905075 86.355461,214.822556 86.081306,214.194931 
	C82.387337,210.153183 78.693375,206.111435 74.979820,201.677887 
	C74.902534,201.387772 74.714317,201.231094 74.384239,201.107880 
	C74.384239,201.107880 74.279633,201.109665 73.937103,200.508636 
	C70.055794,196.450058 67.722786,190.916351 62.932186,187.724075 
	C62.396732,188.004333 61.861279,188.284607 61.325821,188.564880 
	C63.587326,197.049408 65.848824,205.533936 68.158180,214.752579 
	C72.745918,223.573914 77.333649,232.395233 82.022575,241.878311 
	C83.695023,243.964386 85.367462,246.050476 87.230316,248.765808 
	C90.834343,252.509979 94.438362,256.254150 98.263771,260.627655 
	C101.126457,262.850800 103.989143,265.073914 107.208908,267.852448 
	C112.811531,271.204865 118.414146,274.557281 124.503128,278.408173 
	C131.633743,280.956757 138.764343,283.505371 145.950485,286.113129 
	C145.950485,286.113129 146.027939,286.089020 146.191422,286.417480 
M103.764328,88.861816 
	C102.439941,87.202522 101.115547,85.543228 100.524704,84.802986 
	C97.788475,86.680351 95.195053,88.459740 93.386864,89.700363 
	C94.013725,92.445930 94.704575,95.471741 95.436043,98.675468 
	C98.403091,95.044655 101.859962,96.402519 104.591148,98.446968 
	C105.387253,95.182343 106.131454,92.130508 106.886276,89.035126 
	C106.773712,89.028824 105.638466,88.965240 103.764328,88.861816 
M238.485947,84.574745 
	C236.503082,86.534431 234.520218,88.494110 232.730606,90.262810 
	C233.300049,92.398521 234.067001,95.275002 234.926620,98.499062 
	C238.227158,94.947380 241.355560,96.479744 243.719406,98.512932 
	C244.546738,95.367989 245.378387,92.206612 246.218231,89.014084 
	C241.680481,91.633865 241.551880,85.884995 238.485947,84.574745 
M176.450302,65.490509 
	C176.629807,65.229408 176.831802,64.980049 176.977325,64.701202 
	C177.032379,64.595680 176.948395,64.296791 176.942368,64.297211 
	C172.853043,64.579628 170.057068,63.111851 169.765167,59.466560 
	C167.370438,61.340816 164.855209,63.309380 162.632843,65.048737 
	C163.178391,67.248825 163.936646,70.306709 164.469696,72.456383 
	C167.616821,72.307732 170.691284,72.162514 173.306793,72.038971 
	C174.099564,70.157112 174.991806,68.039169 176.450302,65.490509 
z"/>
<path fill="#FCD11A" opacity="1.000000" stroke="none" 
	d="
M99.092674,152.117996 
	C100.606155,152.576675 102.301697,152.740021 103.603310,153.542404 
	C111.542503,158.436539 119.397896,163.466904 127.267883,168.472809 
	C129.328247,169.783356 131.370514,171.312057 132.503220,166.999237 
	C123.537361,160.619980 114.689133,153.823929 105.320908,147.842285 
	C99.487617,144.117706 95.896645,139.837021 96.359398,132.701172 
	C96.465652,131.062683 96.149010,129.396759 95.977509,127.073097 
	C103.785011,126.997650 111.014595,125.180969 116.930725,133.238724 
	C123.680466,142.431839 132.011154,150.464203 139.589203,158.927765 
	C143.003967,157.636841 142.581223,156.153137 140.862411,153.999893 
	C133.709946,145.039612 126.691589,135.972275 119.294083,126.522743 
	C124.475929,125.335510 127.976929,125.872681 130.812363,130.645035 
	C135.558395,138.633194 141.021133,146.195557 146.292496,154.102524 
	C149.690536,152.466232 152.789886,150.973770 156.508713,149.182983 
	C154.606216,142.744965 152.709152,136.267853 150.773438,129.802322 
	C149.962158,127.092491 149.355103,124.271095 148.151398,121.740021 
	C145.878326,116.960365 148.252655,113.963875 152.150528,110.359192 
	C153.886566,117.878738 155.483307,124.770340 157.067307,131.664856 
	C158.073425,136.044113 158.946396,140.459061 160.134781,144.787811 
	C160.440735,145.902222 161.712631,146.751434 162.540787,147.722473 
	C163.042099,146.507156 164.124863,145.202698 163.954300,144.090408 
	C162.339645,133.560791 161.318344,122.841949 158.506653,112.623222 
	C155.959610,103.366249 161.903534,98.888985 166.812332,92.565742 
	C171.760956,98.005913 178.763687,101.048668 177.301575,110.690506 
	C175.760788,120.851242 175.948959,131.285843 175.627960,141.608429 
	C175.574203,143.337402 176.771545,145.105286 177.390778,146.855179 
	C178.185776,145.291367 179.480042,143.792694 179.693924,142.153091 
	C180.985886,132.247955 182.018616,122.309189 183.175156,112.385986 
	C183.305405,111.268448 183.668320,110.178032 184.009201,108.703766 
	C188.290359,111.647743 190.355377,114.636299 188.980911,120.019951 
	C186.690002,128.993149 185.252670,138.184250 183.436264,147.383209 
	C187.177826,148.730347 190.420059,149.897705 194.193207,151.256210 
	C198.499680,143.053162 203.033737,135.130600 206.852371,126.877029 
	C209.170685,121.866226 212.443130,119.910789 218.349854,120.841949 
	C211.516647,131.685318 204.818878,142.313751 198.116577,152.949387 
	C200.306503,156.053574 201.714569,154.925812 203.353989,152.563889 
	C209.525024,143.673096 216.103195,135.050537 221.952408,125.956711 
	C224.878387,121.407654 228.369064,119.191193 233.614212,119.187683 
	C235.925980,119.186127 238.237534,118.843704 241.219879,118.601585 
	C241.033539,126.135727 243.308929,133.392273 235.462997,139.219955 
	C227.075195,145.450150 219.663910,153.009567 211.973267,160.147034 
	C210.914749,161.129440 210.701782,163.022919 210.097366,164.494598 
	C210.668930,164.841324 211.240509,165.188049 211.812088,165.534760 
	C221.788116,157.701126 231.764145,149.867477 242.468552,141.461884 
	C242.468552,144.263565 242.468552,146.027588 242.338348,148.473938 
	C240.154510,151.433914 238.100906,153.711548 235.741058,156.031494 
	C234.699905,156.416290 233.964981,156.758743 232.867752,157.054016 
	C227.367096,160.338760 222.300980,163.790344 217.060883,166.953751 
	C214.311325,168.613632 214.379532,170.344589 215.908096,172.839569 
	C214.178177,174.416168 212.602493,175.729172 210.707275,177.153839 
	C207.169006,179.808365 203.950287,182.351242 200.438446,184.877472 
	C199.769394,184.959595 199.393417,185.058350 198.689148,185.238815 
	C195.472885,187.152588 192.584946,188.984650 189.362183,190.890656 
	C186.126144,192.529373 183.224915,194.094162 180.002762,195.737045 
	C171.849533,198.923431 164.017212,202.031708 155.838959,205.046280 
	C149.717926,200.943604 143.942810,196.934647 138.049713,192.651154 
	C137.110245,191.840424 136.288757,191.304230 135.287949,190.474182 
	C132.069824,187.416321 129.031021,184.652313 126.079147,181.528351 
	C126.923294,178.995224 127.680519,176.822052 128.679779,173.954269 
	C122.349472,170.943542 116.132133,167.986542 109.950005,165.022705 
	C109.985222,165.015854 109.995934,165.086807 109.918640,164.801025 
	C109.485443,164.365051 109.129547,164.214859 108.499176,163.885712 
	C105.180252,160.135208 102.135803,156.563675 99.080215,152.982452 
	C99.069061,152.972778 99.061279,152.944305 99.096619,152.738770 
	C99.131958,152.533249 99.092674,152.117996 99.092674,152.117996 
z"/>
<path fill="#4004DE" opacity="1.000000" stroke="none" 
	d="
M147.982330,286.852997 
	C147.783585,286.872009 147.584854,286.891052 147.047974,286.588562 
	C146.513580,286.089172 146.286285,286.029846 146.027939,286.089020 
	C146.027939,286.089020 145.950485,286.113129 145.937546,285.718750 
	C144.949158,284.105011 144.224060,282.364502 142.955566,281.755188 
	C136.987549,278.888519 131.221786,274.913086 124.052818,276.597595 
	C124.326683,273.088684 124.822701,269.928894 124.672844,266.799988 
	C124.512177,263.445007 123.743965,260.119141 123.142761,256.129242 
	C129.257126,258.495850 129.315002,253.526321 131.460739,250.794617 
	C135.251907,252.613937 138.701065,254.341309 142.426239,256.330933 
	C148.470612,259.375916 154.238953,262.158661 160.004456,265.285095 
	C159.996399,266.087067 159.991180,266.545380 159.713196,267.249420 
	C157.440033,268.328644 155.499298,269.389496 153.423126,269.934082 
	C151.172150,270.524536 148.794998,270.634064 145.204681,271.127655 
	C149.991013,276.581573 151.328934,281.502655 147.982330,286.852997 
z"/>
<path fill="#B20A06" opacity="1.000000" stroke="none" 
	d="
M236.047287,155.989166 
	C238.100906,153.711548 240.154510,151.433914 242.326202,148.912216 
	C242.677856,148.500259 242.911438,148.332367 243.606293,148.358673 
	C247.745453,154.979340 254.740921,157.476151 260.011108,162.255798 
	C260.009369,162.497070 260.010162,162.979645 260.054321,163.250763 
	C260.736359,163.676605 261.374298,163.831360 262.382141,164.012604 
	C263.505737,164.747955 264.272369,165.443588 265.009644,166.169083 
	C265.854126,167.000076 266.672455,167.857574 267.502167,168.703568 
	C267.997406,167.470352 268.492645,166.237137 269.243561,165.000824 
	C269.669708,164.995712 269.840179,164.993698 270.340210,165.071701 
	C272.114075,167.120773 273.558380,169.089813 275.002686,171.058868 
	C274.640686,171.626984 274.278687,172.195114 273.505066,172.642426 
	C272.729889,172.275803 272.366333,172.030014 272.002808,171.784210 
	C271.932739,171.901474 271.796997,172.118546 271.801910,172.121780 
	C272.304413,172.452332 272.817505,172.766769 273.330017,173.082184 
	C267.823120,179.086609 262.316254,185.091003 256.286499,190.953522 
	C255.149094,188.845596 254.534592,186.879562 253.777939,184.458740 
	C253.114471,184.394928 251.814499,184.269897 251.679352,184.256897 
	C249.879761,172.298706 243.311066,163.961914 236.047287,155.989166 
z"/>
<path fill="#AA0E09" opacity="1.000000" stroke="none" 
	d="
M279.126801,209.324936 
	C276.627563,212.133987 274.128296,214.943039 271.101929,217.618118 
	C268.006165,215.225647 265.226868,213.333130 266.738922,208.903931 
	C267.268585,207.352478 265.555969,205.035522 264.738678,202.700851 
	C261.982513,204.617630 260.184418,205.868149 258.637665,206.943832 
	C256.804810,204.977798 255.419281,203.491577 254.033752,202.005371 
	C264.512909,190.619003 274.992096,179.232651 286.039368,167.228989 
	C286.039368,174.840317 286.039368,182.002441 285.542419,189.579773 
	C283.409973,191.102371 281.411957,191.912598 280.211792,193.376770 
	C277.408630,196.796616 274.988708,200.530579 272.413544,204.137314 
	C272.617401,204.426422 272.821289,204.715515 273.025146,205.004608 
	C275.395691,204.048767 277.766205,203.092911 280.136749,202.137054 
	C279.933990,204.156952 278.788513,205.146408 278.345703,206.386734 
	C278.065002,207.172958 278.830505,208.332703 279.126801,209.324936 
z"/>
<path fill="#A70E07" opacity="1.000000" stroke="none" 
	d="
M260.012817,162.014511 
	C254.740921,157.476151 247.745453,154.979340 244.003540,148.190201 
	C247.973480,143.011932 252.080826,138.255493 256.020721,133.364166 
	C259.946411,128.490494 263.704163,123.481506 268.041870,117.877731 
	C270.493164,122.275269 272.722626,126.274910 274.625427,130.652786 
	C272.689301,134.847626 271.079865,138.664230 268.911987,143.805023 
	C263.101898,146.840836 262.228058,150.555862 266.725739,157.384720 
	C268.221802,159.656204 268.937958,162.441345 270.010651,164.991669 
	C269.840179,164.993698 269.669708,164.995712 268.951355,164.818542 
	C266.613556,161.922379 264.913361,159.139099 262.981812,156.526871 
	C262.363068,155.690094 261.132446,155.305801 260.181763,154.714493 
	C260.099701,156.036987 259.720581,157.427872 260.005554,158.665878 
	C260.426849,160.496262 261.319977,162.218063 262.012207,163.986099 
	C261.374298,163.831360 260.736359,163.676605 260.179871,163.153717 
	C260.430054,162.466904 260.347229,162.209885 260.012817,162.014511 
z"/>
<path fill="#3804E1" opacity="1.000000" stroke="none" 
	d="
M131.118729,250.702667 
	C129.315002,253.526321 129.257126,258.495850 123.142761,256.129242 
	C123.743965,260.119141 124.512177,263.445007 124.672844,266.799988 
	C124.822701,269.928894 124.326683,273.088684 124.050476,276.835388 
	C123.985977,277.435913 124.016762,277.909698 124.016762,277.909698 
	C118.414146,274.557281 112.811531,271.204865 107.018669,267.186401 
	C105.661415,263.340118 104.494392,260.159851 103.065338,256.265503 
	C100.854675,257.908356 99.448532,258.953339 98.042381,259.998322 
	C94.438362,256.254150 90.834343,252.509979 87.540489,248.422668 
	C89.203285,248.109543 90.555916,248.139557 92.284927,248.346832 
	C98.776123,248.694061 104.890945,248.864059 111.458572,249.125458 
	C115.610657,249.124466 119.309921,249.032059 123.422501,249.012451 
	C125.774422,249.098557 127.713028,249.111847 129.798477,249.357056 
	C130.336472,249.960190 130.727600,250.331421 131.118729,250.702667 
z"/>
<path fill="#B1110D" opacity="1.000000" stroke="none" 
	d="
M270.340210,165.071701 
	C268.937958,162.441345 268.221802,159.656204 266.725739,157.384720 
	C262.228058,150.555862 263.101898,146.840836 268.911987,143.805023 
	C271.079865,138.664230 272.689301,134.847626 274.662537,131.009750 
	C278.050446,139.637604 281.171265,148.255493 283.988770,156.971436 
	C284.385803,158.199707 283.655396,160.149979 282.834503,161.345673 
	C280.599579,164.601059 278.036407,167.631119 275.302979,170.904663 
	C273.558380,169.089813 272.114075,167.120773 270.340210,165.071701 
z"/>
<path fill="#E00703" opacity="1.000000" stroke="none" 
	d="
M220.899094,227.745239 
	C223.677277,225.795441 226.455460,223.845627 229.595291,222.284470 
	C230.057281,227.409637 229.325455,232.303177 233.039032,236.281219 
	C233.523941,236.800644 233.419891,238.202271 233.140961,239.047562 
	C231.524384,243.946976 229.773651,248.802109 228.066772,253.787659 
	C228.065262,253.903107 228.065948,254.134018 227.732605,254.214905 
	C224.419815,255.933899 221.440369,257.571991 218.132233,259.187683 
	C214.391525,259.922241 213.743744,258.575195 215.414658,255.754059 
	C213.100159,255.478073 211.067093,255.235641 209.026138,254.661713 
	C209.012146,253.888077 209.006073,253.445953 209.251999,252.784805 
	C212.338974,248.301468 214.607834,243.478745 218.137802,239.899948 
	C223.846756,234.112061 224.196808,234.457336 220.899094,227.745239 
z"/>
<path fill="#2106C7" opacity="1.000000" stroke="none" 
	d="
M66.060333,147.996353 
	C67.492752,139.503815 72.781578,126.719391 77.470116,120.512985 
	C81.676476,127.118690 85.856018,133.682297 89.791016,140.751083 
	C85.029350,145.171524 80.512238,149.086761 75.707703,152.871140 
	C74.622627,152.495331 73.824966,152.250366 72.770416,151.773727 
	C70.362465,150.360153 68.211403,149.178253 66.060333,147.996353 
z"/>
<path fill="#C00704" opacity="1.000000" stroke="none" 
	d="
M235.741058,156.031494 
	C243.311066,163.961914 249.879761,172.298706 251.679352,184.256897 
	C251.814499,184.269897 253.114471,184.394928 253.777939,184.458740 
	C254.534592,186.879562 255.149094,188.845596 255.966675,191.073761 
	C253.049118,194.284454 249.928436,197.233002 246.442230,199.876495 
	C244.376144,193.086929 243.793808,186.267624 240.272369,180.326584 
	C239.776581,179.490143 239.178696,178.571579 239.102646,177.651779 
	C238.543900,170.895157 234.389404,166.197388 230.278732,161.252884 
	C231.383377,159.665512 232.306717,158.383347 233.230042,157.101196 
	C233.964981,156.758743 234.699905,156.416290 235.741058,156.031494 
z"/>
<path fill="#2101CB" opacity="1.000000" stroke="none" 
	d="
M92.198624,143.907715 
	C94.116386,146.338562 96.034142,148.769409 98.143532,151.747192 
	C98.514252,152.581100 98.756287,152.797821 99.061279,152.944305 
	C99.061279,152.944305 99.069061,152.972778 98.907997,153.290833 
	C96.162186,159.743393 93.577446,165.877930 90.589462,172.006409 
	C87.310326,171.292557 84.304619,170.907227 81.584557,169.812271 
	C75.189941,167.238190 73.565002,161.006729 78.427162,155.732010 
	C82.500084,151.313492 87.570099,147.814087 92.198624,143.907715 
M78.528519,161.966934 
	C78.418739,162.229553 78.288063,162.486740 78.216934,162.759445 
	C78.202835,162.813492 78.417374,162.927170 78.526482,163.013336 
	C78.612587,162.740295 78.698692,162.467255 78.528519,161.966934 
z"/>
<path fill="#96070A" opacity="1.000000" stroke="none" 
	d="
M111.005760,249.034058 
	C104.890945,248.864059 98.776123,248.694061 92.504898,248.057434 
	C92.229858,244.225693 92.873291,240.603058 91.840622,237.546768 
	C89.370438,230.236038 85.923645,223.233536 87.041702,215.181274 
	C89.075050,215.164291 91.108398,215.147324 93.585403,215.579453 
	C94.460258,218.353256 95.785919,220.972595 95.137314,222.941605 
	C93.766838,227.102051 95.582535,228.340714 99.120972,229.204468 
	C99.447853,229.663895 99.692200,229.866547 100.057617,230.344513 
	C103.758179,236.793503 107.381973,242.913788 111.005760,249.034058 
z"/>
<path fill="#09069E" opacity="1.000000" stroke="none" 
	d="
M248.036667,261.088196 
	C242.907166,264.730560 237.777664,268.372925 232.244171,272.047058 
	C231.840179,272.078796 231.858673,271.931580 231.613876,271.674255 
	C230.583740,269.136810 228.598770,266.403015 229.254868,264.667938 
	C230.768921,260.664032 229.925278,257.474854 228.065948,254.134018 
	C228.065948,254.134018 228.065262,253.903107 228.396713,253.783569 
	C233.073425,250.651962 237.418686,247.639877 242.009888,244.890991 
	C244.370117,245.261475 246.484406,245.368744 248.036667,245.447510 
	C248.036667,251.099045 248.036667,256.093628 248.036667,261.088196 
M230.878128,266.660400 
	C230.942200,266.550995 231.006271,266.441589 231.070343,266.332184 
	C230.971100,266.378082 230.871872,266.424011 230.878128,266.660400 
z"/>
<path fill="#1C07CC" opacity="1.000000" stroke="none" 
	d="
M73.027306,152.005402 
	C73.824966,152.250366 74.622627,152.495331 75.637627,153.195694 
	C75.160187,158.919403 73.968353,164.180740 73.894341,169.457748 
	C73.798248,176.309448 74.591522,183.173615 74.983612,190.329346 
	C74.951088,190.824112 74.936935,191.021927 74.922791,191.219742 
	C70.836647,186.028702 66.746376,180.840897 62.672821,175.639999 
	C62.373852,175.258286 61.937992,174.740906 61.999382,174.355713 
	C63.206936,166.779053 64.478760,159.212631 66.268707,151.388428 
	C68.357124,153.019012 69.914330,154.905289 71.390717,156.693680 
	C71.939888,155.120483 72.483597,153.562943 73.027306,152.005402 
z"/>
<path fill="#E00703" opacity="1.000000" stroke="none" 
	d="
M240.145233,205.405273 
	C236.979935,207.871872 233.814606,210.338470 230.263824,212.516708 
	C229.481445,211.318680 229.240875,210.291733 228.661362,209.518982 
	C225.681931,205.546188 224.677872,201.635910 228.141998,197.312027 
	C228.775330,196.521515 228.607834,194.808273 228.335602,193.630646 
	C227.726349,190.995087 226.818298,188.428589 226.031952,185.833969 
	C226.673187,185.631287 227.314438,185.428589 227.955673,185.225906 
	C221.693893,183.027649 222.734879,179.369263 225.271027,175.341644 
	C225.695663,174.667297 225.777786,173.777267 226.352463,173.069244 
	C228.216660,175.250320 229.910950,177.250534 231.240860,179.469162 
	C233.705215,183.580368 236.570099,187.606339 238.118149,192.066925 
	C239.567932,196.244385 239.529022,200.938507 240.145233,205.405273 
z"/>
<path fill="#CB0B0B" opacity="1.000000" stroke="none" 
	d="
M231.887421,272.135986 
	C226.519150,275.169525 221.318268,278.675201 215.630997,280.981354 
	C209.254837,283.566833 202.438644,285.067139 195.403900,286.679749 
	C194.994278,285.888367 194.994659,285.456818 195.310745,284.878998 
	C197.266541,283.955688 198.906616,283.178680 200.546707,282.401672 
	C200.355270,281.948273 200.163849,281.494873 199.972412,281.041473 
	C197.322891,282.029449 194.673370,283.017426 191.680115,283.955261 
	C189.874939,282.660858 188.413498,281.416626 187.285034,280.007111 
	C190.779861,278.629211 193.941681,277.416626 197.473083,276.137085 
	C202.374176,274.065002 206.905716,272.059906 211.837311,270.058685 
	C218.777817,270.685577 225.318253,271.308594 231.858673,271.931580 
	C231.858673,271.931580 231.840179,272.078796 231.887421,272.135986 
M203.626785,280.026917 
	C203.403961,279.568451 203.181137,279.109955 202.958328,278.651489 
	C202.746262,278.833923 202.329666,279.140167 202.353622,279.179779 
	C202.610428,279.604034 202.936874,279.986145 203.626785,280.026917 
z"/>
<path fill="#2101D2" opacity="1.000000" stroke="none" 
	d="
M75.022644,191.534821 
	C74.936935,191.021927 74.951088,190.824112 75.237915,190.000214 
	C75.776367,185.024979 76.042152,180.675827 76.307938,176.326675 
	C76.579216,176.285034 76.850494,176.243378 77.121773,176.201721 
	C78.281639,180.902893 79.441498,185.604065 80.601364,190.305237 
	C81.074181,190.212723 81.547005,190.120224 82.019829,190.027710 
	C81.699600,184.583939 81.379364,179.140167 81.028160,173.169754 
	C85.015381,174.303726 88.007683,175.154755 91.191437,176.225052 
	C91.924385,176.632416 92.465897,176.820511 93.256554,177.008453 
	C93.505707,177.008286 94.003998,177.004272 94.054543,177.357666 
	C95.072090,179.809372 96.039101,181.907715 96.658310,184.064911 
	C94.829628,186.395370 93.524529,188.809158 91.828186,190.906509 
	C89.021370,194.376846 85.962418,197.643265 83.009705,200.995590 
	C80.380638,197.947037 77.751572,194.898483 75.022644,191.534821 
z"/>
<path fill="#CF0503" opacity="1.000000" stroke="none" 
	d="
M240.436707,205.223709 
	C239.529022,200.938507 239.567932,196.244385 238.118149,192.066925 
	C236.570099,187.606339 233.705215,183.580368 231.240860,179.469162 
	C229.910950,177.250534 228.216660,175.250320 226.345795,173.072800 
	C226.004822,172.994019 226.013214,172.981964 226.009766,172.586487 
	C225.675354,170.125366 225.344391,168.059692 225.191956,165.734650 
	C226.946106,164.169556 228.521759,162.863831 230.097412,161.558105 
	C234.389404,166.197388 238.543900,170.895157 239.102646,177.651779 
	C239.178696,178.571579 239.776581,179.490143 240.272369,180.326584 
	C243.793808,186.267624 244.376144,193.086929 246.111023,200.005096 
	C244.339645,201.973206 242.533905,203.507690 240.436707,205.223709 
z"/>
<path fill="#CF0503" opacity="1.000000" stroke="none" 
	d="
M241.763947,244.627777 
	C237.418686,247.639877 233.073425,250.651962 228.398224,253.668137 
	C229.773651,248.802109 231.524384,243.946976 233.140961,239.047562 
	C233.419891,238.202271 233.523941,236.800644 233.039032,236.281219 
	C229.325455,232.303177 230.057281,227.409637 229.936890,222.204437 
	C232.486633,219.717163 235.056442,217.698547 238.267883,215.866028 
	C239.274597,217.601532 239.823746,219.133377 239.973511,220.703323 
	C240.708847,228.412109 241.338013,236.131012 241.930420,244.037369 
	C241.856171,244.228394 241.763931,244.627777 241.763947,244.627777 
z"/>
<path fill="#8B0E14" opacity="1.000000" stroke="none" 
	d="
M86.895447,215.043182 
	C85.923645,223.233536 89.370438,230.236038 91.840622,237.546768 
	C92.873291,240.603058 92.229858,244.225693 92.128517,247.880203 
	C90.555916,248.139557 89.203285,248.109543 87.445282,248.108032 
	C85.367462,246.050476 83.695023,243.964386 81.991470,241.111938 
	C80.770500,236.188950 79.540268,232.043198 78.415161,227.869110 
	C78.074158,226.603973 77.510658,224.321060 77.919518,224.097687 
	C82.173698,221.773666 80.421402,218.273773 80.458939,214.971283 
	C82.724579,214.888733 84.540016,214.855652 86.355461,214.822571 
	C86.355461,214.822556 86.749199,214.905075 86.895447,215.043182 
z"/>
<path fill="#B90806" opacity="1.000000" stroke="none" 
	d="
M243.872345,210.953308 
	C245.978455,209.007355 248.084564,207.061401 250.865829,205.093445 
	C252.281647,205.666992 253.225143,206.126266 253.731140,206.879440 
	C258.168152,213.483826 259.683960,220.949265 259.989288,228.750031 
	C257.180969,231.342514 254.372681,233.935013 251.254059,236.280243 
	C250.528519,233.676086 249.402298,231.172653 249.851456,228.993988 
	C250.691925,224.917282 247.349045,213.487183 243.872345,210.953308 
z"/>
<path fill="#0B1198" opacity="1.000000" stroke="none" 
	d="
M242.009872,244.890991 
	C241.763931,244.627777 241.856171,244.228394 242.249466,243.955292 
	C245.170715,241.657318 247.698654,239.632446 250.261169,237.668793 
	C250.295715,237.729996 250.435257,237.713028 250.435257,237.713028 
	C252.987946,238.027863 255.540634,238.342697 258.957397,238.697754 
	C262.383118,238.900208 264.944763,239.062424 267.506378,239.224640 
	C261.230988,246.442352 254.955597,253.660049 248.358429,260.982971 
	C248.036667,256.093628 248.036667,251.099045 248.036667,245.447510 
	C246.484406,245.368744 244.370117,245.261475 242.009872,244.890991 
z"/>
<path fill="#C00704" opacity="1.000000" stroke="none" 
	d="
M250.226608,237.607574 
	C247.698654,239.632446 245.170715,241.657318 242.323730,243.764267 
	C241.338013,236.131012 240.708847,228.412109 239.973511,220.703323 
	C239.823746,219.133377 239.274597,217.601532 238.563965,215.736786 
	C239.896973,214.004990 241.575546,212.588547 243.563232,211.062714 
	C247.349045,213.487183 250.691925,224.917282 249.851456,228.993988 
	C249.402298,231.172653 250.528519,233.676086 250.950684,236.397827 
	C250.957596,236.762711 250.950027,237.000641 250.720413,237.074219 
	C250.343185,237.266830 250.255127,237.420090 250.226608,237.607574 
z"/>
<path fill="#FA1E04" opacity="1.000000" stroke="none" 
	d="
M219.018646,220.054565 
	C215.304810,222.081711 211.590973,224.108856 207.450287,226.080536 
	C207.023438,226.025040 206.929733,225.940170 206.931305,225.597443 
	C206.791946,223.508072 205.858582,220.983475 206.662582,220.164505 
	C208.844528,217.941925 208.647995,215.896393 207.721130,213.437561 
	C207.515030,212.890823 207.608246,212.231277 207.540695,211.310822 
	C209.063477,211.310822 210.287064,211.310822 211.539139,211.310822 
	C212.061340,208.381577 213.210526,205.632767 212.855057,203.094696 
	C212.267502,198.899384 213.597794,196.111725 217.311600,194.191040 
	C218.398453,195.975082 219.853043,197.580017 219.825165,199.158783 
	C219.745911,203.646973 216.899368,208.249222 220.741440,212.507797 
	C220.903610,212.687531 220.434479,213.390198 220.330429,213.864822 
	C219.878799,215.924911 219.453522,217.990799 219.018646,220.054565 
z"/>
<path fill="#F51602" opacity="1.000000" stroke="none" 
	d="
M219.368713,219.994843 
	C219.453522,217.990799 219.878799,215.924911 220.330429,213.864822 
	C220.434479,213.390198 220.903610,212.687531 220.741440,212.507797 
	C216.899368,208.249222 219.745911,203.646973 219.825165,199.158783 
	C219.853043,197.580017 218.398453,195.975082 217.309479,193.942032 
	C216.998199,193.501968 216.995407,193.003937 216.996613,192.601761 
	C215.994751,189.129959 214.991669,186.060318 213.847260,182.689209 
	C212.812881,180.605865 211.919846,178.824020 211.026794,177.042175 
	C212.602493,175.729172 214.178177,174.416168 216.246063,172.795395 
	C217.159973,172.327576 217.581711,172.167496 218.007202,172.390015 
	C219.109558,176.618973 220.433182,180.419693 221.226349,184.328064 
	C221.741135,186.864731 221.572144,189.560226 221.519760,192.180771 
	C221.501984,193.070511 220.403000,194.131210 220.648270,194.803726 
	C223.034378,201.346512 225.601028,207.823471 228.116241,214.319183 
	C225.317078,216.191162 222.517914,218.063156 219.368713,219.994843 
z"/>
<path fill="#2810CD" opacity="1.000000" stroke="none" 
	d="
M94.003998,177.004272 
	C94.003998,177.004272 93.505707,177.008286 93.061874,176.792084 
	C92.078697,176.385864 91.539337,176.195816 90.999985,176.005783 
	C88.007683,175.154755 85.015381,174.303726 81.028160,173.169754 
	C81.379364,179.140167 81.699600,184.583939 82.019829,190.027710 
	C81.547005,190.120224 81.074181,190.212723 80.601364,190.305237 
	C79.441498,185.604065 78.281639,180.902893 77.121773,176.201721 
	C76.850494,176.243378 76.579216,176.285034 76.307938,176.326675 
	C76.042152,180.675827 75.776367,185.024979 75.256279,189.703278 
	C74.591522,183.173615 73.798248,176.309448 73.894341,169.457748 
	C73.968353,164.180740 75.160187,158.919403 75.925049,153.326553 
	C80.512238,149.086761 85.029350,145.171524 89.850899,141.097992 
	C90.785522,141.729691 91.415726,142.519684 92.122269,143.608688 
	C87.570099,147.814087 82.500084,151.313492 78.427162,155.732010 
	C73.565002,161.006729 75.189941,167.238190 81.584557,169.812271 
	C84.304619,170.907227 87.310326,171.292557 90.796799,172.246155 
	C92.606651,173.660110 93.805916,174.828293 94.877563,176.200684 
	C94.546074,176.660400 94.297424,176.860199 94.003998,177.004272 
z"/>
<path fill="#B1110D" opacity="1.000000" stroke="none" 
	d="
M260.292725,228.636505 
	C259.683960,220.949265 258.168152,213.483826 253.731140,206.879440 
	C253.225143,206.126266 252.281647,205.666992 251.181091,204.998581 
	C251.689301,204.013382 252.557404,203.101059 253.729630,202.097046 
	C255.419281,203.491577 256.804810,204.977798 258.637665,206.943832 
	C260.184418,205.868149 261.982513,204.617630 264.738678,202.700851 
	C265.555969,205.035522 267.268585,207.352478 266.738922,208.903931 
	C265.226868,213.333130 268.006165,215.225647 270.789490,217.746124 
	C267.534882,221.513077 264.065521,225.018021 260.292725,228.636505 
z"/>
<path fill="#EF0E03" opacity="1.000000" stroke="none" 
	d="
M220.546356,227.820770 
	C224.196808,234.457336 223.846756,234.112061 218.137802,239.899948 
	C214.607834,243.478745 212.338974,248.301468 208.998291,252.566803 
	C207.780899,251.668701 207.244858,250.483521 206.327103,249.919983 
	C202.373779,247.492447 203.269455,245.199814 205.777420,242.126724 
	C207.672760,239.804337 208.673660,236.751984 210.256027,233.795288 
	C211.556702,232.820831 212.673981,232.075607 213.791260,231.330383 
	C215.925385,230.185669 218.059494,229.040970 220.546356,227.820770 
z"/>
<path fill="#2805D9" opacity="1.000000" stroke="none" 
	d="
M83.196320,201.270340 
	C85.962418,197.643265 89.021370,194.376846 91.828186,190.906509 
	C93.524529,188.809158 94.829628,186.395370 96.679520,184.432571 
	C97.821114,187.199509 99.646370,191.572235 99.201836,191.816635 
	C95.198502,194.017700 97.305832,197.482742 97.100594,200.242203 
	C96.718529,205.379196 96.906097,210.558563 96.660019,215.780472 
	C96.183899,215.735260 96.006409,215.537994 95.931015,215.248871 
	C91.748314,210.680939 87.565620,206.113007 83.196320,201.270340 
z"/>
<path fill="#4A12D9" opacity="1.000000" stroke="none" 
	d="
M148.361298,286.943909 
	C151.328934,281.502655 149.991013,276.581573 145.204681,271.127655 
	C148.794998,270.634064 151.172150,270.524536 153.423126,269.934082 
	C155.499298,269.389496 157.440033,268.328644 159.733154,267.638062 
	C161.578629,271.918518 160.779892,275.346710 157.370773,277.306824 
	C159.016083,279.993744 160.515701,282.442749 161.616608,285.000061 
	C158.093323,285.741394 154.968781,286.374390 151.844238,287.007385 
	C150.809586,287.016510 149.774933,287.025665 148.361298,286.943909 
z"/>
<path fill="#EF0E03" opacity="1.000000" stroke="none" 
	d="
M228.405792,214.236908 
	C225.601028,207.823471 223.034378,201.346512 220.648270,194.803726 
	C220.403000,194.131210 221.501984,193.070511 221.519760,192.180771 
	C221.572144,189.560226 221.741135,186.864731 221.226349,184.328064 
	C220.433182,180.419693 219.109558,176.618973 218.138901,172.099548 
	C219.140488,170.846298 220.014114,170.266083 220.950195,170.043762 
	C221.504913,173.538055 223.403793,173.948517 226.013214,172.981964 
	C226.013214,172.981964 226.004822,172.994019 226.011490,172.990448 
	C225.777786,173.777267 225.695663,174.667297 225.271027,175.341644 
	C222.734879,179.369263 221.693893,183.027649 227.955673,185.225906 
	C227.314438,185.428589 226.673187,185.631287 226.031952,185.833969 
	C226.818298,188.428589 227.726349,190.995087 228.335602,193.630646 
	C228.607834,194.808273 228.775330,196.521515 228.141998,197.312027 
	C224.677872,201.635910 225.681931,205.546188 228.661362,209.518982 
	C229.240875,210.291733 229.481445,211.318680 229.930115,212.581985 
	C229.552994,213.341949 229.124161,213.748291 228.405792,214.236908 
z"/>
<path fill="#2B07C5" opacity="1.000000" stroke="none" 
	d="
M213.465363,231.169220 
	C212.673981,232.075607 211.556702,232.820831 209.894897,233.828812 
	C204.252396,236.409393 199.154404,238.727219 194.039780,240.575562 
	C194.040329,235.002701 194.057526,229.899292 194.458878,224.815750 
	C197.633881,225.710938 200.424728,226.586288 203.482819,227.645172 
	C204.383545,227.946869 205.017029,228.065018 205.650513,228.183167 
	C208.146820,229.124817 210.643143,230.066437 213.465363,231.169220 
z"/>
<path fill="#81101C" opacity="1.000000" stroke="none" 
	d="
M80.008743,215.020767 
	C80.421402,218.273773 82.173698,221.773666 77.919518,224.097687 
	C77.510658,224.321060 78.074158,226.603973 78.415161,227.869110 
	C79.540268,232.043198 80.770500,236.188950 81.940872,240.781067 
	C77.333649,232.395233 72.745918,223.573914 68.506416,214.325073 
	C69.604736,213.829285 70.354828,213.760971 71.505882,213.789368 
	C74.607483,214.264297 77.308113,214.642532 80.008743,215.020767 
z"/>
<path fill="#2C0BCB" opacity="1.000000" stroke="none" 
	d="
M71.104919,213.692657 
	C70.354828,213.760971 69.604736,213.829285 68.482491,213.958023 
	C65.848824,205.533936 63.587326,197.049408 61.325821,188.564880 
	C61.861279,188.284607 62.396732,188.004333 62.932186,187.724075 
	C67.722786,190.916351 70.055794,196.450058 73.699463,201.105652 
	C72.676186,205.699326 71.890549,209.695999 71.104919,213.692657 
z"/>
<path fill="#BD0B0B" opacity="1.000000" stroke="none" 
	d="
M186.952057,280.172394 
	C188.413498,281.416626 189.874939,282.660858 191.907776,284.187256 
	C193.317795,284.654694 194.156418,284.839996 194.995041,285.025330 
	C194.994659,285.456818 194.994278,285.888367 194.993149,286.643524 
	C187.899612,287.805573 180.806839,288.643982 173.351959,288.884827 
	C172.915131,286.751343 172.840393,285.215363 172.808273,283.505249 
	C172.850906,283.331055 172.952148,282.986969 173.313171,282.980896 
	C174.811920,282.718079 175.949677,282.461304 177.487427,282.194489 
	C180.950241,281.356934 184.013092,280.529388 187.047241,279.820068 
	C187.018539,279.938324 186.952057,280.172394 186.952057,280.172394 
z"/>
<path fill="#FCD11A" opacity="1.000000" stroke="none" 
	d="
M104.133774,88.881737 
	C105.638466,88.965240 106.773712,89.028824 106.886276,89.035126 
	C106.131454,92.130508 105.387253,95.182343 104.591148,98.446968 
	C101.859962,96.402519 98.403091,95.044655 95.436043,98.675468 
	C94.704575,95.471741 94.013725,92.445930 93.386864,89.700363 
	C95.195053,88.459740 97.788475,86.680351 100.524704,84.802986 
	C101.115547,85.543228 102.439941,87.202522 104.133774,88.881737 
z"/>
<path fill="#AE1411" opacity="1.000000" stroke="none" 
	d="
M279.398163,209.198242 
	C278.830505,208.332703 278.065002,207.172958 278.345703,206.386734 
	C278.788513,205.146408 279.933990,204.156952 280.136749,202.137054 
	C277.766205,203.092911 275.395691,204.048767 273.025146,205.004608 
	C272.821289,204.715515 272.617401,204.426422 272.413544,204.137314 
	C274.988708,200.530579 277.408630,196.796616 280.211792,193.376770 
	C281.411957,191.912598 283.409973,191.102371 285.421021,189.992783 
	C285.397522,196.878586 285.458160,203.914200 279.398163,209.198242 
z"/>
<path fill="#FCD11A" opacity="1.000000" stroke="none" 
	d="
M238.700012,84.308746 
	C241.551880,85.884995 241.680481,91.633865 246.218231,89.014084 
	C245.378387,92.206612 244.546738,95.367989 243.719406,98.512932 
	C241.355560,96.479744 238.227158,94.947380 234.926620,98.499062 
	C234.067001,95.275002 233.300049,92.398521 232.730606,90.262810 
	C234.520218,88.494110 236.503082,86.534431 238.700012,84.308746 
z"/>
<path fill="#FCD11A" opacity="1.000000" stroke="none" 
	d="
M176.167175,65.705872 
	C174.991806,68.039169 174.099564,70.157112 173.306793,72.038971 
	C170.691284,72.162514 167.616821,72.307732 164.469696,72.456383 
	C163.936646,70.306709 163.178391,67.248825 162.632843,65.048737 
	C164.855209,63.309380 167.370438,61.340816 169.765167,59.466560 
	C170.057068,63.111851 172.853043,64.579628 176.942368,64.297211 
	C176.948395,64.296791 177.032379,64.595680 176.977325,64.701202 
	C176.831802,64.980049 176.629807,65.229408 176.167175,65.705872 
z"/>
<path fill="#3D0ED2" opacity="1.000000" stroke="none" 
	d="
M71.505890,213.789368 
	C71.890549,209.695999 72.676186,205.699326 73.870728,201.406158 
	C74.279633,201.109665 74.384239,201.107880 74.064926,201.567017 
	C73.521950,204.369171 73.298294,206.712173 73.074631,209.055176 
	C73.716225,209.079300 74.357811,209.103409 74.999405,209.127518 
	C74.999405,206.774918 74.999405,204.422302 74.999405,202.069687 
	C78.693375,206.111435 82.387337,210.153183 86.218384,214.508759 
	C84.540016,214.855652 82.724579,214.888733 80.458939,214.971283 
	C77.308113,214.642532 74.607483,214.264297 71.505890,213.789368 
z"/>
<path fill="#AE1411" opacity="1.000000" stroke="none" 
	d="
M267.759186,239.028656 
	C264.944763,239.062424 262.383118,238.900208 259.431702,238.637619 
	C264.046509,233.828903 269.051147,229.120529 274.055756,224.412155 
	C274.469879,224.729614 274.884033,225.047073 275.298157,225.364532 
	C274.237427,230.505081 270.851135,234.538666 267.759186,239.028656 
z"/>
<path fill="#531DE2" opacity="1.000000" stroke="none" 
	d="
M124.259949,278.158936 
	C124.016762,277.909698 123.985977,277.435913 123.988327,277.198090 
	C131.221786,274.913086 136.987549,278.888519 142.955566,281.755188 
	C144.224060,282.364502 144.949158,284.105011 145.909790,285.689178 
	C138.764343,283.505371 131.633743,280.956757 124.259949,278.158936 
z"/>
<path fill="#A70E07" opacity="1.000000" stroke="none" 
	d="
M95.607925,215.185593 
	C96.006409,215.537994 96.183899,215.735260 96.979309,215.882736 
	C98.678802,216.847412 99.862473,217.770004 101.238899,218.949219 
	C102.643379,220.366272 103.855095,221.526672 104.876007,222.975189 
	C102.788185,225.175903 100.891174,227.088501 98.994156,229.001099 
	C95.582535,228.340714 93.766838,227.102051 95.137314,222.941605 
	C95.785919,220.972595 94.460258,218.353256 94.012131,215.670410 
	C94.425079,215.248932 94.854958,215.185623 95.607925,215.185593 
z"/>
<path fill="#96070A" opacity="1.000000" stroke="none" 
	d="
M172.765640,283.679382 
	C172.840393,285.215363 172.915131,286.751343 172.988968,288.749176 
	C166.073151,288.715332 159.158249,288.219635 152.043793,287.365662 
	C154.968781,286.374390 158.093323,285.741394 162.029449,285.036041 
	C166.149231,284.535583 169.457443,284.107483 172.765640,283.679382 
z"/>
<path fill="#4A12D9" opacity="1.000000" stroke="none" 
	d="
M98.153076,260.312988 
	C99.448532,258.953339 100.854675,257.908356 103.065338,256.265503 
	C104.494392,260.159851 105.661415,263.340118 106.840126,266.908722 
	C103.989143,265.073914 101.126457,262.850800 98.153076,260.312988 
z"/>
<path fill="#2810CD" opacity="1.000000" stroke="none" 
	d="
M72.770416,151.773727 
	C72.483597,153.562943 71.939888,155.120483 71.390717,156.693680 
	C69.914330,154.905289 68.357124,153.019012 66.462143,151.069809 
	C65.996307,150.241623 65.868248,149.476349 65.900253,148.353729 
	C68.211403,149.178253 70.362465,150.360153 72.770416,151.773727 
z"/>
<path fill="#2C0BCB" opacity="1.000000" stroke="none" 
	d="
M74.989609,201.873779 
	C74.999405,204.422302 74.999405,206.774918 74.999405,209.127518 
	C74.357811,209.103409 73.716225,209.079300 73.074631,209.055176 
	C73.298294,206.712173 73.521950,204.369171 74.080399,201.617004 
	C74.714317,201.231094 74.902534,201.387772 74.989609,201.873779 
z"/>
<path fill="#FA1E04" opacity="1.000000" stroke="none" 
	d="
M205.917007,227.988052 
	C205.017029,228.065018 204.383545,227.946869 203.845993,227.465179 
	C204.937851,226.714478 205.933792,226.327316 206.929733,225.940155 
	C206.929733,225.940170 207.023438,226.025040 207.070007,226.067795 
	C206.805542,226.671341 206.494522,227.232147 205.917007,227.988052 
z"/>
<path fill="#B1110D" opacity="1.000000" stroke="none" 
	d="
M273.311279,173.055328 
	C272.817505,172.766769 272.304413,172.452332 271.801910,172.121780 
	C271.796997,172.118546 271.932739,171.901474 272.002808,171.784210 
	C272.366333,172.030014 272.729889,172.275803 273.202087,172.806030 
	C273.310730,173.090439 273.292603,173.028488 273.311279,173.055328 
z"/>
<path fill="#531DE2" opacity="1.000000" stroke="none" 
	d="
M146.109680,286.253235 
	C146.286285,286.029846 146.513580,286.089172 146.797943,286.423737 
	C146.631546,286.624023 146.400009,286.569702 146.109680,286.253235 
z"/>
<path fill="#2904D1" opacity="1.000000" stroke="none" 
	d="
M99.096619,152.738770 
	C98.756287,152.797821 98.514252,152.581100 98.253601,152.064850 
	C98.172028,151.835556 98.651115,151.913376 98.871895,152.015686 
	C99.092674,152.117996 99.131958,152.533249 99.096619,152.738770 
z"/>
<path fill="#B90806" opacity="1.000000" stroke="none" 
	d="
M250.261169,237.668793 
	C250.255127,237.420090 250.343185,237.266830 250.601410,237.071701 
	C250.712036,236.995590 250.658920,237.387177 250.547089,237.550110 
	C250.435257,237.713028 250.295715,237.729996 250.261169,237.668793 
z"/>
<path fill="#3002E0" opacity="1.000000" stroke="none" 
	d="
M138.167694,192.925690 
	C143.942810,196.934647 149.717926,200.943604 155.948288,205.281784 
	C156.948502,206.038834 157.493454,206.466675 157.937531,207.260101 
	C155.637558,208.419830 153.421494,209.170624 151.245346,210.023300 
	C149.792023,210.592743 148.395493,211.307175 146.973557,211.956711 
	C147.158768,212.441086 147.343994,212.925461 147.529221,213.409836 
	C149.513290,213.818085 151.497375,214.226334 154.338348,214.810898 
	C150.147339,218.730698 153.665817,221.161774 155.017365,224.387268 
	C155.370071,228.080322 157.893951,231.858917 152.851624,233.673080 
	C151.942825,231.512436 151.377197,229.561584 150.370636,227.873688 
	C149.151871,225.829880 147.894104,222.862167 146.060776,222.328140 
	C142.180573,221.197876 137.915894,221.198700 133.808441,221.194702 
	C132.974258,221.193893 131.432831,223.209641 131.421509,224.308167 
	C131.363708,229.916870 131.700790,235.529617 131.563004,241.063385 
	C128.434906,239.167999 125.643539,237.350204 122.888229,235.033691 
	C122.924286,229.861603 122.924286,225.188217 122.924286,220.514832 
	C123.137650,220.517426 123.351013,220.520035 123.564377,220.522629 
	C124.615776,224.125916 125.667175,227.729202 126.718575,231.332489 
	C127.003471,231.249908 127.288361,231.167328 127.573250,231.084747 
	C127.165314,225.134796 126.757378,219.184845 126.349442,213.234909 
	C126.038223,213.233994 125.726997,213.233078 125.415779,213.232147 
	C125.134834,214.096191 124.853897,214.960251 124.572952,215.824295 
	C123.664825,212.249084 122.226219,207.546555 123.956802,205.404892 
	C127.861519,200.572662 133.333405,197.006790 138.167694,192.925690 
z"/>
<path fill="#2C02DC" opacity="1.000000" stroke="none" 
	d="
M125.992226,181.888306 
	C129.031021,184.652313 132.069824,187.416321 134.958984,190.635345 
	C132.989563,192.774734 131.122131,194.410858 129.358688,196.152298 
	C123.421974,202.014832 123.449059,202.006653 115.915955,197.677338 
	C114.783241,197.026367 113.412224,196.801117 112.242188,196.201782 
	C109.488075,194.790985 105.666740,193.916733 104.356667,191.632660 
	C102.785034,188.892578 103.165756,184.915436 103.135048,181.470123 
	C103.123772,180.204697 104.055557,178.575394 105.070473,177.723785 
	C107.972618,175.288635 111.138046,173.167236 114.492218,171.070129 
	C118.520424,174.774628 122.256325,178.331467 125.992226,181.888306 
z"/>
<path fill="#3511DE" opacity="1.000000" stroke="none" 
	d="
M114.199921,170.922440 
	C111.138046,173.167236 107.972618,175.288635 105.070473,177.723785 
	C104.055557,178.575394 103.123772,180.204697 103.135048,181.470123 
	C103.165756,184.915436 102.785034,188.892578 104.356667,191.632660 
	C105.666740,193.916733 109.488075,194.790985 112.242188,196.201782 
	C113.412224,196.801117 114.783241,197.026367 115.915955,197.677338 
	C123.449059,202.006653 123.421974,202.014832 129.358688,196.152298 
	C131.122131,194.410858 132.989563,192.774734 135.138306,190.929184 
	C136.288757,191.304230 137.110245,191.840424 138.049713,192.651154 
	C133.333405,197.006790 127.861519,200.572662 123.956802,205.404892 
	C122.226219,207.546555 123.664825,212.249084 124.572952,215.824295 
	C124.853897,214.960251 125.134834,214.096191 125.415779,213.232147 
	C125.726997,213.233078 126.038223,213.233994 126.349442,213.234909 
	C126.757378,219.184845 127.165314,225.134796 127.573250,231.084747 
	C127.288361,231.167328 127.003471,231.249908 126.718575,231.332489 
	C125.667175,227.729202 124.615776,224.125916 123.564377,220.522629 
	C123.351013,220.520035 123.137650,220.517426 122.924286,220.514832 
	C122.924286,225.188217 122.924286,229.861603 122.597878,234.909576 
	C121.441650,234.666000 120.611832,234.047821 119.840302,232.936554 
	C119.931419,225.643982 119.410652,218.784424 120.140457,212.060608 
	C121.007378,204.073486 116.103149,199.859848 105.362663,198.316589 
	C105.362663,201.943283 105.362663,205.572372 105.362663,209.201462 
	C105.083771,209.256836 104.804878,209.312195 104.525986,209.367554 
	C103.502014,206.031998 102.478043,202.696442 101.046143,198.032059 
	C101.046143,205.841461 101.046143,212.267029 101.046143,218.692596 
	C99.862473,217.770004 98.678802,216.847412 97.175842,215.822556 
	C96.906097,210.558563 96.718529,205.379196 97.100594,200.242203 
	C97.305832,197.482742 95.198502,194.017700 99.201836,191.816635 
	C99.646370,191.572235 97.821114,187.199509 97.027313,184.373718 
	C96.039101,181.907715 95.072090,179.809372 94.054543,177.357666 
	C94.297424,176.860199 94.546074,176.660400 95.233803,176.211609 
	C97.716431,176.255310 100.391800,177.422684 101.586472,176.553940 
	C105.098358,174.000076 108.022385,170.637863 111.455185,167.762268 
	C112.555832,168.929077 113.377876,169.925766 114.199921,170.922440 
z"/>
<path fill="#FA2D03" opacity="1.000000" stroke="none" 
	d="
M206.931305,225.597427 
	C205.933792,226.327316 204.937851,226.714478 203.578751,227.281647 
	C200.424728,226.586288 197.633881,225.710938 194.296951,224.604492 
	C193.148071,224.041092 192.545258,223.708801 192.078888,223.054901 
	C193.813843,221.155746 195.412384,219.578171 197.382233,217.987274 
	C202.844910,215.633774 204.912003,209.728104 202.643723,203.578125 
	C203.255951,203.394409 203.907593,203.311050 204.443008,203.016434 
	C205.841614,202.246857 207.189331,201.384827 208.557343,200.559662 
	C207.266357,199.364471 206.162033,197.568771 204.646011,197.097549 
	C201.362686,196.077026 201.725113,194.685974 203.302490,192.435745 
	C205.878510,188.760895 205.027039,186.428894 200.731537,184.894104 
	C203.950287,182.351242 207.169006,179.808365 210.707275,177.153839 
	C211.919846,178.824020 212.812881,180.605865 213.475586,182.705460 
	C209.528687,183.491135 207.823288,185.216675 210.691452,188.441299 
	C212.374863,190.333893 214.867035,191.507126 216.995407,193.003937 
	C216.995407,193.003937 216.998199,193.501968 217.000320,193.750977 
	C213.597794,196.111725 212.267502,198.899384 212.855057,203.094696 
	C213.210526,205.632767 212.061340,208.381577 211.539139,211.310822 
	C210.287064,211.310822 209.063477,211.310822 207.540695,211.310822 
	C207.608246,212.231277 207.515030,212.890823 207.721130,213.437561 
	C208.647995,215.896393 208.844528,217.941925 206.662582,220.164505 
	C205.858582,220.983475 206.791946,223.508072 206.931305,225.597427 
z"/>
<path fill="#FB4602" opacity="1.000000" stroke="none" 
	d="
M197.010925,218.000610 
	C195.412384,219.578171 193.813843,221.155746 191.711487,222.966568 
	C188.143524,221.811157 185.079361,220.422485 182.026337,218.695709 
	C183.341980,217.284470 184.750214,216.313156 185.926529,215.114273 
	C187.680634,213.326523 189.382935,211.462662 190.889740,209.466934 
	C191.803192,208.257080 193.057999,206.618362 192.861465,205.378021 
	C192.085281,200.480087 190.795959,195.663467 189.696991,190.816711 
	C192.584946,188.984650 195.472885,187.152588 198.689941,185.631683 
	C200.579926,195.152374 202.004272,204.339600 194.194962,212.074478 
	C195.961197,212.375656 197.190079,212.585205 198.935303,212.882812 
	C197.009018,214.425385 195.661758,215.504257 193.721252,217.058228 
	C195.301910,217.511032 196.156418,217.755829 197.010925,218.000610 
z"/>
<path fill="#FB5402" opacity="1.000000" stroke="none" 
	d="
M189.362183,190.890640 
	C190.795959,195.663467 192.085281,200.480087 192.861465,205.378021 
	C193.057999,206.618362 191.803192,208.257080 190.889740,209.466934 
	C189.382935,211.462662 187.680634,213.326523 185.926529,215.114273 
	C184.750214,216.313156 183.341980,217.284470 181.697968,218.682022 
	C180.926498,218.954193 180.494522,218.901947 179.837601,218.599792 
	C177.411865,217.182404 175.211105,216.014877 173.101196,214.525238 
	C174.593521,213.155106 175.994980,212.107056 176.483063,211.742065 
	C177.108521,208.462067 176.890274,205.455185 178.251450,203.619339 
	C179.652267,201.729980 182.593216,200.982513 185.076797,199.616257 
	C184.198517,198.563354 183.952560,198.120865 183.581116,197.851212 
	C182.522659,197.082764 181.413116,196.384705 180.323669,195.658951 
	C183.224915,194.094162 186.126144,192.529373 189.362183,190.890640 
z"/>
<path fill="#2904D1" opacity="1.000000" stroke="none" 
	d="
M111.176590,167.592148 
	C108.022385,170.637863 105.098358,174.000076 101.586472,176.553940 
	C100.391800,177.422684 97.716431,176.255310 95.361420,176.007401 
	C93.805916,174.828293 92.606651,173.660110 91.200043,172.252182 
	C93.577446,165.877930 96.162186,159.743393 98.919144,153.300507 
	C102.135803,156.563675 105.180252,160.135208 108.600166,164.176605 
	C109.315735,164.793259 109.655838,164.940033 109.995934,165.086807 
	C109.995934,165.086807 109.985222,165.015854 109.893364,165.320145 
	C110.259865,166.280334 110.718224,166.936249 111.176590,167.592148 
z"/>
<path fill="#FA6404" opacity="1.000000" stroke="none" 
	d="
M180.002762,195.737045 
	C181.413116,196.384705 182.522659,197.082764 183.581116,197.851212 
	C183.952560,198.120865 184.198517,198.563354 185.076797,199.616257 
	C182.593216,200.982513 179.652267,201.729980 178.251450,203.619339 
	C176.890274,205.455185 177.108521,208.462067 176.483063,211.742065 
	C175.994980,212.107056 174.593521,213.155106 172.766174,214.492340 
	C170.922272,214.138092 169.504211,213.494644 167.890152,212.575958 
	C164.475571,210.498657 161.256989,208.696579 158.038422,206.894501 
	C157.493454,206.466675 156.948502,206.038834 156.294220,205.375504 
	C164.017212,202.031708 171.849533,198.923431 180.002762,195.737045 
z"/>
<path fill="#FB3901" opacity="1.000000" stroke="none" 
	d="
M197.382233,217.987274 
	C196.156418,217.755829 195.301910,217.511032 193.721252,217.058228 
	C195.661758,215.504257 197.009018,214.425385 198.935303,212.882812 
	C197.190079,212.585205 195.961197,212.375656 194.194962,212.074478 
	C202.004272,204.339600 200.579926,195.152374 199.018250,185.549957 
	C199.393417,185.058350 199.769394,184.959595 200.438446,184.877472 
	C205.027039,186.428894 205.878510,188.760895 203.302490,192.435745 
	C201.725113,194.685974 201.362686,196.077026 204.646011,197.097549 
	C206.162033,197.568771 207.266357,199.364471 208.557343,200.559662 
	C207.189331,201.384827 205.841614,202.246857 204.443008,203.016434 
	C203.907593,203.311050 203.255951,203.394409 202.643723,203.578125 
	C204.912003,209.728104 202.844910,215.633774 197.382233,217.987274 
z"/>
<path fill="#F5EBF4" opacity="1.000000" stroke="none" 
	d="
M111.455185,167.762268 
	C110.718224,166.936249 110.259865,166.280334 109.858147,165.326996 
	C116.132133,167.986542 122.349472,170.943542 128.679779,173.954269 
	C127.680519,176.822052 126.923294,178.995224 126.079147,181.528351 
	C122.256325,178.331467 118.520424,174.774628 114.492218,171.070129 
	C113.377876,169.925766 112.555832,168.929077 111.455185,167.762268 
z"/>
<path fill="#F5EBF4" opacity="1.000000" stroke="none" 
	d="
M220.887756,169.685883 
	C220.014114,170.266083 219.140488,170.846298 218.135147,171.716980 
	C217.581711,172.167496 217.159973,172.327576 216.400299,172.531815 
	C214.379532,170.344589 214.311325,168.613632 217.060883,166.953751 
	C222.300980,163.790344 227.367096,160.338760 232.867752,157.054016 
	C232.306717,158.383347 231.383377,159.665512 230.278732,161.252884 
	C228.521759,162.863831 226.946106,164.169556 224.877533,165.787659 
	C223.218979,167.295303 222.053375,168.490585 220.887756,169.685883 
z"/>
<path fill="#F5EBF4" opacity="1.000000" stroke="none" 
	d="
M109.918640,164.801025 
	C109.655838,164.940033 109.315735,164.793259 108.874649,164.355576 
	C109.129547,164.214859 109.485443,164.365051 109.918640,164.801025 
z"/>
<path fill="#3D0ED2" opacity="1.000000" stroke="none" 
	d="
M172.808273,283.505219 
	C169.457443,284.107483 166.149231,284.535583 162.428192,284.927734 
	C160.515701,282.442749 159.016083,279.993744 157.370773,277.306824 
	C160.779892,275.346710 161.578629,271.918518 160.005920,267.392273 
	C159.991180,266.545380 159.996399,266.087067 160.351868,265.289429 
	C161.804642,265.265076 162.907166,265.580048 164.188660,266.058044 
	C164.657166,266.385559 164.879456,266.615204 165.023773,267.309570 
	C163.995819,272.545929 168.176270,272.084137 169.833069,272.613159 
	C171.046112,276.647644 171.999130,279.817291 172.952148,282.986969 
	C172.952148,282.986969 172.850906,283.331055 172.808273,283.505219 
z"/>
<path fill="#CB0B0B" opacity="1.000000" stroke="none" 
	d="
M164.009689,265.894989 
	C162.907166,265.580048 161.804642,265.265076 160.354706,264.945740 
	C154.238953,262.158661 148.470612,259.375916 142.836121,256.141479 
	C146.892380,254.895432 150.814758,254.101105 155.166260,253.257629 
	C157.018753,253.076767 158.442139,252.945053 159.945847,253.179352 
	C161.351212,256.364502 162.676239,259.183624 163.999756,262.392029 
	C164.002075,263.819214 164.005875,264.857117 164.009689,265.894989 
z"/>
<path fill="#F5EBF4" opacity="1.000000" stroke="none" 
	d="
M154.737137,253.306763 
	C150.814758,254.101105 146.892380,254.895432 142.560089,255.879227 
	C138.701065,254.341309 135.251907,252.613937 131.460739,250.794617 
	C130.727600,250.331421 130.336472,249.960190 130.219330,249.258682 
	C134.032455,248.268326 137.571564,247.608246 141.451752,247.031189 
	C144.283890,248.194901 146.774994,249.275604 149.520386,250.599777 
	C151.428818,251.664398 153.082977,252.485580 154.737137,253.306763 
z"/>
<path fill="#B1110D" opacity="1.000000" stroke="none" 
	d="
M262.382141,164.012604 
	C261.319977,162.218063 260.426849,160.496262 260.005554,158.665878 
	C259.720581,157.427872 260.099701,156.036987 260.181763,154.714493 
	C261.132446,155.305801 262.363068,155.690094 262.981812,156.526871 
	C264.913361,159.139099 266.613556,161.922379 268.695679,164.821625 
	C268.492645,166.237137 267.997406,167.470352 267.502167,168.703568 
	C266.672455,167.857574 265.854126,167.000076 265.009644,166.169083 
	C264.272369,165.443588 263.505737,164.747955 262.382141,164.012604 
z"/>
<path fill="#B1110D" opacity="1.000000" stroke="none" 
	d="
M260.011108,162.255798 
	C260.347229,162.209885 260.430054,162.466904 260.135742,162.882599 
	C260.010162,162.979645 260.009369,162.497070 260.011108,162.255798 
z"/>
<path fill="#B20A06" opacity="1.000000" stroke="none" 
	d="
M111.458572,249.125458 
	C107.381973,242.913788 103.758179,236.793503 100.483795,230.338898 
	C104.352386,229.283020 107.871590,228.561478 111.692810,227.931290 
	C113.316048,229.086014 114.637260,230.149368 115.972305,231.599503 
	C116.723045,234.102631 117.348473,236.266281 118.221565,238.324890 
	C119.736725,241.897369 121.405067,245.404907 123.009186,248.939667 
	C119.309921,249.032059 115.610657,249.124466 111.458572,249.125458 
z"/>
<path fill="#CB0B0B" opacity="1.000000" stroke="none" 
	d="
M123.422501,249.012466 
	C121.405067,245.404907 119.736725,241.897369 118.221565,238.324890 
	C117.348473,236.266281 116.723045,234.102631 116.281624,231.687393 
	C117.645416,232.068893 118.713722,232.749268 119.782021,233.429642 
	C120.611832,234.047821 121.441650,234.666000 122.561821,235.408295 
	C125.643539,237.350204 128.434906,239.167999 131.753296,241.346786 
	C135.223785,243.454559 138.167236,245.201355 141.110687,246.948166 
	C137.571564,247.608246 134.032455,248.268326 130.072479,249.026764 
	C127.713028,249.111847 125.774422,249.098557 123.422501,249.012466 
z"/>
<path fill="#E61104" opacity="1.000000" stroke="none" 
	d="
M209.034042,254.993210 
	C211.067093,255.235641 213.100159,255.478073 215.414658,255.754059 
	C213.743744,258.575195 214.391525,259.922241 217.900742,259.460205 
	C213.032379,262.356903 208.066788,264.958618 202.778488,267.659790 
	C197.531830,269.656586 192.607880,271.553925 187.317322,273.386505 
	C185.280106,272.813263 183.609482,272.304779 181.768875,271.635681 
	C181.318893,271.294800 181.016754,271.242889 180.699768,271.350525 
	C180.707031,271.381775 180.642914,271.383545 180.775421,271.000122 
	C181.269028,269.082825 181.630127,267.548950 182.340805,265.947388 
	C185.368271,264.889526 185.038788,263.271576 183.859879,261.205505 
	C182.018219,257.977814 183.148514,255.870529 186.659790,254.966263 
	C188.084412,254.599396 189.535614,254.335800 191.105133,254.226929 
	C191.438248,254.682648 191.681488,254.888763 192.027496,255.400146 
	C193.485611,257.050476 194.881500,258.347717 196.277374,259.644958 
	C196.738617,257.512848 197.199844,255.380722 197.944351,251.939133 
	C199.443405,253.300507 200.761490,254.593857 202.182465,255.762054 
	C203.733841,257.037476 205.380493,258.196991 206.985611,259.407043 
	C207.668427,257.935760 208.351242,256.464478 209.034042,254.993210 
z"/>
<path fill="#F31D05" opacity="1.000000" stroke="none" 
	d="
M209.026138,254.661713 
	C208.351242,256.464478 207.668427,257.935760 206.985611,259.407043 
	C205.380493,258.196991 203.733841,257.037476 202.182465,255.762054 
	C200.761490,254.593857 199.443405,253.300507 197.944351,251.939133 
	C197.199844,255.380722 196.738617,257.512848 196.277374,259.644958 
	C194.881500,258.347717 193.485611,257.050476 192.361359,255.334045 
	C195.295273,254.045334 194.795212,252.609955 193.504913,250.808975 
	C191.899048,248.567566 190.473572,246.196930 189.199005,243.646606 
	C190.970673,242.622437 192.513550,241.833740 194.056427,241.045044 
	C199.154404,238.727219 204.252396,236.409393 209.711502,234.058044 
	C208.673660,236.751984 207.672760,239.804337 205.777420,242.126724 
	C203.269455,245.199814 202.373779,247.492447 206.327103,249.919983 
	C207.244858,250.483521 207.780899,251.668701 208.746292,252.785828 
	C209.006073,253.445953 209.012146,253.888077 209.026138,254.661713 
z"/>
<path fill="#1F0AA9" opacity="1.000000" stroke="none" 
	d="
M203.101196,267.560333 
	C208.066788,264.958618 213.032379,262.356903 218.229446,259.482605 
	C221.440369,257.571991 224.419815,255.933899 227.732605,254.214905 
	C229.925278,257.474854 230.768921,260.664032 229.254868,264.667938 
	C228.598770,266.403015 230.583740,269.136810 231.613876,271.674286 
	C225.318253,271.308594 218.777817,270.685577 211.445084,269.898743 
	C208.135574,269.010040 205.618378,268.285187 203.101196,267.560333 
z"/>
<path fill="#2810CD" opacity="1.000000" stroke="none" 
	d="
M78.656662,162.080566 
	C78.698692,162.467255 78.612587,162.740295 78.526482,163.013336 
	C78.417374,162.927170 78.202835,162.813492 78.216934,162.759445 
	C78.288063,162.486740 78.418739,162.229553 78.656662,162.080566 
z"/>
<path fill="#BD0B0B" opacity="1.000000" stroke="none" 
	d="
M111.390785,227.839920 
	C107.871590,228.561478 104.352386,229.283020 100.407013,230.010193 
	C99.692200,229.866547 99.447853,229.663895 99.120979,229.204468 
	C100.891174,227.088501 102.788185,225.175903 105.194595,223.106979 
	C107.599586,224.580414 109.495186,226.210175 111.390785,227.839920 
z"/>
<path fill="#1F0AA9" opacity="1.000000" stroke="none" 
	d="
M230.825378,266.565155 
	C230.871872,266.424011 230.971100,266.378082 231.070343,266.332184 
	C231.006271,266.441589 230.942200,266.550995 230.825378,266.565155 
z"/>
<path fill="#F5EBF4" opacity="1.000000" stroke="none" 
	d="
M202.778488,267.659790 
	C205.618378,268.285187 208.135574,269.010040 211.045013,269.894836 
	C206.905716,272.059906 202.374176,274.065002 197.086670,275.992340 
	C193.649918,275.328003 190.969131,274.741486 188.244980,273.998474 
	C188.048920,273.685425 187.876358,273.555206 187.683929,273.451263 
	C192.607880,271.553925 197.531830,269.656586 202.778488,267.659790 
z"/>
<path fill="#1F0AA9" opacity="1.000000" stroke="none" 
	d="
M188.288361,274.154968 
	C190.969131,274.741486 193.649918,275.328003 196.717102,276.059296 
	C193.941681,277.416626 190.779861,278.629211 187.285034,280.007111 
	C186.952057,280.172394 187.018539,279.938324 187.033035,279.412048 
	C187.461136,277.308807 187.874741,275.731903 188.288361,274.154968 
z"/>
<path fill="#D21A01" opacity="1.000000" stroke="none" 
	d="
M195.310745,284.879028 
	C194.156418,284.839996 193.317795,284.654694 192.251526,284.237396 
	C194.673370,283.017426 197.322891,282.029449 199.972412,281.041473 
	C200.163849,281.494873 200.355270,281.948273 200.546707,282.401672 
	C198.906616,283.178680 197.266541,283.955688 195.310745,284.879028 
z"/>
<path fill="#D21A01" opacity="1.000000" stroke="none" 
	d="
M203.435516,280.203369 
	C202.936874,279.986145 202.610428,279.604034 202.353622,279.179779 
	C202.329666,279.140167 202.746262,278.833923 202.958328,278.651489 
	C203.181137,279.109955 203.403961,279.568451 203.435516,280.203369 
z"/>
<path fill="#3511DE" opacity="1.000000" stroke="none" 
	d="
M91.191437,176.225052 
	C91.539337,176.195816 92.078697,176.385864 92.812729,176.792267 
	C92.465897,176.820511 91.924385,176.632416 91.191437,176.225052 
z"/>
<path fill="#E00703" opacity="1.000000" stroke="none" 
	d="
M220.950195,170.043762 
	C222.053375,168.490585 223.218979,167.295303 224.699005,166.047028 
	C225.344391,168.059692 225.675354,170.125366 226.009766,172.586487 
	C223.403793,173.948517 221.504913,173.538055 220.950195,170.043762 
z"/>
<path fill="#FA1E04" opacity="1.000000" stroke="none" 
	d="
M216.996613,192.601761 
	C214.867035,191.507126 212.374863,190.333893 210.691452,188.441299 
	C207.823288,185.216675 209.528687,183.491135 213.616913,183.006958 
	C214.991669,186.060318 215.994751,189.129959 216.996613,192.601761 
z"/>
<path fill="#2F02D1" opacity="1.000000" stroke="none" 
	d="
M194.039795,240.575577 
	C192.513550,241.833740 190.970673,242.622437 188.857651,243.645142 
	C187.205978,244.194427 186.124451,244.509720 184.863480,244.519257 
	C183.783264,240.816467 182.882477,237.419434 181.985687,233.596802 
	C181.347305,228.397369 180.704941,223.623535 180.062561,218.849686 
	C180.494522,218.901947 180.926498,218.954193 181.686829,219.020142 
	C185.079361,220.422485 188.143524,221.811157 191.575073,223.288177 
	C192.545258,223.708801 193.148071,224.041092 193.912796,224.584641 
	C194.057526,229.899292 194.040329,235.002701 194.039795,240.575577 
z"/>
<path fill="#3516C3" opacity="1.000000" stroke="none" 
	d="
M188.244980,273.998474 
	C187.874741,275.731903 187.461136,277.308807 187.061737,279.293793 
	C184.013092,280.529388 180.950241,281.356934 177.455353,281.791016 
	C176.011276,277.603180 174.999252,273.808746 174.370453,270.019897 
	C176.716751,270.478180 178.679825,270.930878 180.642914,271.383545 
	C180.642914,271.383545 180.707031,271.381775 180.851868,271.539337 
	C180.996719,271.696899 181.457687,271.842499 181.457687,271.842499 
	C181.457687,271.842499 181.938858,271.796326 181.938858,271.796326 
	C183.609482,272.304779 185.280106,272.813263 187.317322,273.386505 
	C187.876358,273.555206 188.048920,273.685425 188.244980,273.998474 
z"/>
<path fill="#2F02D1" opacity="1.000000" stroke="none" 
	d="
M173.987228,270.014343 
	C174.999252,273.808746 176.011276,277.603180 177.055359,281.801025 
	C175.949677,282.461304 174.811920,282.718079 173.313171,282.980896 
	C171.999130,279.817291 171.046112,276.647644 169.833069,272.613159 
	C168.176270,272.084137 163.995819,272.545929 165.381500,267.386505 
	C168.495697,268.047363 171.241455,269.030853 173.987228,270.014343 
z"/>
<path fill="#2901DF" opacity="1.000000" stroke="none" 
	d="
M111.692810,227.931290 
	C109.495186,226.210175 107.599586,224.580414 105.385406,222.818878 
	C103.855095,221.526672 102.643379,220.366272 101.238899,218.949219 
	C101.046143,212.267029 101.046143,205.841461 101.046143,198.032059 
	C102.478043,202.696442 103.502014,206.031998 104.525986,209.367554 
	C104.804878,209.312195 105.083771,209.256836 105.362663,209.201462 
	C105.362663,205.572372 105.362663,201.943283 105.362663,198.316589 
	C116.103149,199.859848 121.007378,204.073486 120.140457,212.060608 
	C119.410652,218.784424 119.931419,225.643982 119.840309,232.936539 
	C118.713722,232.749268 117.645416,232.068893 116.267792,231.300629 
	C114.637260,230.149368 113.316048,229.086014 111.692810,227.931290 
z"/>
<path fill="#3709E1" opacity="1.000000" stroke="none" 
	d="
M141.451752,247.031189 
	C138.167236,245.201355 135.223785,243.454559 132.090027,241.424362 
	C131.700790,235.529617 131.363708,229.916870 131.421509,224.308167 
	C131.432831,223.209641 132.974258,221.193893 133.808441,221.194702 
	C137.915894,221.198700 142.180573,221.197876 146.060776,222.328140 
	C147.894104,222.862167 149.151871,225.829880 150.370636,227.873688 
	C151.377197,229.561584 151.942825,231.512436 153.000320,234.001648 
	C154.771805,238.449905 156.246826,242.243271 157.849518,246.364975 
	C154.832321,247.767990 152.049210,249.062149 149.266098,250.356323 
	C146.774994,249.275604 144.283890,248.194901 141.451752,247.031189 
z"/>
<path fill="#3802DE" opacity="1.000000" stroke="none" 
	d="
M149.520386,250.599762 
	C152.049210,249.062149 154.832321,247.767990 157.849518,246.364975 
	C156.246826,242.243271 154.771805,238.449905 153.148102,234.327972 
	C157.893951,231.858917 155.370071,228.080322 155.159958,224.086273 
	C156.519958,222.263779 157.754120,221.139862 159.037689,220.109833 
	C159.087082,220.203690 159.349777,220.212067 159.349777,220.212067 
	C159.349777,220.212067 159.016830,219.987534 159.029831,219.641113 
	C161.478180,216.148651 159.711823,213.810349 157.113586,211.638260 
	C161.197952,208.297348 161.046875,213.491852 163.014435,214.363327 
	C164.685806,218.483505 166.346252,222.237305 167.695984,225.994095 
	C166.655029,226.481873 165.459351,226.826828 165.265335,227.472672 
	C162.886017,235.393158 162.997375,243.063675 167.908997,250.304993 
	C167.782257,250.510056 167.523605,250.916901 167.160065,250.890030 
	C164.486206,251.513214 162.175858,252.163284 159.865524,252.813354 
	C158.442139,252.945053 157.018753,253.076767 155.166260,253.257614 
	C153.082977,252.485580 151.428818,251.664398 149.520386,250.599762 
z"/>
<path fill="#3E0BDA" opacity="1.000000" stroke="none" 
	d="
M163.003494,213.996948 
	C161.046875,213.491852 161.197952,208.297348 157.113586,211.638260 
	C159.711823,213.810349 161.478180,216.148651 159.021698,219.647308 
	C159.000549,219.999954 158.988297,220.015976 158.988281,220.015961 
	C157.754120,221.139862 156.519958,222.263779 155.143204,223.688675 
	C153.665817,221.161774 150.147339,218.730698 154.338348,214.810898 
	C151.497375,214.226334 149.513290,213.818085 147.529221,213.409836 
	C147.343994,212.925461 147.158768,212.441086 146.973557,211.956711 
	C148.395493,211.307175 149.792023,210.592743 151.245346,210.023300 
	C153.421494,209.170624 155.637558,208.419830 157.937531,207.260101 
	C161.256989,208.696579 164.475571,210.498657 167.616211,212.840912 
	C166.026672,213.586395 164.515091,213.791672 163.003494,213.996948 
z"/>
<path fill="#3202D9" opacity="1.000000" stroke="none" 
	d="
M163.014435,214.363327 
	C164.515091,213.791672 166.026672,213.586395 167.812225,213.116150 
	C169.504211,213.494644 170.922272,214.138092 172.675323,214.814453 
	C175.211105,216.014877 177.411865,217.182404 179.837601,218.599792 
	C180.704941,223.623535 181.347305,228.397369 181.653564,233.511261 
	C178.185791,229.020920 174.950302,224.366302 168.006714,225.991089 
	C166.346252,222.237305 164.685806,218.483505 163.014435,214.363327 
z"/>
<path fill="#D70C08" opacity="1.000000" stroke="none" 
	d="
M174.370453,270.019897 
	C171.241455,269.030853 168.495697,268.047363 165.392197,266.986938 
	C164.879456,266.615204 164.657166,266.385559 164.188660,266.058044 
	C164.005875,264.857117 164.002075,263.819214 164.333939,262.436554 
	C169.431549,260.028168 174.216782,262.085724 179.129059,262.299622 
	C180.175842,263.730621 181.083542,264.872864 181.991226,266.015106 
	C181.630127,267.548950 181.269028,269.082825 180.775421,271.000122 
	C178.679825,270.930878 176.716751,270.478180 174.370453,270.019897 
z"/>
<path fill="#E61104" opacity="1.000000" stroke="none" 
	d="
M178.989960,262.010834 
	C174.216782,262.085724 169.431549,260.028168 164.335449,262.047241 
	C162.676239,259.183624 161.351212,256.364502 159.945847,253.179352 
	C162.175858,252.163284 164.486206,251.513214 167.584854,250.901260 
	C175.503860,251.185593 176.998428,256.836487 178.989960,262.010834 
z"/>
<path fill="#F31D05" opacity="1.000000" stroke="none" 
	d="
M179.129059,262.299622 
	C176.998428,256.836487 175.503860,251.185593 167.948395,250.928131 
	C167.523605,250.916901 167.782257,250.510056 168.303894,250.313904 
	C173.800522,248.715042 178.775497,247.312332 184.135834,245.940338 
	C189.513138,246.379532 188.966721,251.225754 190.974716,254.025177 
	C189.535614,254.335800 188.084412,254.599396 186.659790,254.966263 
	C183.148514,255.870529 182.018219,257.977814 183.859879,261.205505 
	C185.038788,263.271576 185.368271,264.889526 182.340805,265.947388 
	C181.083542,264.872864 180.175842,263.730621 179.129059,262.299622 
z"/>
<path fill="#FA2D03" opacity="1.000000" stroke="none" 
	d="
M191.105133,254.226929 
	C188.966721,251.225754 189.513138,246.379532 184.316864,245.721741 
	C184.422668,245.256622 184.732788,245.040817 185.042908,244.825012 
	C186.124451,244.509720 187.205978,244.194427 188.628845,243.880615 
	C190.473572,246.196930 191.899048,248.567566 193.504913,250.808975 
	C194.795212,252.609955 195.295273,254.045334 192.299149,254.980957 
	C191.681488,254.888763 191.438248,254.682648 191.105133,254.226929 
z"/>
<path fill="#D70C08" opacity="1.000000" stroke="none" 
	d="
M181.768875,271.635681 
	C181.938858,271.796326 181.457687,271.842499 181.457687,271.842499 
	C181.457687,271.842499 180.996719,271.696899 180.844604,271.508118 
	C181.016754,271.242889 181.318893,271.294800 181.768875,271.635681 
z"/>
<path fill="#3E0BDA" opacity="1.000000" stroke="none" 
	d="
M184.863480,244.519257 
	C184.732788,245.040817 184.422668,245.256622 183.931519,245.691025 
	C178.775497,247.312332 173.800522,248.715042 168.430634,250.108856 
	C162.997375,243.063675 162.886017,235.393158 165.265335,227.472672 
	C165.459351,226.826828 166.655029,226.481873 167.695984,225.994095 
	C174.950302,224.366302 178.185791,229.020920 181.649582,233.936859 
	C182.882477,237.419434 183.783264,240.816467 184.863480,244.519257 
M177.492569,231.536942 
	C177.492569,231.536942 177.468948,231.483093 177.492569,231.536942 
z"/>
<path fill="#3E0BDA" opacity="1.000000" stroke="none" 
	d="
M159.008698,219.993744 
	C159.016830,219.987534 159.349777,220.212067 159.349777,220.212067 
	C159.349777,220.212067 159.087082,220.203690 159.037689,220.109833 
	C158.988297,220.015976 159.000549,219.999954 159.008698,219.993744 
z"/>
<path fill="#3202D9" opacity="1.000000" stroke="none" 
	d="
M177.480759,231.510010 
	C177.468948,231.483093 177.492569,231.536942 177.480759,231.510010 
z"/>
</svg>