<?xml version="1.0" encoding="UTF-8"?>
<svg version="1.1" xmlns="http://www.w3.org/2000/svg" width="420" height="420">
<path d="M0 0 C0.8470752 0.05075684 1.69415039 0.10151367 2.56689453 0.15380859 C40.59283254 2.68307339 76.84214081 15.75779243 103.80859375 43.49609375 C119.26121938 61.15230236 127.30253572 82.48199392 126 106 C122.84927412 131.39271451 108.97569331 152.37484112 89 168 C53.99812983 194.17550018 8.66967034 201.99444119 -34 196 C-66.67074259 190.8131387 -101.42275291 176.04196743 -122 149 C-127.85815246 140.75299011 -132.55076268 132.56009084 -136 123 C-136.46019531 121.7625 -136.46019531 121.7625 -136.9296875 120.5 C-143.61659379 101.64929275 -140.0299368 81.75038662 -132 64 C-131.49839585 62.68811223 -130.99811642 61.37571601 -130.5 60.0625 C-128.78699732 56.56511954 -126.81246552 54.68462618 -124 52 C-122.87628409 50.59878945 -121.77387661 49.18035462 -120.6875 47.75 C-119.46106757 46.16454782 -118.23186326 44.58123624 -117 43 C-116.42765625 42.26394531 -115.8553125 41.52789062 -115.265625 40.76953125 C-109.50532986 33.81532878 -102.49262197 28.89679847 -95 24 C-94.37609375 23.59185059 -93.7521875 23.18370117 -93.109375 22.76318359 C-84.73646114 17.35928077 -76.4629401 13.23402526 -67 10 C-65.98035156 9.59265625 -64.96070313 9.1853125 -63.91015625 8.765625 C-43.92674995 1.21063825 -21.2318174 -1.31856893 0 0 Z " fill="#050404" transform="translate(212,107)"/>
<path d="M0 0 C0.8470752 0.05075684 1.69415039 0.10151367 2.56689453 0.15380859 C40.59283254 2.68307339 76.84214081 15.75779243 103.80859375 43.49609375 C119.26121938 61.15230236 127.30253572 82.48199392 126 106 C122.84927412 131.39271451 108.97569331 152.37484112 89 168 C53.99812983 194.17550018 8.66967034 201.99444119 -34 196 C-66.67074259 190.8131387 -101.42275291 176.04196743 -122 149 C-127.85815246 140.75299011 -132.55076268 132.56009084 -136 123 C-136.46019531 121.7625 -136.46019531 121.7625 -136.9296875 120.5 C-143.61659379 101.64929275 -140.0299368 81.75038662 -132 64 C-131.49839585 62.68811223 -130.99811642 61.37571601 -130.5 60.0625 C-128.78699732 56.56511954 -126.81246552 54.68462618 -124 52 C-122.87628409 50.59878945 -121.77387661 49.18035462 -120.6875 47.75 C-119.46106757 46.16454782 -118.23186326 44.58123624 -117 43 C-116.42765625 42.26394531 -115.8553125 41.52789062 -115.265625 40.76953125 C-109.50532986 33.81532878 -102.49262197 28.89679847 -95 24 C-94.37609375 23.59185059 -93.7521875 23.18370117 -93.109375 22.76318359 C-84.73646114 17.35928077 -76.4629401 13.23402526 -67 10 C-65.98035156 9.59265625 -64.96070313 9.1853125 -63.91015625 8.765625 C-43.92674995 1.21063825 -21.2318174 -1.31856893 0 0 Z M-45 10 C-46.06613525 10.24024902 -46.06613525 10.24024902 -47.15380859 10.48535156 C-77.05188992 17.31298613 -106.56410466 34.07885657 -123.1875 60.4375 C-126.20431245 65.4985232 -128.96247894 70.46817955 -131 76 C-131.29777344 76.74507813 -131.59554687 77.49015625 -131.90234375 78.2578125 C-137.7190315 95.35941057 -134.32106858 115.20397691 -126.875 131.1875 C-112.67099019 157.86183961 -86.61533758 175.65195149 -58.26171875 184.7578125 C-50.9515474 186.9598553 -43.50797735 188.63126766 -36 190 C-35.05423096 190.17732666 -34.10846191 190.35465332 -33.1340332 190.53735352 C-24.30983134 192.0576867 -15.61488827 192.43913096 -6.6875 192.4375 C-5.94832336 192.43889984 -5.20914673 192.44029968 -4.4475708 192.44174194 C9.17719901 192.42067139 21.84824888 190.67271015 35 187 C35.75893555 186.79713379 36.51787109 186.59426758 37.29980469 186.38525391 C57.25978757 180.9871293 76.59220295 171.9182215 92 158 C92.85335937 157.22914063 93.70671875 156.45828125 94.5859375 155.6640625 C109.15446943 141.8127506 119.47788137 124.12310465 120.2109375 103.8515625 C120.7869593 79.80882382 113.35123959 61.95066197 96.75195312 44.35131836 C70.57997242 17.53694996 31.00664391 6.31506313 -5.53808594 5.70800781 C-19.14481279 5.62438438 -31.76107435 6.89426976 -45 10 Z " fill="#F2AE14" transform="translate(212,107)"/>
<path d="M0 0 C3.94280022 1.31426674 6.37977359 2.74730514 9 6 C10.25 9.25 10.25 9.25 11 12 C12.32 12 13.64 12 15 12 C15 10.02 15 8.04 15 6 C16.98 6 18.96 6 21 6 C23.32590854 9.63423209 23.16265833 12.77088331 23 17 C25.96241456 18.10874365 25.96241456 18.10874365 29.0625 18.3125 C32 19 32 19 33.375 21.0625 C33.58125 21.701875 33.7875 22.34125 34 23 C35.485 21.02 35.485 21.02 37 19 C41.74351567 27.89064055 45.46226983 37.17725855 49.25 46.5 C50.2038016 48.83782452 51.15868911 51.1752014 52.11419678 53.5123291 C52.70417166 54.95640737 53.29296386 56.40096953 53.88043213 57.84606934 C55.34865267 61.46384377 55.34865267 61.46384377 57 65 C58.485 65.495 58.485 65.495 60 66 C60 66.66 60 67.32 60 68 C52.74 68 45.48 68 38 68 C38 67.34 38 66.68 38 66 C39.98 66 41.96 66 44 66 C42.68 62.37 41.36 58.74 40 55 C34.72 54.67 29.44 54.34 24 54 C23.67 57.63 23.34 61.26 23 65 C24.32 65.33 25.64 65.66 27 66 C27 66.66 27 67.32 27 68 C22.38 68 17.76 68 13 68 C13 67.34 13 66.68 13 66 C13.78375 65.2575 14.5675 64.515 15.375 63.75 C18.24256374 60.7458856 19.26837592 59.06457822 20 55 C19.22733742 51.20799496 19.22733742 51.20799496 18 48 C16.35 48 14.7 48 13 48 C13.05542969 48.88300781 13.11085937 49.76601562 13.16796875 50.67578125 C13.204026 57.38964067 12.75728212 62.0051357 8.09301758 66.91870117 C1.7017917 73 1.7017917 73 -1 73 C-1.53414112 71.10787298 -2.05178329 69.21108364 -2.5625 67.3125 C-2.85253906 66.25675781 -3.14257812 65.20101562 -3.44140625 64.11328125 C-4.50834552 58.16677357 -2.12909419 53.74407632 0.2578125 48.40234375 C1.07028957 45.77248376 0.92988553 44.54835718 0 42 C-3.16532398 42.60925484 -5.1548769 43.68049957 -7.75 45.5625 C-13.55144424 49.27285066 -18.58890975 48.3745217 -25 47 C-26.33542939 46.67516582 -27.66961551 46.3449145 -29 46 C-26.89166445 40.35412066 -24.24288548 35.33596524 -20 31 C-15.38321659 29.02137854 -10.96345235 29 -6 29 C-6 27.02 -6 25.04 -6 23 C-6.81984375 22.88785156 -7.6396875 22.77570313 -8.484375 22.66015625 C-17.15007685 21.07420842 -17.15007685 21.07420842 -19.6875 17.8671875 C-20.98592937 14.89798504 -22 12.26131346 -22 9 C-13.35196603 8.69236243 -7.76342563 10.11828719 0 14 C0.66 14 1.32 14 2 14 C1.68804687 13.49210938 1.37609375 12.98421875 1.0546875 12.4609375 C-2.16466552 6.76843911 -2.16466552 6.76843911 -1.25 2.5 C-0.8375 1.675 -0.425 0.85 0 0 Z " fill="#F9A900" transform="translate(125,146)"/>
<path d="M0 0 C5.94 0 11.88 0 18 0 C22.47559535 9.49368711 26.25920492 19.20062615 30 29 C34.52765075 19.52740351 38.24295613 9.79778107 42 0 C48.27 0 54.54 0 61 0 C61 0.33 61 0.66 61 1 C59.35 1.33 57.7 1.66 56 2 C56 16.19 56 30.38 56 45 C57.65 45.33 59.3 45.66 61 46 C61 46.66 61 47.32 61 48 C53.08 48 45.16 48 37 48 C37 47.34 37 46.68 37 46 C38.98 45.34 40.96 44.68 43 44 C43 31.46 43 18.92 43 6 C40.916875 11.445 38.83375 16.89 36.6875 22.5 C36.03612061 24.20220703 35.38474121 25.90441406 34.71362305 27.65820312 C34.18796763 29.03254419 33.66233162 30.40689267 33.13671875 31.78125 C32.87137329 32.47444336 32.60602783 33.16763672 32.3326416 33.88183594 C30.53592464 38.5808151 28.76237009 43.28802755 27 48 C26.34 48 25.68 48 25 48 C24.48614746 46.6699292 24.48614746 46.6699292 23.96191406 45.31298828 C22.67279328 41.97665872 21.38289245 38.64063117 20.09277344 35.3046875 C19.53787798 33.86954653 18.98318519 32.43432719 18.42871094 30.99902344 C15.3310597 22.98091536 12.2222301 14.96913688 9 7 C8.97531916 12.09032841 8.95714918 17.18062215 8.94506836 22.27099609 C8.94003318 24.00342414 8.93320468 25.73584792 8.92456055 27.46826172 C8.91245935 29.95541433 8.90676362 32.44251087 8.90234375 34.9296875 C8.89718246 35.70682098 8.89202118 36.48395447 8.88670349 37.28463745 C8.79671948 41.27170906 8.79671948 41.27170906 10 45 C12.52733235 45.65555119 12.52733235 45.65555119 15 46 C15 46.66 15 47.32 15 48 C9.72 48 4.44 48 -1 48 C-1 47.34 -1 46.68 -1 46 C-0.195625 45.87625 0.60875 45.7525 1.4375 45.625 C2.283125 45.41875 3.12875 45.2125 4 45 C5.69196504 41.61606992 5.11986549 37.77522209 5.09765625 34.0546875 C5.09553383 32.72716965 5.09553383 32.72716965 5.09336853 31.37283325 C5.0877614 28.54018809 5.07520771 25.70762136 5.0625 22.875 C5.05748592 20.95703239 5.05292285 19.03906354 5.04882812 17.12109375 C5.03778966 12.41403218 5.02052025 7.7070294 5 3 C2.525 2.01 2.525 2.01 0 1 C0 0.67 0 0.34 0 0 Z " fill="#EFEEEC" transform="translate(188,166)"/>
<path d="M0 0 C0.66 0 1.32 0 2 0 C2.46374023 1.10923828 2.92748047 2.21847656 3.40527344 3.36132812 C5.13946897 7.50735413 6.87730957 11.65184418 8.61621094 15.79589844 C9.36589219 17.58389792 10.11460668 19.37230308 10.86230469 21.16113281 C11.9420706 23.74393288 13.02539566 26.3252159 14.109375 28.90625 C14.43871033 29.69616333 14.76804565 30.48607666 15.10736084 31.29992676 C17.21608835 36.30890113 19.35570339 41.24796923 22 46 C22.99 46.33 23.98 46.66 25 47 C25 47.66 25 48.32 25 49 C17.74 49 10.48 49 3 49 C3 48.34 3 47.68 3 47 C4.65 47 6.3 47 8 47 C7.01 43.04 6.02 39.08 5 35 C-2.92 35.495 -2.92 35.495 -11 36 C-12.683989 40.2099725 -13.24059853 41.78952566 -13 46 C-11.35 46.33 -9.7 46.66 -8 47 C-8 47.66 -8 48.32 -8 49 C-12.95 49 -17.9 49 -23 49 C-23 48.34 -23 47.68 -23 47 C-22.38664795 46.7618457 -21.7732959 46.52369141 -21.14135742 46.27832031 C-18.45558349 44.67500116 -17.93806119 43.41000556 -16.73828125 40.546875 C-16.34560059 39.62720947 -15.95291992 38.70754395 -15.54833984 37.76000977 C-15.1405127 36.76670654 -14.73268555 35.77340332 -14.3125 34.75 C-13.88404785 33.73542725 -13.4555957 32.72085449 -13.01416016 31.67553711 C-11.66042918 28.45663807 -10.32786698 25.22964666 -9 22 C-8.5580127 20.93088379 -8.11602539 19.86176758 -7.66064453 18.76025391 C-5.08148488 12.51713372 -2.52717997 6.26433747 0 0 Z " fill="#F1F1EE" transform="translate(300,165)"/>
<path d="M0 0 C2.40954112 2.17122579 3.66237 4.0786623 4.88525391 7.07250977 C5.2221524 7.88667862 5.5590509 8.70084747 5.90615845 9.53968811 C6.25939178 10.4147551 6.61262512 11.28982208 6.9765625 12.19140625 C7.34727875 13.0924559 7.717995 13.99350555 8.09994507 14.92185974 C9.28204883 17.79922822 10.45373731 20.68070376 11.625 23.5625 C12.80572407 26.44687451 13.98851179 29.33039652 15.17147827 32.21385193 C15.90671052 34.00824545 16.6401792 35.80336276 17.37173462 37.59925842 C17.7023288 38.41027512 18.03292297 39.22129181 18.37353516 40.05688477 C18.6642691 40.77175552 18.95500305 41.48662628 19.25454712 42.22315979 C19.7910935 43.50205643 20.37976478 44.75952956 21 46 C21.99 46.33 22.98 46.66 24 47 C24 47.66 24 48.32 24 49 C16.74 49 9.48 49 2 49 C2 48.34 2 47.68 2 47 C3.98 47 5.96 47 8 47 C6.02 41.555 6.02 41.555 4 36 C-1.28 35.67 -6.56 35.34 -12 35 C-12.33 38.63 -12.66 42.26 -13 46 C-11.68 46.33 -10.36 46.66 -9 47 C-9 47.66 -9 48.32 -9 49 C-13.62 49 -18.24 49 -23 49 C-23 48.34 -23 47.68 -23 47 C-22.24847656 46.30390625 -21.49695313 45.6078125 -20.72265625 44.890625 C-17.44406572 41.40976849 -16.10057831 38.16500771 -14.4375 33.75 C-13.83282858 32.21452952 -13.22736869 30.67936929 -12.62109375 29.14453125 C-12.33862793 28.41830566 -12.05616211 27.69208008 -11.76513672 26.94384766 C-10.90061248 24.74750369 -9.97291445 22.58793324 -9 20.4375 C-7.04681468 16.11993246 -5.14702361 11.77996466 -3.25 7.4375 C-2.77240234 6.34489868 -2.77240234 6.34489868 -2.28515625 5.23022461 C-1.52320119 3.48691967 -0.76156681 1.74347458 0 0 Z " fill="#F2F1EE" transform="translate(161,165)"/>
<path d="M0 0 C5.94 0 11.88 0 18 0 C20.90526514 6.23777515 23.69446561 12.51187447 26.3125 18.875 C26.57885254 19.5047876 26.84520508 20.1345752 27.11962891 20.78344727 C28.5549056 24.32263414 29.31249241 27.17741848 29 31 C30.32 31.33 31.64 31.66 33 32 C31.02 37.28 29.04 42.56 27 48 C26.34 48 25.68 48 25 48 C24.48614746 46.6699292 24.48614746 46.6699292 23.96191406 45.31298828 C22.67279328 41.97665872 21.38289245 38.64063117 20.09277344 35.3046875 C19.53787798 33.86954653 18.98318519 32.43432719 18.42871094 30.99902344 C15.3310597 22.98091536 12.2222301 14.96913688 9 7 C8.97531916 12.09032841 8.95714918 17.18062215 8.94506836 22.27099609 C8.94003318 24.00342414 8.93320468 25.73584792 8.92456055 27.46826172 C8.91245935 29.95541433 8.90676362 32.44251087 8.90234375 34.9296875 C8.89718246 35.70682098 8.89202118 36.48395447 8.88670349 37.28463745 C8.79671948 41.27170906 8.79671948 41.27170906 10 45 C12.52733235 45.65555119 12.52733235 45.65555119 15 46 C15 46.66 15 47.32 15 48 C9.72 48 4.44 48 -1 48 C-1 47.34 -1 46.68 -1 46 C-0.195625 45.87625 0.60875 45.7525 1.4375 45.625 C2.283125 45.41875 3.12875 45.2125 4 45 C5.69196504 41.61606992 5.11986549 37.77522209 5.09765625 34.0546875 C5.09553383 32.72716965 5.09553383 32.72716965 5.09336853 31.37283325 C5.0877614 28.54018809 5.07520771 25.70762136 5.0625 22.875 C5.05748592 20.95703239 5.05292285 19.03906354 5.04882812 17.12109375 C5.03778966 12.41403218 5.02052025 7.7070294 5 3 C2.525 2.01 2.525 2.01 0 1 C0 0.67 0 0.34 0 0 Z " fill="#F3F3F0" transform="translate(188,166)"/>
<path d="M0 0 C7.59 0 15.18 0 23 0 C21.02 0.99 21.02 0.99 19 2 C17.5387973 3.23233585 17.5387973 3.23233585 17.88647461 6.96899414 C17.8866338 8.74105607 17.89233215 10.5131226 17.90234375 12.28515625 C17.90446617 13.68138466 17.90446617 13.68138466 17.90663147 15.1058197 C17.91224828 18.09141191 17.9248036 21.07693029 17.9375 24.0625 C17.94251284 26.08137913 17.94707612 28.10025943 17.95117188 30.11914062 C17.96222317 35.07945572 17.97949905 40.03971532 18 45 C19.65 45.33 21.3 45.66 23 46 C23 46.66 23 47.32 23 48 C15.08 48 7.16 48 -1 48 C-1 47.34 -1 46.68 -1 46 C0.98 45.34 2.96 44.68 5 44 C5 30.47 5 16.94 5 3 C2.525 2.01 2.525 2.01 0 1 C0 0.67 0 0.34 0 0 Z " fill="#F0EFED" transform="translate(252,166)"/>
<path d="M0 0 C1.828125 0.0703125 1.828125 0.0703125 4 1 C5.13607609 3.33792501 5.97160504 5.42232156 6.75 7.875 C6.97042969 8.51308594 7.19085938 9.15117187 7.41796875 9.80859375 C8.37610794 12.65920663 9 14.9743871 9 18 C8.16855469 18.02578125 7.33710938 18.0515625 6.48046875 18.078125 C5.39378906 18.13484375 4.30710937 18.1915625 3.1875 18.25 C1.56908203 18.31960937 1.56908203 18.31960937 -0.08203125 18.390625 C-3.06094218 18.74214912 -3.06094218 18.74214912 -4.84375 20.78125 C-6.03595604 23.06899672 -6.47450864 24.69410367 -6.6875 27.25 C-6.790625 28.4875 -6.89375 29.725 -7 31 C-5.35 31.33 -3.7 31.66 -2 32 C-2 32.66 -2 33.32 -2 34 C-6.95 34 -11.9 34 -17 34 C-17 33.34 -17 32.68 -17 32 C-16.39099854 31.77272217 -15.78199707 31.54544434 -15.15454102 31.3112793 C-12.33751815 29.59680566 -11.78868483 28.0440142 -10.52734375 25.01953125 C-10.10259766 24.01986328 -9.67785156 23.02019531 -9.24023438 21.99023438 C-8.81033203 20.94158203 -8.38042969 19.89292969 -7.9375 18.8125 C-7.2868457 17.26852539 -7.2868457 17.26852539 -6.62304688 15.69335938 C-5.78341176 13.69842723 -4.94904703 11.70126661 -4.12060547 9.70166016 C-2.77423116 6.45569543 -1.39196637 3.22662369 0 0 Z " fill="#CDCDCC" transform="translate(294,180)"/>
<path d="M0 0 C0.8353125 0.9590625 0.8353125 0.9590625 1.6875 1.9375 C4.22066561 4.19680987 5.68341424 4.63149047 9 5 C8.7525 5.845625 8.505 6.69125 8.25 7.5625 C7.90734822 12.27396201 9.43198614 14.1090699 12 18 C9.03 17.01 6.06 16.02 3 15 C2.773125 15.721875 2.54625 16.44375 2.3125 17.1875 C0.75190967 20.53162213 -1.35705671 22.45952947 -4 25 C-3.99097656 23.90300781 -3.98195313 22.80601562 -3.97265625 21.67578125 C-3.76255148 13.82431643 -3.76255148 13.82431643 -6.625 6.859375 C-8.7317306 5.37323587 -8.7317306 5.37323587 -12 4 C-12 3.67 -12 3.34 -12 3 C-8.37 3 -4.74 3 -1 3 C-0.67 2.01 -0.34 1.02 0 0 Z " fill="#F2A600" transform="translate(116,225)"/>
<path d="M0 0 C1.70840281 1.63412443 2.93453047 2.86906094 4 5 C6.52733235 5.65555119 6.52733235 5.65555119 9 6 C8.773125 6.86625 8.54625 7.7325 8.3125 8.625 C7.93552203 12.69636204 9.07843485 14.47713055 11 18 C10.67 18.66 10.34 19.32 10 20 C7.69 18.02 5.38 16.04 3 14 C0.525 15.485 0.525 15.485 -2 17 C-2.04898438 16.31292969 -2.09796875 15.62585938 -2.1484375 14.91796875 C-2.22320312 14.01691406 -2.29796875 13.11585938 -2.375 12.1875 C-2.44460937 11.29417969 -2.51421875 10.40085938 -2.5859375 9.48046875 C-2.86645036 6.75601501 -2.86645036 6.75601501 -5 4 C-3.35 4 -1.7 4 0 4 C0 2.68 0 1.36 0 0 Z " fill="#EBA200" transform="translate(181,180)"/>
<path d="M0 0 C3.1398451 1.56992255 3.42143346 4.22447002 4.625 7.4375 C5.07101563 8.61183594 5.51703125 9.78617188 5.9765625 10.99609375 C7 14 7 14 7 16 C2.71 16 -1.58 16 -6 16 C-5.24068597 12.20342984 -4.43358175 9.27070811 -3 5.75 C-2.649375 4.87859375 -2.29875 4.0071875 -1.9375 3.109375 C-1 1 -1 1 0 0 Z " fill="#1C1C1C" transform="translate(157,182)"/>
<path d="M0 0 C2.74515677 2.38333095 3.89080018 4.68909319 5.1875 8.0625 C5.53167969 8.94035156 5.87585938 9.81820312 6.23046875 10.72265625 C7 13 7 13 7 15 C3.04 15 -0.92 15 -5 15 C-4.43174347 9.45949887 -2.37113483 4.96284034 0 0 Z " fill="#0E0E0E" transform="translate(296,182)"/>
<path d="M0 0 C0.70189453 0.00902344 1.40378906 0.01804688 2.12695312 0.02734375 C3.85561525 0.05086296 5.58410145 0.08673287 7.3125 0.125 C6.9825 0.785 6.6525 1.445 6.3125 2.125 C1.6925 2.125 -2.9275 2.125 -7.6875 2.125 C-8.0175 5.755 -8.3475 9.385 -8.6875 13.125 C-7.3675 13.455 -6.0475 13.785 -4.6875 14.125 C-4.6875 14.785 -4.6875 15.445 -4.6875 16.125 C-9.3075 16.125 -13.9275 16.125 -18.6875 16.125 C-18.6875 15.465 -18.6875 14.805 -18.6875 14.125 C-17.924375 13.403125 -17.16125 12.68125 -16.375 11.9375 C-14.03597106 9.48967902 -13.22080498 8.41068926 -12.0625 5.4375 C-9.55759489 -0.59704413 -5.78193629 -0.14036447 0 0 Z " fill="#E6E5E2" transform="translate(156.6875,197.875)"/>
<path d="M0 0 C3.96 0 7.92 0 12 0 C12.33 2.64 12.66 5.28 13 8 C11.02 8 9.04 8 7 8 C7.33 5.69 7.66 3.38 8 1 C6.68 1 5.36 1 4 1 C4.33 3.31 4.66 5.62 5 8 C3.02 8 1.04 8 -1 8 C-0.67 5.36 -0.34 2.72 0 0 Z " fill="#690417" transform="translate(158,227)"/>
<path d="M0 0 C0.66 0 1.32 0 2 0 C1.40589562 5.83160355 -0.16792226 10.90843844 -2.25 16.375 C-2.53746094 17.19355469 -2.82492188 18.01210937 -3.12109375 18.85546875 C-3.95179013 21.04284831 -4.74513947 23.02458412 -6 25 C-8.734375 26.0390625 -8.734375 26.0390625 -11 26 C-10.67 25.34 -10.34 24.68 -10 24 C-6.27736058 16.13950368 -3.04338578 8.14591343 0 0 Z " fill="#E4E3E3" transform="translate(228,171)"/>
<path d="M0 0 C1.4540625 0.0309375 1.4540625 0.0309375 2.9375 0.0625 C2.6075 2.3725 2.2775 4.6825 1.9375 7.0625 C-1.6925 7.0625 -5.3225 7.0625 -9.0625 7.0625 C-9.0625 5.0825 -9.0625 3.1025 -9.0625 1.0625 C-7.8559375 1.0934375 -7.8559375 1.0934375 -6.625 1.125 C-3.4084517 1.0465476 -3.39792468 0.0693454 0 0 Z " fill="#030528" transform="translate(168.0625,219.9375)"/>
<path d="M0 0 C6.0546875 -0.1953125 6.0546875 -0.1953125 8 0 C10 2 10 2 10.125 4.625 C10.08375 5.40875 10.0425 6.1925 10 7 C7.03 7 4.06 7 1 7 C0.67 4.69 0.34 2.38 0 0 Z " fill="#03097A" transform="translate(243,220)"/>
<path d="M0 0 C6.0546875 -0.1953125 6.0546875 -0.1953125 8 0 C10 2 10 2 10.125 4.625 C10.08375 5.40875 10.0425 6.1925 10 7 C7.03 7 4.06 7 1 7 C0.67 4.69 0.34 2.38 0 0 Z " fill="#03097A" transform="translate(225,220)"/>
<path d="M0 0 C6.0546875 -0.1953125 6.0546875 -0.1953125 8 0 C10 2 10 2 10.125 4.625 C10.08375 5.40875 10.0425 6.1925 10 7 C7.03 7 4.06 7 1 7 C0.67 4.69 0.34 2.38 0 0 Z " fill="#030979" transform="translate(139,220)"/>
<path d="M0 0 C0.33 1.98 0.66 3.96 1 6 C2.65 6.33 4.3 6.66 6 7 C6 7.66 6 8.32 6 9 C1.05 9 -3.9 9 -9 9 C-9 8.34 -9 7.68 -9 7 C-8.38125 6.7525 -7.7625 6.505 -7.125 6.25 C-4.62181694 4.77753937 -4.16954719 3.58971163 -3 1 C-1 0 -1 0 0 0 Z " fill="#E6E5E3" transform="translate(286,205)"/>
<path d="M0 0 C2.31 0 4.62 0 7 0 C6.67 1.32 6.34 2.64 6 4 C5.67 3.34 5.34 2.68 5 2 C4.67 3.32 4.34 4.64 4 6 C5.98 5.67 7.96 5.34 10 5 C10 5.99 10 6.98 10 8 C6.37 8 2.74 8 -1 8 C-0.67 5.36 -0.34 2.72 0 0 Z " fill="#A6040A" transform="translate(296,227)"/>
<path d="M0 0 C1.32 0 2.64 0 4 0 C4 1.98 4 3.96 4 6 C5.65 6 7.3 6 9 6 C9.33 5.01 9.66 4.02 10 3 C10.5625 4.9375 10.5625 4.9375 11 7 C10 8 10 8 7.49609375 8.09765625 C5.98208984 8.08025391 5.98208984 8.08025391 4.4375 8.0625 C3.42558594 8.05347656 2.41367188 8.04445312 1.37109375 8.03515625 C0.58863281 8.02355469 -0.19382813 8.01195312 -1 8 C-0.67 5.36 -0.34 2.72 0 0 Z " fill="#C3040A" transform="translate(193,227)"/>
<path d="M0 0 C0.66 0 1.32 0 2 0 C1.47957586 5.98487755 0.01924507 11.75705698 -3 17 C-5.13671875 18.29296875 -5.13671875 18.29296875 -7 19 C-5.17778624 12.38757278 -2.94776396 6.19479329 0 0 Z " fill="#F4EEE1" transform="translate(154,181)"/>
<path d="M0 0 C3.3 0 6.6 0 10 0 C10.33 1.32 10.66 2.64 11 4 C9.02 3.34 7.04 2.68 5 2 C5 3.65 5 5.3 5 7 C3.68 7 2.36 7 1 7 C0.67 4.69 0.34 2.38 0 0 Z " fill="#040B9D" transform="translate(295,220)"/>
<path d="M0 0 C2.25 2.3125 2.25 2.3125 2.25 6.3125 C-0.06 6.6425 -2.37 6.9725 -4.75 7.3125 C-4.70875 6.549375 -4.6675 5.78625 -4.625 5 C-4.52919176 2.08531584 -4.52919176 2.08531584 -6.75 -0.6875 C-3.66354227 -2.05925899 -2.95986056 -1.81627807 0 0 Z " fill="#E09C00" transform="translate(162.75,143.6875)"/>
<path d="M0 0 C1.99954746 -0.04254356 4.00041636 -0.04080783 6 0 C7 1 7 1 7.1875 3.4375 C7 6 7 6 5 8 C1.375 7.625 1.375 7.625 -2 7 C-1.67 5.68 -1.34 4.36 -1 3 C-0.67 3.99 -0.34 4.98 0 6 C1.32 6 2.64 6 4 6 C4.33 5.01 4.66 4.02 5 3 C2.525 2.01 2.525 2.01 0 1 C0 0.67 0 0.34 0 0 Z " fill="#BF040D" transform="translate(316,227)"/>
<path d="M0 0 C2.64 0 5.28 0 8 0 C6.68 0.33 5.36 0.66 4 1 C4 2.98 4 4.96 4 7 C2.68 7 1.36 7 0 7 C0 4.69 0 2.38 0 0 Z " fill="#B60410" transform="translate(244,227)"/>
<path d="M0 0 C2.64 0 5.28 0 8 0 C6.68 0.33 5.36 0.66 4 1 C4 2.98 4 4.96 4 7 C2.68 7 1.36 7 0 7 C0 4.69 0 2.38 0 0 Z " fill="#B60410" transform="translate(226,227)"/>
<path d="M0 0 C2.64 0 5.28 0 8 0 C6.68 0.33 5.36 0.66 4 1 C4 2.98 4 4.96 4 7 C2.68 7 1.36 7 0 7 C0 4.69 0 2.38 0 0 Z " fill="#B50410" transform="translate(140,227)"/>
<path d="M0 0 C-0.33 1.32 -0.66 2.64 -1 4 C-1.33 3.34 -1.66 2.68 -2 2 C-4.02463255 1.34786708 -4.02463255 1.34786708 -6 1 C-6 1.99 -6 2.98 -6 4 C-4.68 4.66 -3.36 5.32 -2 6 C-3.98 6 -5.96 6 -8 6 C-8 4.02 -8 2.04 -8 0 C-5.13822943 -1.43088528 -3.06624227 -0.59991697 0 0 Z " fill="#040CAF" transform="translate(323,221)"/>
<path d="M0 0 C0.99 0.66 1.98 1.32 3 2 C1.68 4.97 0.36 7.94 -1 11 C-2.32 11 -3.64 11 -5 11 C-4.67 10.34 -4.34 9.68 -4 9 C-3.30799196 7.46035159 -2.62102116 5.91843487 -1.9375 4.375 C-1.57527344 3.55773437 -1.21304688 2.74046875 -0.83984375 1.8984375 C-0.42412109 0.95871094 -0.42412109 0.95871094 0 0 Z " fill="#D5D5D4" transform="translate(222,186)"/>
<path d="M0 0 C1.32 0.33 2.64 0.66 4 1 C2.33333333 4.33333333 0.66666667 7.66666667 -1 11 C-1.99 11 -2.98 11 -4 11 C-3.52269162 9.5410574 -3.04308958 8.08286504 -2.5625 6.625 C-2.29566406 5.81289062 -2.02882813 5.00078125 -1.75390625 4.1640625 C-1 2 -1 2 0 0 Z " fill="#DBDAD9" transform="translate(294,180)"/>
<path d="M0 0 C1.32 0 2.64 0 4 0 C4 2.31 4 4.62 4 7 C2.68 7 1.36 7 0 7 C0 4.69 0 2.38 0 0 Z " fill="#C2040A" transform="translate(262,227)"/>
<path d="M0 0 C1.32 0 2.64 0 4 0 C7 3.21428571 7 3.21428571 7 6 C5.68 6 4.36 6 3 6 C2.67 5.34 2.34 4.68 2 4 C1.34 4.66 0.68 5.32 0 6 C0 4.02 0 2.04 0 0 Z " fill="#050ECB" transform="translate(276,221)"/>
<path d="M0 0 C0.28875 0.598125 0.5775 1.19625 0.875 1.8125 C2.04742026 4.19327792 2.04742026 4.19327792 4 7 C1.36 7 -1.28 7 -4 7 C-2.68 4.69 -1.36 2.38 0 0 Z " fill="#F9F9F7" transform="translate(145,206)"/>
<path d="M0 0 C1.98 0 3.96 0 6 0 C6 2.31 6 4.62 6 7 C1.125 2.25 1.125 2.25 0 0 Z " fill="#D3040F" transform="translate(280,227)"/>
<path d="M0 0 C0.5625 1.9375 0.5625 1.9375 1 4 C0 5 0 5 -2.50390625 5.09765625 C-4.01791016 5.08025391 -4.01791016 5.08025391 -5.5625 5.0625 C-6.57441406 5.05347656 -7.58632812 5.04445312 -8.62890625 5.03515625 C-9.41136719 5.02355469 -10.19382813 5.01195312 -11 5 C-11 4.67 -11 4.34 -11 4 C-7.7 3.67 -4.4 3.34 -1 3 C-0.67 2.01 -0.34 1.02 0 0 Z " fill="#7C0301" transform="translate(203,230)"/>
<path d="M0 0 C0.99 0 1.98 0 3 0 C3 2.31 3 4.62 3 7 C2.01 7 1.02 7 0 7 C0 4.69 0 2.38 0 0 Z " fill="#E5040B" transform="translate(213,227)"/>
<path d="M0 0 C0.99 0 1.98 0 3 0 C3 2.31 3 4.62 3 7 C2.01 7 1.02 7 0 7 C0 4.69 0 2.38 0 0 Z " fill="#EA040B" transform="translate(180,227)"/>
<path d="M0 0 C2.4375 0.375 2.4375 0.375 5 1 C5.33 1.66 5.66 2.32 6 3 C5.34 3 4.68 3 4 3 C3.67 3.66 3.34 4.32 3 5 C2.01 5 1.02 5 0 5 C0 3.35 0 1.7 0 0 Z " fill="#03052A" transform="translate(300,222)"/>
<path d="M0 0 C0.99 0 1.98 0 3 0 C3 1.98 3 3.96 3 6 C2.01 6 1.02 6 0 6 C0 4.02 0 2.04 0 0 Z " fill="#F00400" transform="translate(166,228)"/>
<path d="M0 0 C0.99 0 1.98 0 3 0 C3 1.98 3 3.96 3 6 C2.01 6 1.02 6 0 6 C0 4.02 0 2.04 0 0 Z " fill="#E70401" transform="translate(159,228)"/>
<path d="M0 0 C1.32 0.33 2.64 0.66 4 1 C4 2.65 4 4.3 4 6 C3.01 6 2.02 6 1 6 C0.67 4.02 0.34 2.04 0 0 Z " fill="#050ECF" transform="translate(249,221)"/>
<path d="M0 0 C1.32 0.33 2.64 0.66 4 1 C4 2.65 4 4.3 4 6 C3.01 6 2.02 6 1 6 C0.67 4.02 0.34 2.04 0 0 Z " fill="#050ED1" transform="translate(231,221)"/>
<path d="M0 0 C1.32 0.33 2.64 0.66 4 1 C4 2.65 4 4.3 4 6 C3.01 6 2.02 6 1 6 C0.67 4.02 0.34 2.04 0 0 Z " fill="#050ED0" transform="translate(145,221)"/>
<path d="M0 0 C0.99 0 1.98 0 3 0 C3 1.98 3 3.96 3 6 C2.01 6 1.02 6 0 6 C0 4.02 0 2.04 0 0 Z " fill="#040FD3" transform="translate(263,221)"/>
<path d="M0 0 C0.99 0 1.98 0 3 0 C3 1.98 3 3.96 3 6 C2.01 6 1.02 6 0 6 C0 4.02 0 2.04 0 0 Z " fill="#040FDC" transform="translate(213,221)"/>
<path d="M0 0 C0.99 0 1.98 0 3 0 C3 1.98 3 3.96 3 6 C2.01 6 1.02 6 0 6 C0 4.02 0 2.04 0 0 Z " fill="#040FD3" transform="translate(194,221)"/>
<path d="M0 0 C0.99 0 1.98 0 3 0 C3 1.98 3 3.96 3 6 C2.01 6 1.02 6 0 6 C0 4.02 0 2.04 0 0 Z " fill="#050FDF" transform="translate(180,221)"/>
<path d="M0 0 C0.99 0 1.98 0 3 0 C3 1.98 3 3.96 3 6 C2.01 6 1.02 6 0 6 C0 4.02 0 2.04 0 0 Z " fill="#040FDB" transform="translate(166,221)"/>
<path d="M0 0 C0.99 0 1.98 0 3 0 C3 1.98 3 3.96 3 6 C2.01 6 1.02 6 0 6 C0 4.02 0 2.04 0 0 Z " fill="#040FD5" transform="translate(159,221)"/>
<path d="M0 0 C1.32 0 2.64 0 4 0 C3.34 1.98 2.68 3.96 2 6 C1.34 5.67 0.68 5.34 0 5 C0 3.35 0 1.7 0 0 Z " fill="#1F1809" transform="translate(154,172)"/>
<path d="M0 0 C2 1 2 1 2 1 Z " fill="#B7B7B7" transform="translate(256,107)"/>
</svg>
