<svg xmlns="http://www.w3.org/2000/svg" xmlns:xlink="http://www.w3.org/1999/xlink" width="128" zoomAndPan="magnify" viewBox="0 0 96 95.999999" height="128" preserveAspectRatio="xMidYMid meet" version="1.0"><defs><clipPath id="7feed391df"><path d="M 58 40 L 86.226562 40 L 86.226562 50 L 58 50 Z M 58 40 " clip-rule="nonzero"/></clipPath><clipPath id="8d8d13ca4a"><path d="M 9.726562 23 L 23 23 L 23 36 L 9.726562 36 Z M 9.726562 23 " clip-rule="nonzero"/></clipPath><clipPath id="6bb5a38588"><path d="M 37 54 L 45 54 L 45 77.707031 L 37 77.707031 Z M 37 54 " clip-rule="nonzero"/></clipPath></defs><path fill="#ffffff" d="M 48 0 C 21.480469 0 0 21.480469 0 48 C 0 74.519531 21.480469 96 48 96 C 74.519531 96 96 74.519531 96 48 C 96 21.480469 74.519531 0 48 0 Z M 48 0 " fill-opacity="1" fill-rule="nonzero"/><path fill="#232c5e" d="M 75.832031 58.574219 L 53.5 58.574219 C 53.132812 58.574219 52.835938 58.871094 52.835938 59.238281 C 52.835938 59.605469 53.136719 59.902344 53.5 59.902344 L 75.832031 59.902344 C 77.820312 59.902344 79.441406 61.519531 79.441406 63.507812 C 79.441406 65.5 77.820312 67.117188 75.832031 67.117188 L 73.050781 67.117188 C 72.683594 67.117188 72.386719 67.414062 72.386719 67.78125 C 72.386719 68.148438 72.683594 68.445312 73.050781 68.445312 L 75.832031 68.445312 C 78.554688 68.445312 80.769531 66.230469 80.769531 63.507812 C 80.769531 60.785156 78.554688 58.570312 75.832031 58.570312 Z M 75.832031 58.574219 " fill-opacity="1" fill-rule="nonzero"/><g clip-path="url(#7feed391df)"><path fill="#232c5e" d="M 81.351562 40 L 78.570312 40 C 78.203125 40 77.90625 40.300781 77.90625 40.664062 C 77.90625 41.03125 78.203125 41.332031 78.570312 41.332031 L 81.351562 41.332031 C 83.339844 41.332031 84.960938 42.949219 84.960938 44.9375 C 84.960938 46.925781 83.339844 48.542969 81.351562 48.542969 L 59.019531 48.542969 C 58.652344 48.542969 58.355469 48.84375 58.355469 49.210938 C 58.355469 49.578125 58.65625 49.875 59.019531 49.875 L 81.351562 49.875 C 84.074219 49.875 86.289062 47.65625 86.289062 44.9375 C 86.289062 42.214844 84.074219 40 81.351562 40 Z M 81.351562 40 " fill-opacity="1" fill-rule="nonzero"/></g><path fill="#232c5e" d="M 44.652344 36.136719 L 44.652344 24.863281 C 44.652344 23.855469 44.261719 22.910156 43.550781 22.203125 C 42.828125 21.492188 41.882812 21.101562 40.890625 21.101562 C 38.816406 21.101562 37.128906 22.789062 37.128906 24.863281 L 37.128906 36.136719 Z M 44.652344 36.136719 " fill-opacity="1" fill-rule="nonzero"/><path fill="#232c5e" d="M 58.058594 29.671875 C 58.058594 29.375 58.074219 29.082031 58.109375 28.789062 L 46.039062 28.789062 L 46.039062 30.566406 L 58.113281 30.566406 C 58.078125 30.269531 58.058594 29.96875 58.058594 29.671875 Z M 58.058594 29.671875 " fill-opacity="1" fill-rule="nonzero"/><g clip-path="url(#8d8d13ca4a)"><path fill="#232c5e" d="M 16.019531 36 C 18.984375 36 21.511719 33.988281 22.164062 31.105469 C 22.164062 31.105469 22.164062 31.101562 22.164062 31.101562 C 22.164062 31.101562 22.164062 31.097656 22.164062 31.097656 C 22.21875 30.867188 22.261719 30.628906 22.292969 30.390625 C 22.320312 30.148438 22.335938 29.90625 22.335938 29.671875 C 22.335938 29.199219 22.277344 28.722656 22.164062 28.257812 C 21.507812 25.367188 18.980469 23.355469 16.019531 23.355469 C 12.527344 23.355469 9.691406 26.1875 9.691406 29.671875 C 9.691406 33.15625 12.53125 36 16.019531 36 Z M 16.019531 36 " fill-opacity="1" fill-rule="nonzero"/></g><g clip-path="url(#6bb5a38588)"><path fill="#232c5e" d="M 37.125 54.214844 L 44.652344 54.214844 L 44.652344 77.429688 L 37.125 77.429688 Z M 37.125 54.214844 " fill-opacity="1" fill-rule="nonzero"/></g><path fill="#232c5e" d="M 40.019531 37.519531 L 41.757812 37.519531 L 41.757812 52.828125 L 40.019531 52.828125 Z M 40.019531 37.519531 " fill-opacity="1" fill-rule="nonzero"/><path fill="#232c5e" d="M 65.757812 36 C 69.25 36 72.085938 33.160156 72.085938 29.671875 C 72.085938 26.179688 69.246094 23.355469 65.757812 23.355469 C 62.839844 23.355469 60.257812 25.410156 59.613281 28.246094 C 59.5 28.722656 59.441406 29.195312 59.441406 29.667969 C 59.441406 30.140625 59.5 30.636719 59.613281 31.09375 C 60.265625 33.984375 62.792969 35.996094 65.757812 35.996094 Z M 65.757812 36 " fill-opacity="1" fill-rule="nonzero"/><path fill="#232c5e" d="M 23.667969 28.789062 C 23.703125 29.082031 23.722656 29.375 23.722656 29.671875 C 23.722656 29.964844 23.703125 30.261719 23.667969 30.554688 C 23.667969 30.558594 23.667969 30.5625 23.667969 30.566406 L 35.742188 30.566406 L 35.742188 28.789062 Z M 23.667969 28.789062 " fill-opacity="1" fill-rule="nonzero"/></svg>